<svg xmlns="http://www.w3.org/2000/svg" xmlns:xlink="http://www.w3.org/1999/xlink" width="1920" height="1080" viewBox="0 0 1920 1080">
  <defs>
    <filter id="Path_30" x="658.997" y="496.611" width="560.112" height="347.113" filterUnits="userSpaceOnUse">
      <feOffset dy="3" input="SourceAlpha"/>
      <feGaussianBlur stdDeviation="3" result="blur"/>
      <feFlood/>
      <feComposite operator="in" in2="blur"/>
      <feComposite in="SourceGraphic"/>
    </filter>
    <filter id="Path_22" x="561.921" y="30.707" width="508.079" height="322.655" filterUnits="userSpaceOnUse">
      <feOffset dy="3" input="SourceAlpha"/>
      <feGaussianBlur stdDeviation="3" result="blur-2"/>
      <feFlood flood-opacity="0.969"/>
      <feComposite operator="in" in2="blur-2"/>
    </filter>
    <filter id="Path_22-2" x="561.921" y="30.707" width="508.079" height="322.655" filterUnits="userSpaceOnUse">
      <feOffset dy="3" input="SourceAlpha"/>
      <feGaussianBlur stdDeviation="3" result="blur-3"/>
      <feFlood flood-color="#160c0c" result="color"/>
      <feComposite operator="out" in="SourceGraphic" in2="blur-3"/>
      <feComposite operator="in" in="color"/>
      <feComposite operator="in" in2="SourceGraphic"/>
    </filter>
    <filter id="Path_24" x="719.594" y="96.42" width="292.265" height="209.113" filterUnits="userSpaceOnUse">
      <feOffset dy="3" input="SourceAlpha"/>
      <feGaussianBlur stdDeviation="3" result="blur-4"/>
      <feFlood flood-opacity="0.949"/>
      <feComposite operator="in" in2="blur-4"/>
    </filter>
    <filter id="Path_24-2" x="719.594" y="96.42" width="292.265" height="209.113" filterUnits="userSpaceOnUse">
      <feOffset dy="3" input="SourceAlpha"/>
      <feGaussianBlur stdDeviation="3" result="blur-5"/>
      <feFlood flood-opacity="0" result="color-2"/>
      <feComposite operator="out" in="SourceGraphic" in2="blur-5"/>
      <feComposite operator="in" in="color-2"/>
      <feComposite operator="in" in2="SourceGraphic"/>
    </filter>
    <radialGradient id="radial-gradient" cx="0.5" cy="0.5" r="0.5" gradientUnits="objectBoundingBox">
      <stop offset="0" stop-color="#7a7878"/>
      <stop offset="1" stop-color="#3d3c3c"/>
    </radialGradient>
    <filter id="Path_1" x="756" y="281.811" width="375" height="373.955" filterUnits="userSpaceOnUse">
      <feOffset dy="3" input="SourceAlpha"/>
      <feGaussianBlur stdDeviation="3" result="blur-6"/>
      <feFlood flood-opacity="0.631"/>
      <feComposite operator="in" in2="blur-6"/>
    </filter>
    <filter id="Path_1-2" x="756" y="281.811" width="375" height="373.955" filterUnits="userSpaceOnUse">
      <feOffset dy="3" input="SourceAlpha"/>
      <feGaussianBlur stdDeviation="3" result="blur-7"/>
      <feFlood flood-opacity="0.729" result="color-3"/>
      <feComposite operator="out" in="SourceGraphic" in2="blur-7"/>
      <feComposite operator="in" in="color-3"/>
      <feComposite operator="in" in2="SourceGraphic"/>
    </filter>
    <filter id="Path_9" x="756" y="281.811" width="375" height="373.955" filterUnits="userSpaceOnUse">
      <feOffset dy="3" input="SourceAlpha"/>
      <feGaussianBlur stdDeviation="3" result="blur-8"/>
      <feFlood flood-opacity="0.631"/>
      <feComposite operator="in" in2="blur-8"/>
    </filter>
    <filter id="Path_9-2" x="756" y="281.811" width="375" height="373.955" filterUnits="userSpaceOnUse">
      <feOffset dy="3" input="SourceAlpha"/>
      <feGaussianBlur stdDeviation="3" result="blur-9"/>
      <feFlood flood-opacity="0.729" result="color-4"/>
      <feComposite operator="out" in="SourceGraphic" in2="blur-9"/>
      <feComposite operator="in" in="color-4"/>
      <feComposite operator="in" in2="SourceGraphic"/>
    </filter>
    <filter id="Path_4" x="815.5" y="394" width="261" height="74.591" filterUnits="userSpaceOnUse">
      <feOffset dy="3" input="SourceAlpha"/>
      <feGaussianBlur stdDeviation="3" result="blur-10"/>
      <feFlood flood-color="#171717" flood-opacity="0.161"/>
      <feComposite operator="in" in2="blur-10"/>
    </filter>
    <filter id="Path_4-2" x="815.5" y="394" width="261" height="74.591" filterUnits="userSpaceOnUse">
      <feOffset dy="3" input="SourceAlpha"/>
      <feGaussianBlur stdDeviation="3" result="blur-11"/>
      <feFlood flood-opacity="0.161" result="color-5"/>
      <feComposite operator="out" in="SourceGraphic" in2="blur-11"/>
      <feComposite operator="in" in="color-5"/>
      <feComposite operator="in" in2="SourceGraphic"/>
    </filter>
    <filter id="Path_3" x="854.022" y="407.426" width="61.218" height="39.062" filterUnits="userSpaceOnUse">
      <feOffset dy="3" input="SourceAlpha"/>
      <feGaussianBlur stdDeviation="3" result="blur-12"/>
      <feFlood flood-opacity="0.231"/>
      <feComposite operator="in" in2="blur-12"/>
    </filter>
    <filter id="Path_3-2" x="854.022" y="407.426" width="61.218" height="39.062" filterUnits="userSpaceOnUse">
      <feOffset dy="3" input="SourceAlpha"/>
      <feGaussianBlur stdDeviation="3" result="blur-13"/>
      <feFlood result="color-6"/>
      <feComposite operator="out" in="SourceGraphic" in2="blur-13"/>
      <feComposite operator="in" in="color-6"/>
      <feComposite operator="in" in2="SourceGraphic"/>
    </filter>
    <filter id="Path_7" x="974.869" y="406.081" width="61.523" height="40.408" filterUnits="userSpaceOnUse">
      <feOffset dy="3" input="SourceAlpha"/>
      <feGaussianBlur stdDeviation="3" result="blur-14"/>
      <feFlood flood-opacity="0.231"/>
      <feComposite operator="in" in2="blur-14"/>
    </filter>
    <filter id="Path_7-2" x="974.869" y="406.081" width="61.523" height="40.408" filterUnits="userSpaceOnUse">
      <feOffset dy="3" input="SourceAlpha"/>
      <feGaussianBlur stdDeviation="3" result="blur-15"/>
      <feFlood result="color-7"/>
      <feComposite operator="out" in="SourceGraphic" in2="blur-15"/>
      <feComposite operator="in" in="color-7"/>
      <feComposite operator="in" in2="SourceGraphic"/>
    </filter>
    <filter id="Polygon_4">
      <feOffset dy="3" input="SourceAlpha"/>
      <feGaussianBlur stdDeviation="3" result="blur-16"/>
      <feFlood flood-opacity="0.161" result="color-8"/>
      <feComposite operator="out" in="SourceGraphic" in2="blur-16"/>
      <feComposite operator="in" in="color-8"/>
      <feComposite operator="in" in2="SourceGraphic"/>
    </filter>
    <filter id="Path_32" x="597.23" y="559.061" width="153.454" height="143.955" filterUnits="userSpaceOnUse">
      <feOffset dy="3" input="SourceAlpha"/>
      <feGaussianBlur stdDeviation="3" result="blur-17"/>
      <feFlood flood-opacity="0.769"/>
      <feComposite operator="in" in2="blur-17"/>
      <feComposite in="SourceGraphic"/>
    </filter>
    <filter id="Path_33" x="1127.499" y="559.061" width="154.359" height="143.955" filterUnits="userSpaceOnUse">
      <feOffset dy="3" input="SourceAlpha"/>
      <feGaussianBlur stdDeviation="3" result="blur-18"/>
      <feFlood flood-opacity="0.769"/>
      <feComposite operator="in" in2="blur-18"/>
      <feComposite in="SourceGraphic"/>
    </filter>
    <radialGradient id="radial-gradient-5" cx="0.5" cy="0.5" r="0.5" gradientUnits="objectBoundingBox">
      <stop offset="0" stop-color="#7a7878" stop-opacity="0.878"/>
      <stop offset="0.063" stop-color="#7a7878" stop-opacity="0.878"/>
      <stop offset="0.611" stop-color="#7b7979" stop-opacity="0.894"/>
      <stop offset="0.787" stop-color="#7b7979" stop-opacity="0.886"/>
      <stop offset="1" stop-color="gray"/>
    </radialGradient>
    <clipPath id="clip-Logo">
      <rect width="1920" height="1080"/>
    </clipPath>
  </defs>
  <g id="Logo" clip-path="url(#clip-Logo)">
    <g transform="matrix(1, 0, 0, 1, 0, 0)" filter="url(#Path_30)">
      <path id="Path_30-2" data-name="Path 30" d="M780.214,519,730.6,506.135l-29.467,9.533-24.7,29.9L669.5,568.1l2.167,26.867L685.1,624.436,730.6,686.4l49.611,44.634L950.572,834.131l145.68-98.414,47.321-46.757,45.013-62.589s1.26-1.456.339-.418c.93-.834-3.26,3.711-.339.418,5.46-6.153,15.828-26.982,15.828-26.982l6.2-28.167V537.986l-16.9-22.317-40-9.533-47.153,19.682" transform="translate(-1 -3)" fill="#0f253e" stroke="#000" stroke-width="1"/>
    </g>
    <path id="Path_21" data-name="Path 21" d="M789.773,281.01l-57.325,59.725L675.122,281.01H562.431l84.255-61.3L669.2,161.445l73.36,8.324,26.874-62.053,77.16-3.027,37.591-67.04,54.6,59.473,57.424-27.053v67l53.936-29.354-18.614,62.053-53.637,23.4" transform="translate(10.028 -0.095)" fill="none" stroke="#000" stroke-width="1"/>
    <path id="Path_23" data-name="Path 23" d="M789.773,281.01l-57.325,59.725L675.122,281.01H562.431l84.255-61.3L669.2,161.445l73.36,8.324,26.874-62.053,77.16-3.027,37.591-67.04,54.6,59.473,57.424-27.053v67l53.936-29.354-18.614,62.053-53.637,23.4" transform="translate(10.028 -0.095)" fill="none" stroke="#000" stroke-width="1"/>
    <g data-type="innerShadowGroup">
      <g transform="matrix(1, 0, 0, 1, 0, 0)" filter="url(#Path_22)">
        <path id="Path_22-3" data-name="Path 22" d="M789.773,281.01l-57.325,59.725L675.122,281.01H562.431l84.255-61.3L669.2,161.445l73.36,8.324,26.874-62.053,77.16-3.027,37.591-67.04,54.6,59.473,57.424-27.053v67l53.936-29.354-18.614,62.053-53.637,23.4" transform="translate(10.03 -0.1)" fill="#0f253e" stroke="#0f253e" stroke-width="1"/>
      </g>
      <path id="Path_22-4" data-name="Path 22" d="M789.773,281.01l-57.325,59.725L675.122,281.01H562.431l84.255-61.3L669.2,161.445l73.36,8.324,26.874-62.053,77.16-3.027,37.591-67.04,54.6,59.473,57.424-27.053v67l53.936-29.354-18.614,62.053-53.637,23.4" transform="translate(10.028 -0.095)" fill="#0f253e"/>
      <g transform="matrix(1, 0, 0, 1, 0, 0)" filter="url(#Path_22-2)">
        <path id="Path_22-5" data-name="Path 22" d="M789.773,281.01l-57.325,59.725L675.122,281.01H562.431l84.255-61.3L669.2,161.445l73.36,8.324,26.874-62.053,77.16-3.027,37.591-67.04,54.6,59.473,57.424-27.053v67l53.936-29.354-18.614,62.053-53.637,23.4" transform="translate(10.03 -0.1)" fill="#fff"/>
      </g>
      <path id="Path_22-6" data-name="Path 22" d="M789.773,281.01l-57.325,59.725L675.122,281.01H562.431l84.255-61.3L669.2,161.445l73.36,8.324,26.874-62.053,77.16-3.027,37.591-67.04,54.6,59.473,57.424-27.053v67l53.936-29.354-18.614,62.053-53.637,23.4" transform="translate(10.028 -0.095)" fill="none" stroke="#0f253e" stroke-width="1"/>
    </g>
    <g data-type="innerShadowGroup">
      <g transform="matrix(1, 0, 0, 1, 0, 0)" filter="url(#Path_24)">
        <path id="Path_24-3" data-name="Path 24" d="M689.245,189.751,657.269,227.08l-31.977-37.329H562.43l47-38.31,12.56-36.419,40.921,5.2L677.9,81.441l43.041-1.892,20.969-41.9L772.366,74.82,804.4,57.912V99.788l30.087-18.347L824.1,120.225l-29.919,14.626" transform="translate(167.57 65.68)" fill="#bccff3" stroke="#bccff3" stroke-width="1"/>
      </g>
      <path id="Path_24-4" data-name="Path 24" d="M689.245,189.751,657.269,227.08l-31.977-37.329H562.43l47-38.31,12.56-36.419,40.921,5.2L677.9,81.441l43.041-1.892,20.969-41.9L772.366,74.82,804.4,57.912V99.788l30.087-18.347L824.1,120.225l-29.919,14.626" transform="translate(167.568 65.684)" fill="#bccff3"/>
      <g transform="matrix(1, 0, 0, 1, 0, 0)" filter="url(#Path_24-2)">
        <path id="Path_24-5" data-name="Path 24" d="M689.245,189.751,657.269,227.08l-31.977-37.329H562.43l47-38.31,12.56-36.419,40.921,5.2L677.9,81.441l43.041-1.892,20.969-41.9L772.366,74.82,804.4,57.912V99.788l30.087-18.347L824.1,120.225l-29.919,14.626" transform="translate(167.57 65.68)" fill="#fff"/>
      </g>
      <path id="Path_24-6" data-name="Path 24" d="M689.245,189.751,657.269,227.08l-31.977-37.329H562.43l47-38.31,12.56-36.419,40.921,5.2L677.9,81.441l43.041-1.892,20.969-41.9L772.366,74.82,804.4,57.912V99.788l30.087-18.347L824.1,120.225l-29.919,14.626" transform="translate(167.568 65.684)" fill="none" stroke="#bccff3" stroke-width="1"/>
    </g>
    <path id="Path_19" data-name="Path 19" d="M163.929,0c90.536,0,163.929,62.009,163.929,138.5S254.465,277,163.929,277,0,214.991,0,138.5c0-31.285,12.277-60.147,33.177-83.552C62.9,21.658,110.423,0,163.929,0Z" transform="translate(779.214 185)" fill="url(#radial-gradient)"/>
    <g data-type="innerShadowGroup">
      <g transform="matrix(1, 0, 0, 1, 0, 0)" filter="url(#Path_1)">
        <g id="Path_1-3" data-name="Path 1" transform="translate(765 347)" fill="#b1aeae">
          <path d="M 180.9012908935547 296.2243041992188 L 0.6037928462028503 221.46875 L 29.23004531860352 121.7982559204102 L 29.25009155273438 121.7283477783203 L 29.24945449829102 121.6556243896484 L 28.83004570007324 75.93498992919922 L 28.82931900024414 75.86048889160156 L 28.80695533752441 75.78939819335938 L 0.6599172949790955 -13.59344863891602 L 90.34850311279297 -23.37719535827637 L 90.41423034667969 -23.38437652587891 L 90.47581481933594 -23.40837669372559 L 180.9002838134766 -58.65047836303711 L 267.8560485839844 -23.41083145141602 L 267.9201049804688 -23.3848762512207 L 267.98876953125 -23.37728500366211 L 356.3269348144531 -13.59589767456055 L 324.8870544433594 79.21030426025391 L 324.8688049316406 79.26407623291016 L 324.8630981445312 79.32062530517578 L 320.4586486816406 123.0641708374023 L 320.4471740722656 123.1782150268555 L 320.4865112304688 123.2858505249023 L 356.3675231933594 221.485595703125 L 180.9012908935547 296.2243041992188 Z" stroke="none"/>
          <path d="M 180.8966979980469 -58.11245727539062 L 90.53414916992188 -22.89450073242188 L 90.40267944335938 -22.88018798828125 L 1.31982421875 -13.1624755859375 L 29.32858276367188 75.78135681152344 L 29.750732421875 121.7964859008789 L 29.71060180664062 121.9362564086914 L 1.20751953125 221.1778106689453 L 180.8986968994141 295.6819763183594 L 355.7350463867188 221.2115478515625 L 319.9381713867188 123.2421722412109 L 319.961181640625 123.0140762329102 L 324.3770141601562 79.15748596191406 L 324.4134521484375 79.04985046386719 L 355.6538391113281 -13.16738891601562 L 267.7963562011719 -22.89556884765625 L 267.668212890625 -22.947509765625 L 180.8966979980469 -58.11245727539062 M 180.9039154052734 -59.18850708007812 L 268.0438232421875 -23.87429809570312 L 357 -14.02442932128906 L 325.360595703125 79.37071228027344 L 320.9561462402344 123.1142578125 L 357 221.7596740722656 L 180.9039154052734 296.7666625976562 L 0 221.7596740722656 L 28.74945068359375 121.6602172851562 L 28.32998657226562 75.9395751953125 L 0 -14.02442932128906 L 90.29421997070312 -23.87429809570312 L 180.9039154052734 -59.18850708007812 Z" stroke="none" fill="#010101"/>
        </g>
      </g>
      <g id="Path_1-4" data-name="Path 1" transform="translate(765 347)" fill="#b1aeae">
        <path d="M 180.9012908935547 296.2243041992188 L 0.6037928462028503 221.46875 L 29.23004531860352 121.7982559204102 L 29.25009155273438 121.7283477783203 L 29.24945449829102 121.6556243896484 L 28.83004570007324 75.93498992919922 L 28.82931900024414 75.86048889160156 L 28.80695533752441 75.78939819335938 L 0.6599172949790955 -13.59344863891602 L 90.34850311279297 -23.37719535827637 L 90.41423034667969 -23.38437652587891 L 90.47581481933594 -23.40837669372559 L 180.9002838134766 -58.65047836303711 L 267.8560485839844 -23.41083145141602 L 267.9201049804688 -23.3848762512207 L 267.98876953125 -23.37728500366211 L 356.3269348144531 -13.59589767456055 L 324.8870544433594 79.21030426025391 L 324.8688049316406 79.26407623291016 L 324.8630981445312 79.32062530517578 L 320.4586486816406 123.0641708374023 L 320.4471740722656 123.1782150268555 L 320.4865112304688 123.2858505249023 L 356.3675231933594 221.485595703125 L 180.9012908935547 296.2243041992188 Z" stroke="none"/>
        <path d="M 180.8966979980469 -58.11245727539062 L 90.53414916992188 -22.89450073242188 L 90.40267944335938 -22.88018798828125 L 1.31982421875 -13.1624755859375 L 29.32858276367188 75.78135681152344 L 29.750732421875 121.7964859008789 L 29.71060180664062 121.9362564086914 L 1.20751953125 221.1778106689453 L 180.8986968994141 295.6819763183594 L 355.7350463867188 221.2115478515625 L 319.9381713867188 123.2421722412109 L 319.961181640625 123.0140762329102 L 324.3770141601562 79.15748596191406 L 324.4134521484375 79.04985046386719 L 355.6538391113281 -13.16738891601562 L 267.7963562011719 -22.89556884765625 L 267.668212890625 -22.947509765625 L 180.8966979980469 -58.11245727539062 M 180.9039154052734 -59.18850708007812 L 268.0438232421875 -23.87429809570312 L 357 -14.02442932128906 L 325.360595703125 79.37071228027344 L 320.9561462402344 123.1142578125 L 357 221.7596740722656 L 180.9039154052734 296.7666625976562 L 0 221.7596740722656 L 28.74945068359375 121.6602172851562 L 28.32998657226562 75.9395751953125 L 0 -14.02442932128906 L 90.29421997070312 -23.87429809570312 L 180.9039154052734 -59.18850708007812 Z" stroke="none"/>
      </g>
      <g transform="matrix(1, 0, 0, 1, 0, 0)" filter="url(#Path_1-2)">
        <g id="Path_1-5" data-name="Path 1" transform="translate(765 347)" fill="#fff">
          <path d="M 180.9012908935547 296.2243041992188 L 0.6037928462028503 221.46875 L 29.23004531860352 121.7982559204102 L 29.25009155273438 121.7283477783203 L 29.24945449829102 121.6556243896484 L 28.83004570007324 75.93498992919922 L 28.82931900024414 75.86048889160156 L 28.80695533752441 75.78939819335938 L 0.6599172949790955 -13.59344863891602 L 90.34850311279297 -23.37719535827637 L 90.41423034667969 -23.38437652587891 L 90.47581481933594 -23.40837669372559 L 180.9002838134766 -58.65047836303711 L 267.8560485839844 -23.41083145141602 L 267.9201049804688 -23.3848762512207 L 267.98876953125 -23.37728500366211 L 356.3269348144531 -13.59589767456055 L 324.8870544433594 79.21030426025391 L 324.8688049316406 79.26407623291016 L 324.8630981445312 79.32062530517578 L 320.4586486816406 123.0641708374023 L 320.4471740722656 123.1782150268555 L 320.4865112304688 123.2858505249023 L 356.3675231933594 221.485595703125 L 180.9012908935547 296.2243041992188 Z" stroke="none"/>
          <path d="M 180.8966979980469 -58.11245727539062 L 90.53414916992188 -22.89450073242188 L 90.40267944335938 -22.88018798828125 L 1.31982421875 -13.1624755859375 L 29.32858276367188 75.78135681152344 L 29.750732421875 121.7964859008789 L 29.71060180664062 121.9362564086914 L 1.20751953125 221.1778106689453 L 180.8986968994141 295.6819763183594 L 355.7350463867188 221.2115478515625 L 319.9381713867188 123.2421722412109 L 319.961181640625 123.0140762329102 L 324.3770141601562 79.15748596191406 L 324.4134521484375 79.04985046386719 L 355.6538391113281 -13.16738891601562 L 267.7963562011719 -22.89556884765625 L 267.668212890625 -22.947509765625 L 180.8966979980469 -58.11245727539062 M 180.9039154052734 -59.18850708007812 L 268.0438232421875 -23.87429809570312 L 357 -14.02442932128906 L 325.360595703125 79.37071228027344 L 320.9561462402344 123.1142578125 L 357 221.7596740722656 L 180.9039154052734 296.7666625976562 L 0 221.7596740722656 L 28.74945068359375 121.6602172851562 L 28.32998657226562 75.9395751953125 L 0 -14.02442932128906 L 90.29421997070312 -23.87429809570312 L 180.9039154052734 -59.18850708007812 Z" stroke="none"/>
        </g>
      </g>
      <g id="Path_1-6" data-name="Path 1" transform="translate(765 347)" fill="none">
        <path d="M 180.9012908935547 296.2243041992188 L 0.6037928462028503 221.46875 L 29.23004531860352 121.7982559204102 L 29.25009155273438 121.7283477783203 L 29.24945449829102 121.6556243896484 L 28.83004570007324 75.93498992919922 L 28.82931900024414 75.86048889160156 L 28.80695533752441 75.78939819335938 L 0.6599172949790955 -13.59344863891602 L 90.34850311279297 -23.37719535827637 L 90.41423034667969 -23.38437652587891 L 90.47581481933594 -23.40837669372559 L 180.9002838134766 -58.65047836303711 L 267.8560485839844 -23.41083145141602 L 267.9201049804688 -23.3848762512207 L 267.98876953125 -23.37728500366211 L 356.3269348144531 -13.59589767456055 L 324.8870544433594 79.21030426025391 L 324.8688049316406 79.26407623291016 L 324.8630981445312 79.32062530517578 L 320.4586486816406 123.0641708374023 L 320.4471740722656 123.1782150268555 L 320.4865112304688 123.2858505249023 L 356.3675231933594 221.485595703125 L 180.9012908935547 296.2243041992188 Z" stroke="none"/>
        <path d="M 180.8966979980469 -58.11245727539062 L 90.53414916992188 -22.89450073242188 L 90.40267944335938 -22.88018798828125 L 1.31982421875 -13.1624755859375 L 29.32858276367188 75.78135681152344 L 29.750732421875 121.7964859008789 L 29.71060180664062 121.9362564086914 L 1.20751953125 221.1778106689453 L 180.8986968994141 295.6819763183594 L 355.7350463867188 221.2115478515625 L 319.9381713867188 123.2421722412109 L 319.961181640625 123.0140762329102 L 324.3770141601562 79.15748596191406 L 324.4134521484375 79.04985046386719 L 355.6538391113281 -13.16738891601562 L 267.7963562011719 -22.89556884765625 L 267.668212890625 -22.947509765625 L 180.8966979980469 -58.11245727539062 M 180.9039154052734 -59.18850708007812 L 268.0438232421875 -23.87429809570312 L 357 -14.02442932128906 L 325.360595703125 79.37071228027344 L 320.9561462402344 123.1142578125 L 357 221.7596740722656 L 180.9039154052734 296.7666625976562 L 0 221.7596740722656 L 28.74945068359375 121.6602172851562 L 28.32998657226562 75.9395751953125 L 0 -14.02442932128906 L 90.29421997070312 -23.87429809570312 L 180.9039154052734 -59.18850708007812 Z" stroke="none" fill="#010101"/>
      </g>
    </g>
    <g data-type="innerShadowGroup">
      <g transform="matrix(1, 0, 0, 1, 0, 0)" filter="url(#Path_9)">
        <g id="Path_9-3" data-name="Path 9" transform="translate(765 347)" fill="url(#radial-gradient)">
          <path d="M 180.9012908935547 296.2243041992188 L 0.6037928462028503 221.46875 L 29.23004531860352 121.7982559204102 L 29.25009155273438 121.7283477783203 L 29.24945449829102 121.6556243896484 L 28.83004570007324 75.93498992919922 L 28.82931900024414 75.86048889160156 L 28.80695533752441 75.78939819335938 L 0.6599172949790955 -13.59344863891602 L 90.34850311279297 -23.37719535827637 L 90.41423034667969 -23.38437652587891 L 90.47581481933594 -23.40837669372559 L 180.9002838134766 -58.65047836303711 L 267.8560485839844 -23.41083145141602 L 267.9201049804688 -23.3848762512207 L 267.98876953125 -23.37728500366211 L 356.3269348144531 -13.59589767456055 L 324.8870544433594 79.21030426025391 L 324.8688049316406 79.26407623291016 L 324.8630981445312 79.32062530517578 L 320.4586486816406 123.0641708374023 L 320.4471740722656 123.1782150268555 L 320.4865112304688 123.2858505249023 L 356.3675231933594 221.485595703125 L 180.9012908935547 296.2243041992188 Z" stroke="none"/>
          <path d="M 180.8966979980469 -58.11245727539062 L 90.53414916992188 -22.89450073242188 L 90.40267944335938 -22.88018798828125 L 1.31982421875 -13.1624755859375 L 29.32858276367188 75.78135681152344 L 29.750732421875 121.7964859008789 L 29.71060180664062 121.9362564086914 L 1.20751953125 221.1778106689453 L 180.8986968994141 295.6819763183594 L 355.7350463867188 221.2115478515625 L 319.9381713867188 123.2421722412109 L 319.961181640625 123.0140762329102 L 324.3770141601562 79.15748596191406 L 324.4134521484375 79.04985046386719 L 355.6538391113281 -13.16738891601562 L 267.7963562011719 -22.89556884765625 L 267.668212890625 -22.947509765625 L 180.8966979980469 -58.11245727539062 M 180.9039154052734 -59.18850708007812 L 268.0438232421875 -23.87429809570312 L 357 -14.02442932128906 L 325.360595703125 79.37071228027344 L 320.9561462402344 123.1142578125 L 357 221.7596740722656 L 180.9039154052734 296.7666625976562 L 0 221.7596740722656 L 28.74945068359375 121.6602172851562 L 28.32998657226562 75.9395751953125 L 0 -14.02442932128906 L 90.29421997070312 -23.87429809570312 L 180.9039154052734 -59.18850708007812 Z" stroke="none" fill="#010101"/>
        </g>
      </g>
      <g id="Path_9-4" data-name="Path 9" transform="translate(765 347)" fill="url(#radial-gradient)">
        <path d="M 180.9012908935547 296.2243041992188 L 0.6037928462028503 221.46875 L 29.23004531860352 121.7982559204102 L 29.25009155273438 121.7283477783203 L 29.24945449829102 121.6556243896484 L 28.83004570007324 75.93498992919922 L 28.82931900024414 75.86048889160156 L 28.80695533752441 75.78939819335938 L 0.6599172949790955 -13.59344863891602 L 90.34850311279297 -23.37719535827637 L 90.41423034667969 -23.38437652587891 L 90.47581481933594 -23.40837669372559 L 180.9002838134766 -58.65047836303711 L 267.8560485839844 -23.41083145141602 L 267.9201049804688 -23.3848762512207 L 267.98876953125 -23.37728500366211 L 356.3269348144531 -13.59589767456055 L 324.8870544433594 79.21030426025391 L 324.8688049316406 79.26407623291016 L 324.8630981445312 79.32062530517578 L 320.4586486816406 123.0641708374023 L 320.4471740722656 123.1782150268555 L 320.4865112304688 123.2858505249023 L 356.3675231933594 221.485595703125 L 180.9012908935547 296.2243041992188 Z" stroke="none"/>
        <path d="M 180.8966979980469 -58.11245727539062 L 90.53414916992188 -22.89450073242188 L 90.40267944335938 -22.88018798828125 L 1.31982421875 -13.1624755859375 L 29.32858276367188 75.78135681152344 L 29.750732421875 121.7964859008789 L 29.71060180664062 121.9362564086914 L 1.20751953125 221.1778106689453 L 180.8986968994141 295.6819763183594 L 355.7350463867188 221.2115478515625 L 319.9381713867188 123.2421722412109 L 319.961181640625 123.0140762329102 L 324.3770141601562 79.15748596191406 L 324.4134521484375 79.04985046386719 L 355.6538391113281 -13.16738891601562 L 267.7963562011719 -22.89556884765625 L 267.668212890625 -22.947509765625 L 180.8966979980469 -58.11245727539062 M 180.9039154052734 -59.18850708007812 L 268.0438232421875 -23.87429809570312 L 357 -14.02442932128906 L 325.360595703125 79.37071228027344 L 320.9561462402344 123.1142578125 L 357 221.7596740722656 L 180.9039154052734 296.7666625976562 L 0 221.7596740722656 L 28.74945068359375 121.6602172851562 L 28.32998657226562 75.9395751953125 L 0 -14.02442932128906 L 90.29421997070312 -23.87429809570312 L 180.9039154052734 -59.18850708007812 Z" stroke="none"/>
      </g>
      <g transform="matrix(1, 0, 0, 1, 0, 0)" filter="url(#Path_9-2)">
        <g id="Path_9-5" data-name="Path 9" transform="translate(765 347)" fill="#fff">
          <path d="M 180.9012908935547 296.2243041992188 L 0.6037928462028503 221.46875 L 29.23004531860352 121.7982559204102 L 29.25009155273438 121.7283477783203 L 29.24945449829102 121.6556243896484 L 28.83004570007324 75.93498992919922 L 28.82931900024414 75.86048889160156 L 28.80695533752441 75.78939819335938 L 0.6599172949790955 -13.59344863891602 L 90.34850311279297 -23.37719535827637 L 90.41423034667969 -23.38437652587891 L 90.47581481933594 -23.40837669372559 L 180.9002838134766 -58.65047836303711 L 267.8560485839844 -23.41083145141602 L 267.9201049804688 -23.3848762512207 L 267.98876953125 -23.37728500366211 L 356.3269348144531 -13.59589767456055 L 324.8870544433594 79.21030426025391 L 324.8688049316406 79.26407623291016 L 324.8630981445312 79.32062530517578 L 320.4586486816406 123.0641708374023 L 320.4471740722656 123.1782150268555 L 320.4865112304688 123.2858505249023 L 356.3675231933594 221.485595703125 L 180.9012908935547 296.2243041992188 Z" stroke="none"/>
          <path d="M 180.8966979980469 -58.11245727539062 L 90.53414916992188 -22.89450073242188 L 90.40267944335938 -22.88018798828125 L 1.31982421875 -13.1624755859375 L 29.32858276367188 75.78135681152344 L 29.750732421875 121.7964859008789 L 29.71060180664062 121.9362564086914 L 1.20751953125 221.1778106689453 L 180.8986968994141 295.6819763183594 L 355.7350463867188 221.2115478515625 L 319.9381713867188 123.2421722412109 L 319.961181640625 123.0140762329102 L 324.3770141601562 79.15748596191406 L 324.4134521484375 79.04985046386719 L 355.6538391113281 -13.16738891601562 L 267.7963562011719 -22.89556884765625 L 267.668212890625 -22.947509765625 L 180.8966979980469 -58.11245727539062 M 180.9039154052734 -59.18850708007812 L 268.0438232421875 -23.87429809570312 L 357 -14.02442932128906 L 325.360595703125 79.37071228027344 L 320.9561462402344 123.1142578125 L 357 221.7596740722656 L 180.9039154052734 296.7666625976562 L 0 221.7596740722656 L 28.74945068359375 121.6602172851562 L 28.32998657226562 75.9395751953125 L 0 -14.02442932128906 L 90.29421997070312 -23.87429809570312 L 180.9039154052734 -59.18850708007812 Z" stroke="none"/>
        </g>
      </g>
      <g id="Path_9-6" data-name="Path 9" transform="translate(765 347)" fill="none">
        <path d="M 180.9012908935547 296.2243041992188 L 0.6037928462028503 221.46875 L 29.23004531860352 121.7982559204102 L 29.25009155273438 121.7283477783203 L 29.24945449829102 121.6556243896484 L 28.83004570007324 75.93498992919922 L 28.82931900024414 75.86048889160156 L 28.80695533752441 75.78939819335938 L 0.6599172949790955 -13.59344863891602 L 90.34850311279297 -23.37719535827637 L 90.41423034667969 -23.38437652587891 L 90.47581481933594 -23.40837669372559 L 180.9002838134766 -58.65047836303711 L 267.8560485839844 -23.41083145141602 L 267.9201049804688 -23.3848762512207 L 267.98876953125 -23.37728500366211 L 356.3269348144531 -13.59589767456055 L 324.8870544433594 79.21030426025391 L 324.8688049316406 79.26407623291016 L 324.8630981445312 79.32062530517578 L 320.4586486816406 123.0641708374023 L 320.4471740722656 123.1782150268555 L 320.4865112304688 123.2858505249023 L 356.3675231933594 221.485595703125 L 180.9012908935547 296.2243041992188 Z" stroke="none"/>
        <path d="M 180.8966979980469 -58.11245727539062 L 90.53414916992188 -22.89450073242188 L 90.40267944335938 -22.88018798828125 L 1.31982421875 -13.1624755859375 L 29.32858276367188 75.78135681152344 L 29.750732421875 121.7964859008789 L 29.71060180664062 121.9362564086914 L 1.20751953125 221.1778106689453 L 180.8986968994141 295.6819763183594 L 355.7350463867188 221.2115478515625 L 319.9381713867188 123.2421722412109 L 319.961181640625 123.0140762329102 L 324.3770141601562 79.15748596191406 L 324.4134521484375 79.04985046386719 L 355.6538391113281 -13.16738891601562 L 267.7963562011719 -22.89556884765625 L 267.668212890625 -22.947509765625 L 180.8966979980469 -58.11245727539062 M 180.9039154052734 -59.18850708007812 L 268.0438232421875 -23.87429809570312 L 357 -14.02442932128906 L 325.360595703125 79.37071228027344 L 320.9561462402344 123.1142578125 L 357 221.7596740722656 L 180.9039154052734 296.7666625976562 L 0 221.7596740722656 L 28.74945068359375 121.6602172851562 L 28.32998657226562 75.9395751953125 L 0 -14.02442932128906 L 90.29421997070312 -23.87429809570312 L 180.9039154052734 -59.18850708007812 Z" stroke="none" fill="#010101"/>
      </g>
    </g>
    <g id="Path_8" data-name="Path 8" transform="translate(936.249 549.777)" fill="#0a0a0a">
      <path d="M 10.5 92.57353973388672 L 10.5 56.05899429321289 L 10.5 9.775388717651367 L 18.5827751159668 88.58113098144531 L 10.5 92.57353973388672 Z" stroke="none"/>
      <path d="M 11 19.55088043212891 L 11 91.76889801025391 L 18.04994201660156 88.28665161132812 L 11 19.55088043212891 M 10 0 L 19.1156005859375 88.8756103515625 L 10 93.378173828125 L 10 0 Z" stroke="none" fill="#160c0c"/>
    </g>
    <g id="Path_6" data-name="Path 6" transform="translate(953.111 509.227) rotate(179)">
      <path d="M 12.14579963684082 58.05549621582031 L 0.5571666955947876 58.05549621582031 L 6.351483821868896 4.636590003967285 L 8.410083770751953 23.61518859863281 L 10.26294326782227 40.69709777832031 L 12.14579963684082 58.05549621582031 Z" stroke="none"/>
      <path d="M 6.351483821868896 9.273273468017578 L 1.114339828491211 57.55549621582031 L 11.58862686157227 57.55549621582031 L 6.351483821868896 9.273273468017578 M 6.351483345031738 0 L 12.70296287536621 58.55549621582031 L 3.814697265625e-06 58.55549621582031 L 6.351483345031738 0 Z" stroke="none" fill="#070404"/>
    </g>
    <g data-type="innerShadowGroup">
      <g transform="matrix(1, 0, 0, 1, 0, 0)" filter="url(#Path_4)">
        <g id="Path_4-3" data-name="Path 4" transform="translate(824.5 400)" fill="#0e0c0c">
          <path d="M 122.4702911376953 56.08657073974609 L 0.5 40.55960083007812 L 0.5 0.5885640978813171 L 122.3899993896484 20.55402183532715 L 122.4714660644531 20.5673656463623 L 122.5529098510742 20.55380249023438 L 242.5 0.5900911688804626 L 242.5 40.56049346923828 L 122.4702911376953 56.08657073974609 Z" stroke="none"/>
          <path d="M 1 1.177112579345703 L 1 40.11921691894531 L 122.4697723388672 55.58246994018555 L 242 40.12099838256836 L 242 1.180191040039062 L 122.4721221923828 21.07411575317383 L 122.3091583251953 21.04742813110352 L 1 1.177112579345703 M 0 -1.1444091796875e-05 L 122.4708099365234 20.06058502197266 L 243 -1.1444091796875e-05 L 243 40.99999237060547 L 122.4708099365234 56.59067916870117 L 0 40.99999237060547 L 0 -1.1444091796875e-05 Z" stroke="none" fill="#131010"/>
        </g>
      </g>
      <g id="Path_4-4" data-name="Path 4" transform="translate(824.5 400)" fill="#0e0c0c">
        <path d="M 122.4702911376953 56.08657073974609 L 0.5 40.55960083007812 L 0.5 0.5885640978813171 L 122.3899993896484 20.55402183532715 L 122.4714660644531 20.5673656463623 L 122.5529098510742 20.55380249023438 L 242.5 0.5900911688804626 L 242.5 40.56049346923828 L 122.4702911376953 56.08657073974609 Z" stroke="none"/>
        <path d="M 1 1.177112579345703 L 1 40.11921691894531 L 122.4697723388672 55.58246994018555 L 242 40.12099838256836 L 242 1.180191040039062 L 122.4721221923828 21.07411575317383 L 122.3091583251953 21.04742813110352 L 1 1.177112579345703 M 0 -1.1444091796875e-05 L 122.4708099365234 20.06058502197266 L 243 -1.1444091796875e-05 L 243 40.99999237060547 L 122.4708099365234 56.59067916870117 L 0 40.99999237060547 L 0 -1.1444091796875e-05 Z" stroke="none"/>
      </g>
      <g transform="matrix(1, 0, 0, 1, 0, 0)" filter="url(#Path_4-2)">
        <g id="Path_4-5" data-name="Path 4" transform="translate(824.5 400)" fill="#fff">
          <path d="M 122.4702911376953 56.08657073974609 L 0.5 40.55960083007812 L 0.5 0.5885640978813171 L 122.3899993896484 20.55402183532715 L 122.4714660644531 20.5673656463623 L 122.5529098510742 20.55380249023438 L 242.5 0.5900911688804626 L 242.5 40.56049346923828 L 122.4702911376953 56.08657073974609 Z" stroke="none"/>
          <path d="M 1 1.177112579345703 L 1 40.11921691894531 L 122.4697723388672 55.58246994018555 L 242 40.12099838256836 L 242 1.180191040039062 L 122.4721221923828 21.07411575317383 L 122.3091583251953 21.04742813110352 L 1 1.177112579345703 M 0 -1.1444091796875e-05 L 122.4708099365234 20.06058502197266 L 243 -1.1444091796875e-05 L 243 40.99999237060547 L 122.4708099365234 56.59067916870117 L 0 40.99999237060547 L 0 -1.1444091796875e-05 Z" stroke="none"/>
        </g>
      </g>
      <g id="Path_4-6" data-name="Path 4" transform="translate(824.5 400)" fill="none">
        <path d="M 122.4702911376953 56.08657073974609 L 0.5 40.55960083007812 L 0.5 0.5885640978813171 L 122.3899993896484 20.55402183532715 L 122.4714660644531 20.5673656463623 L 122.5529098510742 20.55380249023438 L 242.5 0.5900911688804626 L 242.5 40.56049346923828 L 122.4702911376953 56.08657073974609 Z" stroke="none"/>
        <path d="M 1 1.177112579345703 L 1 40.11921691894531 L 122.4697723388672 55.58246994018555 L 242 40.12099838256836 L 242 1.180191040039062 L 122.4721221923828 21.07411575317383 L 122.3091583251953 21.04742813110352 L 1 1.177112579345703 M 0 -1.1444091796875e-05 L 122.4708099365234 20.06058502197266 L 243 -1.1444091796875e-05 L 243 40.99999237060547 L 122.4708099365234 56.59067916870117 L 0 40.99999237060547 L 0 -1.1444091796875e-05 Z" stroke="none" fill="#131010"/>
      </g>
    </g>
    <g data-type="innerShadowGroup">
      <g transform="matrix(1, 0, 0, 1, 0, 0)" filter="url(#Path_3)">
        <g id="Path_3-3" data-name="Path 3" transform="translate(862.46 401.38) rotate(8)" fill="#fff">
          <path d="M 24.39823913574219 26.49460220336914 C 17.91858863830566 26.49460220336914 12.98523902893066 25.47099113464355 9.73521900177002 23.45219230651855 C 6.792218685150146 21.62411117553711 5.299988746643066 19.01076126098633 5.299988746643066 15.6847620010376 C 5.299988746643066 14.34844207763672 5.103528499603271 13.38374137878418 4.973538875579834 12.74537181854248 C 4.92235279083252 12.49402713775635 4.865505218505859 12.21486186981201 4.860509872436523 12.07116603851318 C 4.910911083221436 12.06257820129395 4.995463371276855 12.0540018081665 5.132148742675781 12.0540018081665 C 5.565538883209229 12.0540018081665 6.266708850860596 12.13619136810303 7.32805871963501 12.26061153411865 C 10.1086483001709 12.58656215667725 15.28438854217529 13.19329166412354 24.74899864196777 13.37963199615479 C 26.17444801330566 13.40770149230957 27.57343864440918 13.42193126678467 28.90708923339844 13.42193126678467 C 36.4715576171875 13.42193126678467 40.77954864501953 12.96761131286621 43.09395980834961 12.72354221343994 C 43.96521759033203 12.6316614151001 44.59471893310547 12.56527137756348 44.99387741088867 12.56527137756348 C 45.18620681762695 12.56527137756348 45.28465270996094 12.58107566833496 45.33139801025391 12.59290599822998 C 45.34820556640625 12.73597812652588 45.29802322387695 13.08816337585449 45.25321960449219 13.40261173248291 C 45.16660690307617 14.01041221618652 45.04798889160156 14.8428316116333 45.04798889160156 15.98524188995361 C 45.04798889160156 17.56614112854004 44.61206817626953 19.0108814239502 43.75233840942383 20.27933120727539 C 42.88248825073242 21.56273078918457 41.5748291015625 22.67522239685059 39.86570739746094 23.58590126037598 C 38.10677719116211 24.52312088012695 35.92376708984375 25.24612236022949 33.37732696533203 25.73482131958008 C 30.75033950805664 26.23897171020508 27.72933959960938 26.49460220336914 24.39823913574219 26.49460220336914 Z" stroke="none"/>
          <path d="M 5.447277069091797 12.56594467163086 C 5.452751159667969 12.59297180175781 5.458183288574219 12.61965370178223 5.463470458984375 12.64560127258301 C 5.597469329833984 13.30363082885742 5.799980163574219 14.29805183410645 5.799980163574219 15.68476104736328 C 5.799980163574219 18.8262825012207 7.212749481201172 21.29672241210938 9.999038696289062 23.02746200561523 C 13.16864776611328 24.99631118774414 18.01323890686035 25.99460220336914 24.39823913574219 25.99460220336914 C 30.86418914794922 25.99460220336914 36.13144683837891 25.00910186767578 39.63058853149414 23.14463043212891 C 42.89353942871094 21.4060115814209 44.54798889160156 18.99725151062012 44.54798889160156 15.9852409362793 C 44.54798889160156 14.80739212036133 44.66948699951172 13.95469093322754 44.75820922851562 13.33208084106445 C 44.77017211914062 13.24814987182617 44.78306579589844 13.15766525268555 44.79476928710938 13.07017517089844 C 44.41575241088867 13.0869197845459 43.86475372314453 13.14503288269043 43.14650726318359 13.22078132629395 C 40.82296752929688 13.46581268310547 36.49798965454102 13.92192268371582 28.9070987701416 13.92192268371582 C 27.570068359375 13.92192268371582 26.16776847839355 13.90766143798828 24.73915863037109 13.87953186035156 C 15.25027847290039 13.69271087646484 10.05885696411133 13.08415222167969 7.269840240478516 12.75721168518066 C 6.486061096191406 12.66533660888672 5.871662139892578 12.59331130981445 5.447277069091797 12.56594467163086 M 5.13214111328125 11.55399894714355 C 6.783756256103516 11.55399894714355 11.64556884765625 12.62154769897461 24.75883865356445 12.87972259521484 C 38.28156661987305 13.14595222473145 43.27023696899414 12.06529998779297 44.99387741088867 12.06526756286621 C 46.47279357910156 12.06524085998535 45.54798889160156 12.86076545715332 45.54798889160156 15.9852409362793 C 45.54798889160156 22.7512321472168 38.07214736938477 26.99460220336914 24.39823913574219 26.99460220336914 C 10.72430038452148 26.99460220336914 4.799980163574219 22.45074081420898 4.799980163574219 15.68476104736328 C 4.799980163574219 12.45002555847168 3.619209289550781 11.55399894714355 5.13214111328125 11.55399894714355 Z" stroke="none" fill="#1d1515"/>
        </g>
      </g>
      <g id="Path_3-4" data-name="Path 3" transform="translate(862.46 401.377) rotate(8)" fill="#fff">
        <path d="M 24.39823913574219 26.49460220336914 C 17.91858863830566 26.49460220336914 12.98523902893066 25.47099113464355 9.73521900177002 23.45219230651855 C 6.792218685150146 21.62411117553711 5.299988746643066 19.01076126098633 5.299988746643066 15.6847620010376 C 5.299988746643066 14.34844207763672 5.103528499603271 13.38374137878418 4.973538875579834 12.74537181854248 C 4.92235279083252 12.49402713775635 4.865505218505859 12.21486186981201 4.860509872436523 12.07116603851318 C 4.910911083221436 12.06257820129395 4.995463371276855 12.0540018081665 5.132148742675781 12.0540018081665 C 5.565538883209229 12.0540018081665 6.266708850860596 12.13619136810303 7.32805871963501 12.26061153411865 C 10.1086483001709 12.58656215667725 15.28438854217529 13.19329166412354 24.74899864196777 13.37963199615479 C 26.17444801330566 13.40770149230957 27.57343864440918 13.42193126678467 28.90708923339844 13.42193126678467 C 36.4715576171875 13.42193126678467 40.77954864501953 12.96761131286621 43.09395980834961 12.72354221343994 C 43.96521759033203 12.6316614151001 44.59471893310547 12.56527137756348 44.99387741088867 12.56527137756348 C 45.18620681762695 12.56527137756348 45.28465270996094 12.58107566833496 45.33139801025391 12.59290599822998 C 45.34820556640625 12.73597812652588 45.29802322387695 13.08816337585449 45.25321960449219 13.40261173248291 C 45.16660690307617 14.01041221618652 45.04798889160156 14.8428316116333 45.04798889160156 15.98524188995361 C 45.04798889160156 17.56614112854004 44.61206817626953 19.0108814239502 43.75233840942383 20.27933120727539 C 42.88248825073242 21.56273078918457 41.5748291015625 22.67522239685059 39.86570739746094 23.58590126037598 C 38.10677719116211 24.52312088012695 35.92376708984375 25.24612236022949 33.37732696533203 25.73482131958008 C 30.75033950805664 26.23897171020508 27.72933959960938 26.49460220336914 24.39823913574219 26.49460220336914 Z" stroke="none"/>
        <path d="M 5.447277069091797 12.56594467163086 C 5.452751159667969 12.59297180175781 5.458183288574219 12.61965370178223 5.463470458984375 12.64560127258301 C 5.597469329833984 13.30363082885742 5.799980163574219 14.29805183410645 5.799980163574219 15.68476104736328 C 5.799980163574219 18.8262825012207 7.212749481201172 21.29672241210938 9.999038696289062 23.02746200561523 C 13.16864776611328 24.99631118774414 18.01323890686035 25.99460220336914 24.39823913574219 25.99460220336914 C 30.86418914794922 25.99460220336914 36.13144683837891 25.00910186767578 39.63058853149414 23.14463043212891 C 42.89353942871094 21.4060115814209 44.54798889160156 18.99725151062012 44.54798889160156 15.9852409362793 C 44.54798889160156 14.80739212036133 44.66948699951172 13.95469093322754 44.75820922851562 13.33208084106445 C 44.77017211914062 13.24814987182617 44.78306579589844 13.15766525268555 44.79476928710938 13.07017517089844 C 44.41575241088867 13.0869197845459 43.86475372314453 13.14503288269043 43.14650726318359 13.22078132629395 C 40.82296752929688 13.46581268310547 36.49798965454102 13.92192268371582 28.9070987701416 13.92192268371582 C 27.570068359375 13.92192268371582 26.16776847839355 13.90766143798828 24.73915863037109 13.87953186035156 C 15.25027847290039 13.69271087646484 10.05885696411133 13.08415222167969 7.269840240478516 12.75721168518066 C 6.486061096191406 12.66533660888672 5.871662139892578 12.59331130981445 5.447277069091797 12.56594467163086 M 5.13214111328125 11.55399894714355 C 6.783756256103516 11.55399894714355 11.64556884765625 12.62154769897461 24.75883865356445 12.87972259521484 C 38.28156661987305 13.14595222473145 43.27023696899414 12.06529998779297 44.99387741088867 12.06526756286621 C 46.47279357910156 12.06524085998535 45.54798889160156 12.86076545715332 45.54798889160156 15.9852409362793 C 45.54798889160156 22.7512321472168 38.07214736938477 26.99460220336914 24.39823913574219 26.99460220336914 C 10.72430038452148 26.99460220336914 4.799980163574219 22.45074081420898 4.799980163574219 15.68476104736328 C 4.799980163574219 12.45002555847168 3.619209289550781 11.55399894714355 5.13214111328125 11.55399894714355 Z" stroke="none"/>
      </g>
      <g transform="matrix(1, 0, 0, 1, 0, 0)" filter="url(#Path_3-2)">
        <g id="Path_3-5" data-name="Path 3" transform="translate(862.46 401.38) rotate(8)" fill="#fff">
          <path d="M 24.39823913574219 26.49460220336914 C 17.91858863830566 26.49460220336914 12.98523902893066 25.47099113464355 9.73521900177002 23.45219230651855 C 6.792218685150146 21.62411117553711 5.299988746643066 19.01076126098633 5.299988746643066 15.6847620010376 C 5.299988746643066 14.34844207763672 5.103528499603271 13.38374137878418 4.973538875579834 12.74537181854248 C 4.92235279083252 12.49402713775635 4.865505218505859 12.21486186981201 4.860509872436523 12.07116603851318 C 4.910911083221436 12.06257820129395 4.995463371276855 12.0540018081665 5.132148742675781 12.0540018081665 C 5.565538883209229 12.0540018081665 6.266708850860596 12.13619136810303 7.32805871963501 12.26061153411865 C 10.1086483001709 12.58656215667725 15.28438854217529 13.19329166412354 24.74899864196777 13.37963199615479 C 26.17444801330566 13.40770149230957 27.57343864440918 13.42193126678467 28.90708923339844 13.42193126678467 C 36.4715576171875 13.42193126678467 40.77954864501953 12.96761131286621 43.09395980834961 12.72354221343994 C 43.96521759033203 12.6316614151001 44.59471893310547 12.56527137756348 44.99387741088867 12.56527137756348 C 45.18620681762695 12.56527137756348 45.28465270996094 12.58107566833496 45.33139801025391 12.59290599822998 C 45.34820556640625 12.73597812652588 45.29802322387695 13.08816337585449 45.25321960449219 13.40261173248291 C 45.16660690307617 14.01041221618652 45.04798889160156 14.8428316116333 45.04798889160156 15.98524188995361 C 45.04798889160156 17.56614112854004 44.61206817626953 19.0108814239502 43.75233840942383 20.27933120727539 C 42.88248825073242 21.56273078918457 41.5748291015625 22.67522239685059 39.86570739746094 23.58590126037598 C 38.10677719116211 24.52312088012695 35.92376708984375 25.24612236022949 33.37732696533203 25.73482131958008 C 30.75033950805664 26.23897171020508 27.72933959960938 26.49460220336914 24.39823913574219 26.49460220336914 Z" stroke="none"/>
          <path d="M 5.447277069091797 12.56594467163086 C 5.452751159667969 12.59297180175781 5.458183288574219 12.61965370178223 5.463470458984375 12.64560127258301 C 5.597469329833984 13.30363082885742 5.799980163574219 14.29805183410645 5.799980163574219 15.68476104736328 C 5.799980163574219 18.8262825012207 7.212749481201172 21.29672241210938 9.999038696289062 23.02746200561523 C 13.16864776611328 24.99631118774414 18.01323890686035 25.99460220336914 24.39823913574219 25.99460220336914 C 30.86418914794922 25.99460220336914 36.13144683837891 25.00910186767578 39.63058853149414 23.14463043212891 C 42.89353942871094 21.4060115814209 44.54798889160156 18.99725151062012 44.54798889160156 15.9852409362793 C 44.54798889160156 14.80739212036133 44.66948699951172 13.95469093322754 44.75820922851562 13.33208084106445 C 44.77017211914062 13.24814987182617 44.78306579589844 13.15766525268555 44.79476928710938 13.07017517089844 C 44.41575241088867 13.0869197845459 43.86475372314453 13.14503288269043 43.14650726318359 13.22078132629395 C 40.82296752929688 13.46581268310547 36.49798965454102 13.92192268371582 28.9070987701416 13.92192268371582 C 27.570068359375 13.92192268371582 26.16776847839355 13.90766143798828 24.73915863037109 13.87953186035156 C 15.25027847290039 13.69271087646484 10.05885696411133 13.08415222167969 7.269840240478516 12.75721168518066 C 6.486061096191406 12.66533660888672 5.871662139892578 12.59331130981445 5.447277069091797 12.56594467163086 M 5.13214111328125 11.55399894714355 C 6.783756256103516 11.55399894714355 11.64556884765625 12.62154769897461 24.75883865356445 12.87972259521484 C 38.28156661987305 13.14595222473145 43.27023696899414 12.06529998779297 44.99387741088867 12.06526756286621 C 46.47279357910156 12.06524085998535 45.54798889160156 12.86076545715332 45.54798889160156 15.9852409362793 C 45.54798889160156 22.7512321472168 38.07214736938477 26.99460220336914 24.39823913574219 26.99460220336914 C 10.72430038452148 26.99460220336914 4.799980163574219 22.45074081420898 4.799980163574219 15.68476104736328 C 4.799980163574219 12.45002555847168 3.619209289550781 11.55399894714355 5.13214111328125 11.55399894714355 Z" stroke="none"/>
        </g>
      </g>
      <g id="Path_3-6" data-name="Path 3" transform="translate(862.46 401.377) rotate(8)" fill="none">
        <path d="M 24.39823913574219 26.49460220336914 C 17.91858863830566 26.49460220336914 12.98523902893066 25.47099113464355 9.73521900177002 23.45219230651855 C 6.792218685150146 21.62411117553711 5.299988746643066 19.01076126098633 5.299988746643066 15.6847620010376 C 5.299988746643066 14.34844207763672 5.103528499603271 13.38374137878418 4.973538875579834 12.74537181854248 C 4.92235279083252 12.49402713775635 4.865505218505859 12.21486186981201 4.860509872436523 12.07116603851318 C 4.910911083221436 12.06257820129395 4.995463371276855 12.0540018081665 5.132148742675781 12.0540018081665 C 5.565538883209229 12.0540018081665 6.266708850860596 12.13619136810303 7.32805871963501 12.26061153411865 C 10.1086483001709 12.58656215667725 15.28438854217529 13.19329166412354 24.74899864196777 13.37963199615479 C 26.17444801330566 13.40770149230957 27.57343864440918 13.42193126678467 28.90708923339844 13.42193126678467 C 36.4715576171875 13.42193126678467 40.77954864501953 12.96761131286621 43.09395980834961 12.72354221343994 C 43.96521759033203 12.6316614151001 44.59471893310547 12.56527137756348 44.99387741088867 12.56527137756348 C 45.18620681762695 12.56527137756348 45.28465270996094 12.58107566833496 45.33139801025391 12.59290599822998 C 45.34820556640625 12.73597812652588 45.29802322387695 13.08816337585449 45.25321960449219 13.40261173248291 C 45.16660690307617 14.01041221618652 45.04798889160156 14.8428316116333 45.04798889160156 15.98524188995361 C 45.04798889160156 17.56614112854004 44.61206817626953 19.0108814239502 43.75233840942383 20.27933120727539 C 42.88248825073242 21.56273078918457 41.5748291015625 22.67522239685059 39.86570739746094 23.58590126037598 C 38.10677719116211 24.52312088012695 35.92376708984375 25.24612236022949 33.37732696533203 25.73482131958008 C 30.75033950805664 26.23897171020508 27.72933959960938 26.49460220336914 24.39823913574219 26.49460220336914 Z" stroke="none"/>
        <path d="M 5.447277069091797 12.56594467163086 C 5.452751159667969 12.59297180175781 5.458183288574219 12.61965370178223 5.463470458984375 12.64560127258301 C 5.597469329833984 13.30363082885742 5.799980163574219 14.29805183410645 5.799980163574219 15.68476104736328 C 5.799980163574219 18.8262825012207 7.212749481201172 21.29672241210938 9.999038696289062 23.02746200561523 C 13.16864776611328 24.99631118774414 18.01323890686035 25.99460220336914 24.39823913574219 25.99460220336914 C 30.86418914794922 25.99460220336914 36.13144683837891 25.00910186767578 39.63058853149414 23.14463043212891 C 42.89353942871094 21.4060115814209 44.54798889160156 18.99725151062012 44.54798889160156 15.9852409362793 C 44.54798889160156 14.80739212036133 44.66948699951172 13.95469093322754 44.75820922851562 13.33208084106445 C 44.77017211914062 13.24814987182617 44.78306579589844 13.15766525268555 44.79476928710938 13.07017517089844 C 44.41575241088867 13.0869197845459 43.86475372314453 13.14503288269043 43.14650726318359 13.22078132629395 C 40.82296752929688 13.46581268310547 36.49798965454102 13.92192268371582 28.9070987701416 13.92192268371582 C 27.570068359375 13.92192268371582 26.16776847839355 13.90766143798828 24.73915863037109 13.87953186035156 C 15.25027847290039 13.69271087646484 10.05885696411133 13.08415222167969 7.269840240478516 12.75721168518066 C 6.486061096191406 12.66533660888672 5.871662139892578 12.59331130981445 5.447277069091797 12.56594467163086 M 5.13214111328125 11.55399894714355 C 6.783756256103516 11.55399894714355 11.64556884765625 12.62154769897461 24.75883865356445 12.87972259521484 C 38.28156661987305 13.14595222473145 43.27023696899414 12.06529998779297 44.99387741088867 12.06526756286621 C 46.47279357910156 12.06524085998535 45.54798889160156 12.86076545715332 45.54798889160156 15.9852409362793 C 45.54798889160156 22.7512321472168 38.07214736938477 26.99460220336914 24.39823913574219 26.99460220336914 C 10.72430038452148 26.99460220336914 4.799980163574219 22.45074081420898 4.799980163574219 15.68476104736328 C 4.799980163574219 12.45002555847168 3.619209289550781 11.55399894714355 5.13214111328125 11.55399894714355 Z" stroke="none" fill="#1d1515"/>
      </g>
    </g>
    <g data-type="innerShadowGroup">
      <g transform="matrix(1, 0, 0, 1, 0, 0)" filter="url(#Path_7)">
        <g id="Path_7-3" data-name="Path 7" transform="matrix(0.98, -0.17, 0.17, 0.98, 977.57, 408.66)" fill="#fff">
          <path d="M 24.39823913574219 26.49460220336914 C 17.91858863830566 26.49460220336914 12.98523902893066 25.47099113464355 9.73521900177002 23.45219230651855 C 6.792218685150146 21.62411117553711 5.299988746643066 19.01076126098633 5.299988746643066 15.6847620010376 C 5.299988746643066 14.34844207763672 5.103528499603271 13.38374137878418 4.973538875579834 12.74537181854248 C 4.92235279083252 12.49402713775635 4.865505218505859 12.21486186981201 4.860509872436523 12.07116603851318 C 4.910911083221436 12.06257820129395 4.995463371276855 12.0540018081665 5.132148742675781 12.0540018081665 C 5.565538883209229 12.0540018081665 6.266708850860596 12.13619136810303 7.32805871963501 12.26061153411865 C 10.1086483001709 12.58656215667725 15.28438854217529 13.19329166412354 24.74899864196777 13.37963199615479 C 26.17444801330566 13.40770149230957 27.57343864440918 13.42193126678467 28.90708923339844 13.42193126678467 C 36.4715576171875 13.42193126678467 40.77954864501953 12.96761131286621 43.09395980834961 12.72354221343994 C 43.96521759033203 12.6316614151001 44.59471893310547 12.56527137756348 44.99387741088867 12.56527137756348 C 45.18620681762695 12.56527137756348 45.28465270996094 12.58107566833496 45.33139801025391 12.59290599822998 C 45.34820556640625 12.73597812652588 45.29802322387695 13.08816337585449 45.25321960449219 13.40261173248291 C 45.16660690307617 14.01041221618652 45.04798889160156 14.8428316116333 45.04798889160156 15.98524188995361 C 45.04798889160156 17.56614112854004 44.61206817626953 19.0108814239502 43.75233840942383 20.27933120727539 C 42.88248825073242 21.56273078918457 41.5748291015625 22.67522239685059 39.86570739746094 23.58590126037598 C 38.10677719116211 24.52312088012695 35.92376708984375 25.24612236022949 33.37732696533203 25.73482131958008 C 30.75033950805664 26.23897171020508 27.72933959960938 26.49460220336914 24.39823913574219 26.49460220336914 Z" stroke="none"/>
          <path d="M 5.447277069091797 12.56594467163086 C 5.452751159667969 12.59297180175781 5.458183288574219 12.61965370178223 5.463470458984375 12.64560127258301 C 5.597469329833984 13.30363082885742 5.799980163574219 14.29805183410645 5.799980163574219 15.68476104736328 C 5.799980163574219 18.8262825012207 7.212749481201172 21.29672241210938 9.999038696289062 23.02746200561523 C 13.16864776611328 24.99631118774414 18.01323890686035 25.99460220336914 24.39823913574219 25.99460220336914 C 30.86418914794922 25.99460220336914 36.13144683837891 25.00910186767578 39.63058853149414 23.14463043212891 C 42.89353942871094 21.4060115814209 44.54798889160156 18.99725151062012 44.54798889160156 15.9852409362793 C 44.54798889160156 14.80739212036133 44.66948699951172 13.95469093322754 44.75820922851562 13.33208084106445 C 44.77017211914062 13.24814987182617 44.78306579589844 13.15766525268555 44.79476928710938 13.07017517089844 C 44.41575241088867 13.0869197845459 43.86475372314453 13.14503288269043 43.14650726318359 13.22078132629395 C 40.82296752929688 13.46581268310547 36.49798965454102 13.92192268371582 28.9070987701416 13.92192268371582 C 27.570068359375 13.92192268371582 26.16776847839355 13.90766143798828 24.73915863037109 13.87953186035156 C 15.25027847290039 13.69271087646484 10.05885696411133 13.08415222167969 7.269840240478516 12.75721168518066 C 6.486061096191406 12.66533660888672 5.871662139892578 12.59331130981445 5.447277069091797 12.56594467163086 M 5.13214111328125 11.55399894714355 C 6.783756256103516 11.55399894714355 11.64556884765625 12.62154769897461 24.75883865356445 12.87972259521484 C 38.28156661987305 13.14595222473145 43.27023696899414 12.06529998779297 44.99387741088867 12.06526756286621 C 46.47279357910156 12.06524085998535 45.54798889160156 12.86076545715332 45.54798889160156 15.9852409362793 C 45.54798889160156 22.7512321472168 38.07214736938477 26.99460220336914 24.39823913574219 26.99460220336914 C 10.72430038452148 26.99460220336914 4.799980163574219 22.45074081420898 4.799980163574219 15.68476104736328 C 4.799980163574219 12.45002555847168 3.619209289550781 11.55399894714355 5.13214111328125 11.55399894714355 Z" stroke="none" fill="#1d1515"/>
        </g>
      </g>
      <g id="Path_7-4" data-name="Path 7" transform="matrix(0.985, -0.174, 0.174, 0.985, 977.568, 408.661)" fill="#fff">
        <path d="M 24.39823913574219 26.49460220336914 C 17.91858863830566 26.49460220336914 12.98523902893066 25.47099113464355 9.73521900177002 23.45219230651855 C 6.792218685150146 21.62411117553711 5.299988746643066 19.01076126098633 5.299988746643066 15.6847620010376 C 5.299988746643066 14.34844207763672 5.103528499603271 13.38374137878418 4.973538875579834 12.74537181854248 C 4.92235279083252 12.49402713775635 4.865505218505859 12.21486186981201 4.860509872436523 12.07116603851318 C 4.910911083221436 12.06257820129395 4.995463371276855 12.0540018081665 5.132148742675781 12.0540018081665 C 5.565538883209229 12.0540018081665 6.266708850860596 12.13619136810303 7.32805871963501 12.26061153411865 C 10.1086483001709 12.58656215667725 15.28438854217529 13.19329166412354 24.74899864196777 13.37963199615479 C 26.17444801330566 13.40770149230957 27.57343864440918 13.42193126678467 28.90708923339844 13.42193126678467 C 36.4715576171875 13.42193126678467 40.77954864501953 12.96761131286621 43.09395980834961 12.72354221343994 C 43.96521759033203 12.6316614151001 44.59471893310547 12.56527137756348 44.99387741088867 12.56527137756348 C 45.18620681762695 12.56527137756348 45.28465270996094 12.58107566833496 45.33139801025391 12.59290599822998 C 45.34820556640625 12.73597812652588 45.29802322387695 13.08816337585449 45.25321960449219 13.40261173248291 C 45.16660690307617 14.01041221618652 45.04798889160156 14.8428316116333 45.04798889160156 15.98524188995361 C 45.04798889160156 17.56614112854004 44.61206817626953 19.0108814239502 43.75233840942383 20.27933120727539 C 42.88248825073242 21.56273078918457 41.5748291015625 22.67522239685059 39.86570739746094 23.58590126037598 C 38.10677719116211 24.52312088012695 35.92376708984375 25.24612236022949 33.37732696533203 25.73482131958008 C 30.75033950805664 26.23897171020508 27.72933959960938 26.49460220336914 24.39823913574219 26.49460220336914 Z" stroke="none"/>
        <path d="M 5.447277069091797 12.56594467163086 C 5.452751159667969 12.59297180175781 5.458183288574219 12.61965370178223 5.463470458984375 12.64560127258301 C 5.597469329833984 13.30363082885742 5.799980163574219 14.29805183410645 5.799980163574219 15.68476104736328 C 5.799980163574219 18.8262825012207 7.212749481201172 21.29672241210938 9.999038696289062 23.02746200561523 C 13.16864776611328 24.99631118774414 18.01323890686035 25.99460220336914 24.39823913574219 25.99460220336914 C 30.86418914794922 25.99460220336914 36.13144683837891 25.00910186767578 39.63058853149414 23.14463043212891 C 42.89353942871094 21.4060115814209 44.54798889160156 18.99725151062012 44.54798889160156 15.9852409362793 C 44.54798889160156 14.80739212036133 44.66948699951172 13.95469093322754 44.75820922851562 13.33208084106445 C 44.77017211914062 13.24814987182617 44.78306579589844 13.15766525268555 44.79476928710938 13.07017517089844 C 44.41575241088867 13.0869197845459 43.86475372314453 13.14503288269043 43.14650726318359 13.22078132629395 C 40.82296752929688 13.46581268310547 36.49798965454102 13.92192268371582 28.9070987701416 13.92192268371582 C 27.570068359375 13.92192268371582 26.16776847839355 13.90766143798828 24.73915863037109 13.87953186035156 C 15.25027847290039 13.69271087646484 10.05885696411133 13.08415222167969 7.269840240478516 12.75721168518066 C 6.486061096191406 12.66533660888672 5.871662139892578 12.59331130981445 5.447277069091797 12.56594467163086 M 5.13214111328125 11.55399894714355 C 6.783756256103516 11.55399894714355 11.64556884765625 12.62154769897461 24.75883865356445 12.87972259521484 C 38.28156661987305 13.14595222473145 43.27023696899414 12.06529998779297 44.99387741088867 12.06526756286621 C 46.47279357910156 12.06524085998535 45.54798889160156 12.86076545715332 45.54798889160156 15.9852409362793 C 45.54798889160156 22.7512321472168 38.07214736938477 26.99460220336914 24.39823913574219 26.99460220336914 C 10.72430038452148 26.99460220336914 4.799980163574219 22.45074081420898 4.799980163574219 15.68476104736328 C 4.799980163574219 12.45002555847168 3.619209289550781 11.55399894714355 5.13214111328125 11.55399894714355 Z" stroke="none"/>
      </g>
      <g transform="matrix(1, 0, 0, 1, 0, 0)" filter="url(#Path_7-2)">
        <g id="Path_7-5" data-name="Path 7" transform="matrix(0.98, -0.17, 0.17, 0.98, 977.57, 408.66)" fill="#fff">
          <path d="M 24.39823913574219 26.49460220336914 C 17.91858863830566 26.49460220336914 12.98523902893066 25.47099113464355 9.73521900177002 23.45219230651855 C 6.792218685150146 21.62411117553711 5.299988746643066 19.01076126098633 5.299988746643066 15.6847620010376 C 5.299988746643066 14.34844207763672 5.103528499603271 13.38374137878418 4.973538875579834 12.74537181854248 C 4.92235279083252 12.49402713775635 4.865505218505859 12.21486186981201 4.860509872436523 12.07116603851318 C 4.910911083221436 12.06257820129395 4.995463371276855 12.0540018081665 5.132148742675781 12.0540018081665 C 5.565538883209229 12.0540018081665 6.266708850860596 12.13619136810303 7.32805871963501 12.26061153411865 C 10.1086483001709 12.58656215667725 15.28438854217529 13.19329166412354 24.74899864196777 13.37963199615479 C 26.17444801330566 13.40770149230957 27.57343864440918 13.42193126678467 28.90708923339844 13.42193126678467 C 36.4715576171875 13.42193126678467 40.77954864501953 12.96761131286621 43.09395980834961 12.72354221343994 C 43.96521759033203 12.6316614151001 44.59471893310547 12.56527137756348 44.99387741088867 12.56527137756348 C 45.18620681762695 12.56527137756348 45.28465270996094 12.58107566833496 45.33139801025391 12.59290599822998 C 45.34820556640625 12.73597812652588 45.29802322387695 13.08816337585449 45.25321960449219 13.40261173248291 C 45.16660690307617 14.01041221618652 45.04798889160156 14.8428316116333 45.04798889160156 15.98524188995361 C 45.04798889160156 17.56614112854004 44.61206817626953 19.0108814239502 43.75233840942383 20.27933120727539 C 42.88248825073242 21.56273078918457 41.5748291015625 22.67522239685059 39.86570739746094 23.58590126037598 C 38.10677719116211 24.52312088012695 35.92376708984375 25.24612236022949 33.37732696533203 25.73482131958008 C 30.75033950805664 26.23897171020508 27.72933959960938 26.49460220336914 24.39823913574219 26.49460220336914 Z" stroke="none"/>
          <path d="M 5.447277069091797 12.56594467163086 C 5.452751159667969 12.59297180175781 5.458183288574219 12.61965370178223 5.463470458984375 12.64560127258301 C 5.597469329833984 13.30363082885742 5.799980163574219 14.29805183410645 5.799980163574219 15.68476104736328 C 5.799980163574219 18.8262825012207 7.212749481201172 21.29672241210938 9.999038696289062 23.02746200561523 C 13.16864776611328 24.99631118774414 18.01323890686035 25.99460220336914 24.39823913574219 25.99460220336914 C 30.86418914794922 25.99460220336914 36.13144683837891 25.00910186767578 39.63058853149414 23.14463043212891 C 42.89353942871094 21.4060115814209 44.54798889160156 18.99725151062012 44.54798889160156 15.9852409362793 C 44.54798889160156 14.80739212036133 44.66948699951172 13.95469093322754 44.75820922851562 13.33208084106445 C 44.77017211914062 13.24814987182617 44.78306579589844 13.15766525268555 44.79476928710938 13.07017517089844 C 44.41575241088867 13.0869197845459 43.86475372314453 13.14503288269043 43.14650726318359 13.22078132629395 C 40.82296752929688 13.46581268310547 36.49798965454102 13.92192268371582 28.9070987701416 13.92192268371582 C 27.570068359375 13.92192268371582 26.16776847839355 13.90766143798828 24.73915863037109 13.87953186035156 C 15.25027847290039 13.69271087646484 10.05885696411133 13.08415222167969 7.269840240478516 12.75721168518066 C 6.486061096191406 12.66533660888672 5.871662139892578 12.59331130981445 5.447277069091797 12.56594467163086 M 5.13214111328125 11.55399894714355 C 6.783756256103516 11.55399894714355 11.64556884765625 12.62154769897461 24.75883865356445 12.87972259521484 C 38.28156661987305 13.14595222473145 43.27023696899414 12.06529998779297 44.99387741088867 12.06526756286621 C 46.47279357910156 12.06524085998535 45.54798889160156 12.86076545715332 45.54798889160156 15.9852409362793 C 45.54798889160156 22.7512321472168 38.07214736938477 26.99460220336914 24.39823913574219 26.99460220336914 C 10.72430038452148 26.99460220336914 4.799980163574219 22.45074081420898 4.799980163574219 15.68476104736328 C 4.799980163574219 12.45002555847168 3.619209289550781 11.55399894714355 5.13214111328125 11.55399894714355 Z" stroke="none"/>
        </g>
      </g>
      <g id="Path_7-6" data-name="Path 7" transform="matrix(0.985, -0.174, 0.174, 0.985, 977.568, 408.661)" fill="none">
        <path d="M 24.39823913574219 26.49460220336914 C 17.91858863830566 26.49460220336914 12.98523902893066 25.47099113464355 9.73521900177002 23.45219230651855 C 6.792218685150146 21.62411117553711 5.299988746643066 19.01076126098633 5.299988746643066 15.6847620010376 C 5.299988746643066 14.34844207763672 5.103528499603271 13.38374137878418 4.973538875579834 12.74537181854248 C 4.92235279083252 12.49402713775635 4.865505218505859 12.21486186981201 4.860509872436523 12.07116603851318 C 4.910911083221436 12.06257820129395 4.995463371276855 12.0540018081665 5.132148742675781 12.0540018081665 C 5.565538883209229 12.0540018081665 6.266708850860596 12.13619136810303 7.32805871963501 12.26061153411865 C 10.1086483001709 12.58656215667725 15.28438854217529 13.19329166412354 24.74899864196777 13.37963199615479 C 26.17444801330566 13.40770149230957 27.57343864440918 13.42193126678467 28.90708923339844 13.42193126678467 C 36.4715576171875 13.42193126678467 40.77954864501953 12.96761131286621 43.09395980834961 12.72354221343994 C 43.96521759033203 12.6316614151001 44.59471893310547 12.56527137756348 44.99387741088867 12.56527137756348 C 45.18620681762695 12.56527137756348 45.28465270996094 12.58107566833496 45.33139801025391 12.59290599822998 C 45.34820556640625 12.73597812652588 45.29802322387695 13.08816337585449 45.25321960449219 13.40261173248291 C 45.16660690307617 14.01041221618652 45.04798889160156 14.8428316116333 45.04798889160156 15.98524188995361 C 45.04798889160156 17.56614112854004 44.61206817626953 19.0108814239502 43.75233840942383 20.27933120727539 C 42.88248825073242 21.56273078918457 41.5748291015625 22.67522239685059 39.86570739746094 23.58590126037598 C 38.10677719116211 24.52312088012695 35.92376708984375 25.24612236022949 33.37732696533203 25.73482131958008 C 30.75033950805664 26.23897171020508 27.72933959960938 26.49460220336914 24.39823913574219 26.49460220336914 Z" stroke="none"/>
        <path d="M 5.447277069091797 12.56594467163086 C 5.452751159667969 12.59297180175781 5.458183288574219 12.61965370178223 5.463470458984375 12.64560127258301 C 5.597469329833984 13.30363082885742 5.799980163574219 14.29805183410645 5.799980163574219 15.68476104736328 C 5.799980163574219 18.8262825012207 7.212749481201172 21.29672241210938 9.999038696289062 23.02746200561523 C 13.16864776611328 24.99631118774414 18.01323890686035 25.99460220336914 24.39823913574219 25.99460220336914 C 30.86418914794922 25.99460220336914 36.13144683837891 25.00910186767578 39.63058853149414 23.14463043212891 C 42.89353942871094 21.4060115814209 44.54798889160156 18.99725151062012 44.54798889160156 15.9852409362793 C 44.54798889160156 14.80739212036133 44.66948699951172 13.95469093322754 44.75820922851562 13.33208084106445 C 44.77017211914062 13.24814987182617 44.78306579589844 13.15766525268555 44.79476928710938 13.07017517089844 C 44.41575241088867 13.0869197845459 43.86475372314453 13.14503288269043 43.14650726318359 13.22078132629395 C 40.82296752929688 13.46581268310547 36.49798965454102 13.92192268371582 28.9070987701416 13.92192268371582 C 27.570068359375 13.92192268371582 26.16776847839355 13.90766143798828 24.73915863037109 13.87953186035156 C 15.25027847290039 13.69271087646484 10.05885696411133 13.08415222167969 7.269840240478516 12.75721168518066 C 6.486061096191406 12.66533660888672 5.871662139892578 12.59331130981445 5.447277069091797 12.56594467163086 M 5.13214111328125 11.55399894714355 C 6.783756256103516 11.55399894714355 11.64556884765625 12.62154769897461 24.75883865356445 12.87972259521484 C 38.28156661987305 13.14595222473145 43.27023696899414 12.06529998779297 44.99387741088867 12.06526756286621 C 46.47279357910156 12.06524085998535 45.54798889160156 12.86076545715332 45.54798889160156 15.9852409362793 C 45.54798889160156 22.7512321472168 38.07214736938477 26.99460220336914 24.39823913574219 26.99460220336914 C 10.72430038452148 26.99460220336914 4.799980163574219 22.45074081420898 4.799980163574219 15.68476104736328 C 4.799980163574219 12.45002555847168 3.619209289550781 11.55399894714355 5.13214111328125 11.55399894714355 Z" stroke="none" fill="#1d1515"/>
      </g>
    </g>
    <g id="Polygon_3" data-name="Polygon 3" transform="translate(811.611 400.454) rotate(-72)">
      <path d="M 5.427185535430908 21.5 L 0.5728145241737366 21.5 L 3 3.700639963150024 L 5.427185535430908 21.5 Z" stroke="none"/>
      <path d="M 3 7.401196479797363 L 1.145617961883545 21 L 4.854382514953613 21 L 3 7.401196479797363 M 3 0 L 6 22 L 0 22 L 3 0 Z" stroke="none" fill="#0a0808"/>
    </g>
    <g data-type="innerShadowGroup">
      <g id="Polygon_4-2" data-name="Polygon 4" transform="matrix(0.342, 0.94, -0.94, 0.342, 1081.311, 394.09)">
        <path d="M 5.427185535430908 21.5 L 0.5728145241737366 21.5 L 3 3.700639963150024 L 5.427185535430908 21.5 Z" stroke="none"/>
        <path d="M 3 7.401196479797363 L 1.145617961883545 21 L 4.854382514953613 21 L 3 7.401196479797363 M 3 0 L 6 22 L 0 22 L 3 0 Z" stroke="none"/>
      </g>
      <g transform="matrix(1, 0, 0, 1, 0, 0)" filter="url(#Polygon_4)">
        <g id="Polygon_4-3" data-name="Polygon 4" transform="matrix(0.34, 0.94, -0.94, 0.34, 1081.31, 394.09)" fill="#fff">
          <path d="M 5.427185535430908 21.5 L 0.5728145241737366 21.5 L 3 3.700639963150024 L 5.427185535430908 21.5 Z" stroke="none"/>
          <path d="M 3 7.401196479797363 L 1.145617961883545 21 L 4.854382514953613 21 L 3 7.401196479797363 M 3 0 L 6 22 L 0 22 L 3 0 Z" stroke="none"/>
        </g>
      </g>
      <g id="Polygon_4-4" data-name="Polygon 4" transform="matrix(0.342, 0.94, -0.94, 0.342, 1081.311, 394.09)" fill="none">
        <path d="M 5.427185535430908 21.5 L 0.5728145241737366 21.5 L 3 3.700639963150024 L 5.427185535430908 21.5 Z" stroke="none"/>
        <path d="M 3 7.401196479797363 L 1.145617961883545 21 L 4.854382514953613 21 L 3 7.401196479797363 M 3 0 L 6 22 L 0 22 L 3 0 Z" stroke="none" fill="#0a0808"/>
      </g>
    </g>
    <g id="Path_11" data-name="Path 11" transform="matrix(0.999, 0.052, -0.052, 0.999, 900.266, 504.457)" fill="#100e0e">
      <path d="M 22.40983009338379 85.11666107177734 L -2.560411930084229 71.74115753173828 L -2.981117486953735 -8.99672794342041 L 14.05325984954834 0.9615635275840759 L 22.40983009338379 85.11666107177734 Z" stroke="none"/>
      <path d="M -2.476552963256836 -8.122589111328125 L -2.06196403503418 71.44091796875 L 21.81965255737305 84.23329162597656 L 13.58089256286621 1.264595031738281 L -2.476552963256836 -8.122589111328125 M -3.485675811767578 -9.870872497558594 L 14.52563095092773 0.658538818359375 L 23.00000381469727 85.99999237060547 L -3.058849334716797 72.04136657714844 L -3.485675811767578 -9.870872497558594 Z" stroke="none" fill="#040303"/>
    </g>
    <g id="Path_36" data-name="Path 36" transform="translate(972.509 506.128) rotate(-3)" fill="#100e0e">
      <path d="M -2.893860578536987 85.12935638427734 L 5.728292465209961 0.9662907123565674 L 23.33452224731445 -9.010220527648926 L 22.90043640136719 71.73676300048828 L -2.893860578536987 85.12935638427734 Z" stroke="none"/>
      <path d="M 22.82988166809082 -8.149589538574219 L 6.199376106262207 1.274040222167969 L -2.302045822143555 84.25868988037109 L 22.40206336975098 71.43212890625 L 22.82988166809082 -8.149589538574219 M 23.83915138244629 -9.870872497558594 L 23.3988037109375 72.04136657714844 L -3.485675811767578 85.99999237060547 L 5.257190704345703 0.658538818359375 L 23.83915138244629 -9.870872497558594 Z" stroke="none" fill="#040303"/>
    </g>
    <g id="Path_12" data-name="Path 12" transform="matrix(0.999, 0.052, -0.052, 0.999, 865.742, 485.753)" fill="#100e0e">
      <path d="M 22.40983009338379 85.11666107177734 L -2.560411930084229 71.74115753173828 L -2.981117486953735 -8.99672794342041 L 14.05325984954834 0.9615635275840759 L 22.40983009338379 85.11666107177734 Z" stroke="none"/>
      <path d="M -2.476552963256836 -8.122589111328125 L -2.06196403503418 71.44091796875 L 21.81965255737305 84.23329162597656 L 13.58089256286621 1.264595031738281 L -2.476552963256836 -8.122589111328125 M -3.485675811767578 -9.870872497558594 L 14.52563095092773 0.658538818359375 L 23.00000381469727 85.99999237060547 L -3.058849334716797 72.04136657714844 L -3.485675811767578 -9.870872497558594 Z" stroke="none" fill="#040303"/>
    </g>
    <g id="Path_35" data-name="Path 35" transform="translate(1007.87 487.447) rotate(-3)" fill="#100e0e">
      <path d="M -2.894428730010986 85.12508392333984 L 5.636280059814453 0.9646936058998108 L 23.04559707641602 -9.005672454833984 L 22.61612510681152 71.73825836181641 L -2.894428730010986 85.12508392333984 Z" stroke="none"/>
      <path d="M 22.54097747802734 -8.140510559082031 L 6.107809066772461 1.270820617675781 L -2.303173065185547 84.25015258789062 L 22.11771392822266 71.43511962890625 L 22.54097747802734 -8.140510559082031 M 23.55019760131836 -9.870872497558594 L 23.11450386047363 72.04136657714844 L -3.48567008972168 85.99999237060547 L 5.164743423461914 0.658538818359375 L 23.55019760131836 -9.870872497558594 Z" stroke="none" fill="#040303"/>
    </g>
    <g id="Path_38" data-name="Path 38" transform="translate(1043.521 463.712) rotate(-3)" fill="#100e0e">
      <path d="M -2.894428730010986 85.12508392333984 L 5.636280059814453 0.9646936058998108 L 23.04559707641602 -9.005672454833984 L 22.61612510681152 71.73825836181641 L -2.894428730010986 85.12508392333984 Z" stroke="none"/>
      <path d="M 22.54097747802734 -8.140510559082031 L 6.107809066772461 1.270820617675781 L -2.303173065185547 84.25015258789062 L 22.11771392822266 71.43511962890625 L 22.54097747802734 -8.140510559082031 M 23.55019760131836 -9.870872497558594 L 23.11450386047363 72.04136657714844 L -3.48567008972168 85.99999237060547 L 5.164743423461914 0.658538818359375 L 23.55019760131836 -9.870872497558594 Z" stroke="none" fill="#040303"/>
    </g>
    <g id="Path_13" data-name="Path 13" transform="matrix(0.999, 0.052, -0.052, 0.999, 834.275, 466.63)" fill="#100e0e">
      <path d="M 22.40983009338379 85.11666107177734 L -2.560411930084229 71.74115753173828 L -2.981117486953735 -8.99672794342041 L 14.05325984954834 0.9615635275840759 L 22.40983009338379 85.11666107177734 Z" stroke="none"/>
      <path d="M -2.476552963256836 -8.122589111328125 L -2.06196403503418 71.44091796875 L 21.81965255737305 84.23329162597656 L 13.58089256286621 1.264595031738281 L -2.476552963256836 -8.122589111328125 M -3.485675811767578 -9.870872497558594 L 14.52563095092773 0.658538818359375 L 23.00000381469727 85.99999237060547 L -3.058849334716797 72.04136657714844 L -3.485675811767578 -9.870872497558594 Z" stroke="none" fill="#040303"/>
    </g>
    <g id="Path_14" data-name="Path 14" transform="matrix(0.999, 0.052, -0.052, 0.999, 834.275, 466.63)" fill="#100e0e">
      <path d="M 22.40983009338379 85.11666107177734 L -2.560411930084229 71.74115753173828 L -2.981117486953735 -8.99672794342041 L 14.05325984954834 0.9615635275840759 L 22.40983009338379 85.11666107177734 Z" stroke="none"/>
      <path d="M -2.476552963256836 -8.122589111328125 L -2.06196403503418 71.44091796875 L 21.81965255737305 84.23329162597656 L 13.58089256286621 1.264595031738281 L -2.476552963256836 -8.122589111328125 M -3.485675811767578 -9.870872497558594 L 14.52563095092773 0.658538818359375 L 23.00000381469727 85.99999237060547 L -3.058849334716797 72.04136657714844 L -3.485675811767578 -9.870872497558594 Z" stroke="none" fill="#040303"/>
    </g>
    <g id="Path_37" data-name="Path 37" transform="matrix(0.999, 0.052, -0.052, 0.999, 834.275, 466.63)" fill="#100e0e">
      <path d="M 22.40983009338379 85.11666107177734 L -2.560411930084229 71.74115753173828 L -2.981117486953735 -8.99672794342041 L 14.05325984954834 0.9615635275840759 L 22.40983009338379 85.11666107177734 Z" stroke="none"/>
      <path d="M -2.476552963256836 -8.122589111328125 L -2.06196403503418 71.44091796875 L 21.81965255737305 84.23329162597656 L 13.58089256286621 1.264595031738281 L -2.476552963256836 -8.122589111328125 M -3.485675811767578 -9.870872497558594 L 14.52563095092773 0.658538818359375 L 23.00000381469727 85.99999237060547 L -3.058849334716797 72.04136657714844 L -3.485675811767578 -9.870872497558594 Z" stroke="none" fill="#040303"/>
    </g>
    <path id="Path_10" data-name="Path 10" d="M17.634,0,33.743,26.407,16.9,10.82-1.07,25.744Z" transform="matrix(-0.809, 0.588, -0.588, -0.809, 960.536, 632.327)" fill="#fff"/>
    <path id="Path_16" data-name="Path 16" d="M4.812,12.265l6.495,48.4-6.854,2.67V45.925Z" transform="translate(950.544 352) rotate(180)" fill="#fff"/>
    <path id="Path_17" data-name="Path 17" d="M9.84,12.265l-5.387,48.4,5.684,2.67V45.925Z" transform="translate(955.684 352) rotate(180)" fill="#0d0b0b"/>
    <g id="Path_20" data-name="Path 20" transform="translate(810.822 570.001)" fill="#0f253e">
      <path d="M 134.8326873779297 160.380126953125 C 133.9809722900391 160.380126953125 133.169189453125 160.3647155761719 132.1182708740234 160.3286285400391 C 121.3793563842773 159.9655151367188 109.8669815063477 157.5834197998047 97.90072631835938 153.2485504150391 C 86.77555847167969 149.2183380126953 75.27230834960938 143.5118408203125 63.7105598449707 136.2875061035156 C 52.87106323242188 129.5144653320312 42.13335418701172 121.5102615356445 31.79564476013184 112.4971771240234 C 21.92339515686035 103.8899230957031 12.70431137084961 94.62084197998047 4.394478321075439 84.947509765625 C -5.727646827697754 73.16463470458984 -14.13956356048584 61.07859039306641 -19.93181419372559 49.99592590332031 C -22.87331390380859 44.36784362792969 -25.14010429382324 39.00667572021484 -26.66927146911621 34.06138229370117 C -28.23756408691406 28.9895076751709 -29.03277206420898 24.3436336517334 -29.03277206420898 20.25279998779297 C -29.03277206420898 16.34555053710938 -28.52306365966797 13.631591796875 -27.47452163696289 11.95584201812744 C -26.53318786621094 10.45146656036377 -25.13664627075195 9.750800132751465 -23.0794792175293 9.750800132751465 C -20.39998054504395 9.750800132751465 -16.83539581298828 10.96175861358643 -13.38247966766357 12.27038383483887 C -12.87964630126953 12.46088314056396 -12.36743831634521 12.65375900268555 -11.84602165222168 12.85013389587402 C -3.748521566390991 15.89950847625732 6.329144954681396 19.6945915222168 17.740478515625 28.09596633911133 C 28.90593719482422 36.31588363647461 41.18764495849609 48.46342468261719 53.06497955322266 60.21100997924805 C 55.56139373779297 62.68017578125 58.1428108215332 65.23338317871094 60.62189483642578 67.65667724609375 L 60.63439559936523 67.66892242431641 L 60.64776992797852 67.68025970458984 C 66.75660705566406 72.86750793457031 81.01343536376953 84.42221832275391 95.69927215576172 94.82638549804688 C 103.8100204467773 100.5724639892578 110.8589782714844 105.1165924072266 116.6503982543945 108.3325119018555 C 123.6180191040039 112.2015914916992 128.8163909912109 114.1633834838867 132.1011047363281 114.1633834838867 L 132.2018890380859 114.1633834838867 L 132.2947692871094 114.1243438720703 C 173.2772674560547 96.90550994873047 210.9226379394531 65.51663208007812 241.1712341308594 40.29521560668945 C 255.2628479003906 28.5455493927002 267.4327697753906 18.39821624755859 276.7708129882812 12.48559188842773 C 279.838134765625 10.54330062866211 283.6796569824219 8.457799911499023 287.0468139648438 6.906883716583252 C 291.1607360839844 5.012092113494873 294.3054504394531 4.010550022125244 296.1410217285156 4.010550022125244 C 296.3173828125 4.010550022125244 296.4820556640625 4.020216941833496 296.6304016113281 4.039258480072021 C 297.9991149902344 4.210716724395752 298.7022399902344 4.809633731842041 299.0589904785156 6.106717109680176 C 299.4324340820312 7.464591979980469 299.4046325683594 9.538050651550293 299.3694763183594 12.1630916595459 C 299.3575744628906 13.05238342285156 299.34521484375 13.97196674346924 299.34521484375 14.98084163665771 C 299.34521484375 20.41963386535645 297.8377380371094 27.00963401794434 294.8646545410156 34.56784057617188 C 291.9915161132812 41.87196731567383 287.8409423828125 49.85750961303711 282.5282592773438 58.30263519287109 C 271.8244934082031 75.31763458251953 257.1708984375 92.92017364501953 241.2669372558594 107.8677139282227 C 233.3517761230469 115.306884765625 225.0692749023438 122.1928024291992 216.6494293212891 128.3341827392578 C 207.7839813232422 134.8005981445312 198.7956390380859 140.4171752929688 189.9340667724609 145.0279235839844 C 180.5333099365234 149.9192199707031 171.2277679443359 153.7004241943359 162.2758941650391 156.2665100097656 C 152.7536010742188 158.99609375 143.5203552246094 160.380126953125 134.8326873779297 160.380126953125 Z" stroke="none"/>
      <path d="M 134.8326873779297 159.880126953125 C 143.4737243652344 159.880126953125 152.6605987548828 158.5026397705078 162.1381072998047 155.7858428955078 C 171.0578918457031 153.2289733886719 180.3321380615234 149.4602661132812 189.7032775878906 144.5843811035156 C 198.5426940917969 139.9851684570312 207.5095672607422 134.3818817138672 216.3547668457031 127.9302139282227 C 224.7579345703125 121.8009643554688 233.0243988037109 114.9284286499023 240.9244842529297 107.5033798217773 C 256.7984008789062 92.58413696289062 271.4232788085938 75.01642608642578 282.1050720214844 58.03638458251953 C 287.4011840820312 49.61754989624023 291.53759765625 41.66000747680664 294.3993530273438 34.38479995727539 C 297.3494262695312 26.88517570495605 298.84521484375 20.35671615600586 298.84521484375 14.98084163665771 C 298.84521484375 13.9686336517334 298.8575744628906 13.04734230041504 298.8695068359375 12.15642547607422 C 298.9041442871094 9.570966720581055 298.9315185546875 7.528800010681152 298.5768432617188 6.23930025100708 C 298.2714233398438 5.128800392150879 297.7462158203125 4.682966709136963 296.5667724609375 4.535216808319092 C 296.4393615722656 4.518841743469238 296.2961120605469 4.510550022125244 296.1410217285156 4.510550022125244 C 294.40234375 4.510550022125244 291.2468872070312 5.522883415222168 287.2559814453125 7.361050128936768 C 283.90771484375 8.903217315673828 280.0880126953125 10.97684192657471 277.0382690429688 12.90800857543945 C 267.7279052734375 18.80317497253418 255.5695648193359 28.94079971313477 241.4914398193359 40.67921829223633 C 211.2172241210938 65.92201232910156 173.5399780273438 97.33746337890625 132.4884338378906 114.5852966308594 L 132.3026428222656 114.6633834838867 L 132.1011047363281 114.6633834838867 C 125.9524765014648 114.6633834838867 113.6078567504883 108.1265106201172 95.41022491455078 95.23438262939453 C 80.71027374267578 84.82017517089844 66.43918609619141 73.25388336181641 60.32414627075195 68.06138610839844 L 60.27239608764648 68.01425933837891 C 57.79222869873047 65.58992767333984 55.21031188964844 63.03617477416992 52.71335220336914 60.56650924682617 C 40.84872817993164 48.83150863647461 28.58018684387207 36.69696807861328 17.44406127929688 28.49859237670898 C 6.088311672210693 20.13817596435547 -3.953521728515625 16.35659217834473 -12.02223014831543 13.31805038452148 C -12.54397964477539 13.12155055999756 -13.05648040771484 12.92854976654053 -13.55964660644531 12.73792552947998 C -16.96814727783203 11.44617557525635 -20.48052215576172 10.25080013275146 -23.0794792175293 10.25080013275146 C -24.9732723236084 10.25080013275146 -26.19802093505859 10.85846710205078 -27.05064582824707 12.22109222412109 C -28.0479793548584 13.81492519378662 -28.53277206420898 16.4421329498291 -28.53277206420898 20.25279998779297 C -28.53277206420898 24.29350852966309 -27.7451057434082 28.88971710205078 -26.19160461425781 33.91367340087891 C -24.67135429382324 38.83009338378906 -22.41618919372559 44.16300964355469 -19.48868751525879 49.76434326171875 C -13.71377182006836 60.81375885009766 -5.32397985458374 72.86725616455078 4.773728370666504 84.62167358398438 C 13.06797790527344 94.27688598632812 22.27001953125 103.5287551879883 32.12422943115234 112.1203002929688 C 42.44206237792969 121.1160507202148 53.15839385986328 129.1044311523438 63.97552108764648 135.8634643554688 C 75.50747680664062 143.0691680908203 86.97889709472656 148.7602233886719 98.07102203369141 152.7784271240234 C 109.9879379272461 157.0954284667969 121.4486846923828 159.4675445556641 132.1354370117188 159.8289184570312 C 133.1803131103516 159.8648071289062 133.9869842529297 159.880126953125 134.8326873779297 159.880126953125 M 134.8326873779297 160.880126953125 C 134.0194396972656 160.880126953125 133.2038116455078 160.8662109375 132.1011047363281 160.8283386230469 C 87.20314788818359 159.3101348876953 36.61305999755859 123.2200469970703 4.015186786651611 85.27330017089844 C -16.29456329345703 61.63134002685547 -29.53277206420898 37.13338470458984 -29.53277206420898 20.25279998779297 C -29.53277206420898 7.165047168731689 -23.86139488220215 7.764258861541748 -13.20527172088623 11.80284214019775 C -4.961104869842529 14.9259672164917 5.825728416442871 18.70309257507324 18.03693580627441 27.69330024719238 C 31.65468597412109 37.71863174438477 47.04452133178711 53.68571853637695 60.97139358520508 67.29913330078125 C 73.3358154296875 77.79817199707031 118.2754745483398 113.6633834838867 132.1011047363281 113.6633834838867 C 192.6786499023438 88.21167755126953 247.6513519287109 30.33159255981445 276.5033264160156 12.06313323974609 C 282.3820190429688 8.340641975402832 292.8125 3.044695854187012 296.694091796875 3.543341875076294 C 300.5050659179688 4.020716667175293 299.84521484375 7.689716815948486 299.84521484375 14.98084163665771 C 299.84521484375 37.51813507080078 274.207275390625 77.59455108642578 241.6093597412109 108.232048034668 C 210.6392211914062 137.3397521972656 170.9863128662109 160.880126953125 134.8326873779297 160.880126953125 Z" stroke="none" fill="#000"/>
    </g>
    <g id="Path_29" data-name="Path 29" transform="matrix(1, -0.017, 0.017, 1, 904.253, 669.784)" fill="url(#radial-gradient)">
      <path d="M 40.99374389648438 86.5 C 35.53066635131836 86.5 30.23096656799316 85.3646240234375 25.24186706542969 83.12538909912109 C 20.42064476013184 80.96150970458984 16.09014320373535 77.86311340332031 12.37066650390625 73.91623687744141 C 8.649221420288086 69.96725463867188 5.727254867553711 65.36827850341797 3.685955047607422 60.24703216552734 C 1.571910619735718 54.94329071044922 0.499999463558197 49.30877685546875 0.499999463558197 43.5 C 0.499999463558197 37.69122314453125 1.571910619735718 32.05670928955078 3.685955047607422 26.75296592712402 C 5.727254867553711 21.63172149658203 8.649221420288086 17.03274536132812 12.37066650390625 13.08376693725586 C 16.09014320373535 9.13688850402832 20.42064476013184 6.038488864898682 25.24186706542969 3.874611139297485 C 30.23096656799316 1.635377764701843 35.53066635131836 0.5 40.99374389648438 0.5 C 46.45682144165039 0.5 51.75652313232422 1.635377764701843 56.74562072753906 3.874611139297485 C 61.56684494018555 6.038488864898682 65.89734649658203 9.13688850402832 69.6168212890625 13.08376693725586 C 73.33826446533203 17.03274536132812 76.26023101806641 21.63172149658203 78.30153656005859 26.75296592712402 C 80.41558074951172 32.05670928955078 81.48748779296875 37.69122314453125 81.48748779296875 43.5 C 81.48748779296875 49.30877685546875 80.41558074951172 54.94329071044922 78.30153656005859 60.24703216552734 C 76.26023101806641 65.36827850341797 73.33826446533203 69.96725463867188 69.6168212890625 73.91623687744141 C 65.89734649658203 77.86311340332031 61.56684494018555 80.96150970458984 56.74562072753906 83.12538909912109 C 51.75652313232422 85.3646240234375 46.45682144165039 86.5 40.99374389648438 86.5 Z" stroke="none"/>
      <path d="M 40.99374389648438 1 C 35.60170745849609 1 30.37088394165039 2.120635986328125 25.44660186767578 4.330764770507812 C 20.68566131591797 6.46759033203125 16.40870666503906 9.52789306640625 12.73455810546875 13.42668151855469 C 9.056434631347656 17.32967376708984 6.168319702148438 21.87556457519531 4.150413513183594 26.93810653686523 C 2.059959411621094 32.18268203735352 1 37.75490570068359 1 43.5 C 1 49.24509429931641 2.059959411621094 54.81731796264648 4.150413513183594 60.06189346313477 C 6.168319702148438 65.12443542480469 9.056434631347656 69.67033386230469 12.73455810546875 73.57331848144531 C 16.40870666503906 77.47210693359375 20.68566131591797 80.53240966796875 25.44660186767578 82.66923522949219 C 30.37088394165039 84.87936401367188 35.60170745849609 86 40.99374389648438 86 C 46.38578033447266 86 51.61660003662109 84.87936401367188 56.54088592529297 82.66923522949219 C 61.30182647705078 80.53240966796875 65.57878112792969 77.47210693359375 69.2529296875 73.57331848144531 C 72.93104553222656 69.67033386230469 75.81916809082031 65.12443542480469 77.83707427978516 60.06189346313477 C 79.92753601074219 54.81731796264648 80.98748779296875 49.24509429931641 80.98748779296875 43.5 C 80.98748779296875 37.75490570068359 79.92753601074219 32.18268203735352 77.83707427978516 26.93810653686523 C 75.81916809082031 21.87556457519531 72.93104553222656 17.32967376708984 69.2529296875 13.42668151855469 C 65.57878112792969 9.52789306640625 61.30182647705078 6.46759033203125 56.54088592529297 4.330764770507812 C 51.61660003662109 2.120635986328125 46.38578033447266 1 40.99374389648438 1 M 40.99374389648438 0 C 63.63396835327148 0 81.98748779296875 19.47560882568359 81.98748779296875 43.5 C 81.98748779296875 67.52438354492188 63.63396835327148 87 40.99374389648438 87 C 18.35351943969727 87 0 67.52438354492188 0 43.5 C 0 19.47560882568359 18.35351943969727 0 40.99374389648438 0 Z" stroke="none" fill="#131212"/>
    </g>
    <path id="Polygon_5" data-name="Polygon 5" d="M3,0,6,80H0Z" transform="translate(948 265) rotate(180)" fill="#090707"/>
    <path id="Path_25" data-name="Path 25" d="M655.158,256.317" transform="translate(-1 -3)" fill="none" stroke="#707070" stroke-width="1"/>
    <path id="Path_26" data-name="Path 26" d="M825.5,596,947,647l143.667-61.667-60.292,49.184-36.884,26.627-27.825,16.523-10.317-4.555-14.836-.5L924.669,679l-38.762-28.264Z" transform="translate(-1 -3)"/>
    <path id="Path_27" data-name="Path 27" d="M927.025,741.423" transform="translate(-1 -3)" fill="none" stroke="#707070" stroke-width="1"/>
    <g transform="matrix(1, 0, 0, 1, 0, 0)" filter="url(#Path_32)">
      <path id="Path_32-2" data-name="Path 32" d="M667.437,568H643.1l-39.007,41.72,34.751,64.423,100,18.82" transform="translate(2.75 -2.44)" fill="#0f253e" stroke="#000" stroke-width="1"/>
    </g>
    <g transform="matrix(1, 0, 0, 1, 0, 0)" filter="url(#Path_33)">
      <path id="Path_33-2" data-name="Path 33" d="M675.973,568h24.5l39.268,41.72-34.985,64.423-100.67,18.82" transform="translate(532.5 -2.44)" fill="#0f253e" stroke="#000" stroke-width="1"/>
    </g>
    <path id="Path_34" data-name="Path 34" d="M25.365,10.345,38.25,13.6l6.872,2.079L75,30.56.014,31.776l2.6-17.532Z" transform="matrix(-0.891, -0.454, 0.454, -0.891, 905.545, 708.376)"/>
    <path id="Path_39" data-name="Path 39" d="M56.012,10.345,41.475,13.6l-7.753,2.079L.014,30.56l85.8,1.866-4.14-18.182Z" transform="matrix(-0.921, 0.391, -0.391, -0.921, 1063.693, 675.614)"/>
    <path id="Path_40" data-name="Path 40" d="M69.239,10.5c37.765,0,55.01-32.156,55.01-26.357S107,21,69.239,21,17.4-10.058,17.4-15.857,31.474,10.5,69.239,10.5Z" transform="translate(875.683 745.856)"/>
    <path id="Polygon_6" data-name="Polygon 6" d="M9.815,2.638a2,2,0,0,1,3.371,0l7.849,12.285A2,2,0,0,1,19.349,18H3.651a2,2,0,0,1-1.685-3.077Z" transform="translate(934 168)" fill="url(#radial-gradient-5)"/>
  </g>
</svg>
