<svg xmlns="http://www.w3.org/2000/svg" xmlns:xlink="http://www.w3.org/1999/xlink" width="1920" height="3321" viewBox="0 0 1920 3321">
  <defs>
    <linearGradient id="linear-gradient" x1="0.729" y1="0.429" x2="-0.582" y2="-0.153" gradientUnits="objectBoundingBox">
      <stop offset="0" stop-color="#fff" stop-opacity="0.529"/>
      <stop offset="1" stop-color="gray"/>
    </linearGradient>
    <filter id="Path_43" x="901.901" y="406.467" width="316.591" height="190.101" filterUnits="userSpaceOnUse">
      <feOffset dy="3" input="SourceAlpha"/>
      <feGaussianBlur stdDeviation="3" result="blur"/>
      <feFlood flood-color="#d2c0c0" flood-opacity="0.769"/>
      <feComposite operator="in" in2="blur"/>
      <feComposite in="SourceGraphic"/>
    </filter>
    <filter id="Path_43-2" x="901.901" y="406.467" width="316.591" height="190.101" filterUnits="userSpaceOnUse">
      <feOffset dy="3" input="SourceAlpha"/>
      <feGaussianBlur stdDeviation="3" result="blur-2"/>
      <feFlood flood-color="#dfd6d6" flood-opacity="0.161" result="color"/>
      <feComposite operator="out" in="SourceGraphic" in2="blur-2"/>
      <feComposite operator="in" in="color"/>
      <feComposite operator="in" in2="SourceGraphic"/>
    </filter>
    <clipPath id="clip-path">
      <rect width="16.046" height="119.83" fill="none"/>
    </clipPath>
    <clipPath id="clip-path-2">
      <rect width="46.243" height="35.462" fill="none"/>
    </clipPath>
    <clipPath id="clip-path-3">
      <rect width="22.861" height="170.715" fill="none"/>
    </clipPath>
    <clipPath id="clip-path-4">
      <rect width="65.88" height="50.521" fill="none"/>
    </clipPath>
    <clipPath id="clip-Home_7">
      <rect width="1920" height="3321"/>
    </clipPath>
  </defs>
  <g id="Home_7" data-name="Home – 7" clip-path="url(#clip-Home_7)">
    <rect width="1920" height="3321" fill="#fff"/>
    <g data-type="innerShadowGroup">
      <g transform="matrix(1, 0, 0, 1, 0, 0)" filter="url(#Path_43)">
        <path id="Path_43-3" data-name="Path 43" d="M579.846,754.292c278.059-1.751,298.591,0,298.591,0v-172.1H682.505" transform="translate(331.05 -169.72)" fill="url(#linear-gradient)"/>
      </g>
      <g transform="matrix(1, 0, 0, 1, 0, 0)" filter="url(#Path_43-2)">
        <path id="Path_43-4" data-name="Path 43" d="M579.846,754.292c278.059-1.751,298.591,0,298.591,0v-172.1H682.505" transform="translate(331.05 -169.72)" fill="#fff"/>
      </g>
    </g>
    <path id="Path_22" data-name="Path 22" d="M0,0,120.843,27.8l28.819,117.134L31.956,118.161Z" transform="translate(700.507 311.507) rotate(-45)" fill="#6bd3fb" stroke="#60d1fc" stroke-width="1"/>
    <g id="Path_26" data-name="Path 26" transform="translate(703.077 439.053) rotate(-45)" fill="#16befe">
      <path d="M 145.0400543212891 145.0444488525391 L 30.91876220703125 118.434684753418 L 0.6907734274864197 0.6800134778022766 L 117.0937423706055 28.62157440185547 L 145.0400543212891 145.0444488525391 Z" stroke="none"/>
      <path d="M 1.381561279296875 1.36004638671875 L 31.32765197753906 118.0166168212891 L 144.3648071289062 144.3735961914062 L 116.679069519043 29.03623199462891 L 1.381561279296875 1.36004638671875 M 0 0 L 117.5084075927734 28.20690155029297 L 145.7152862548828 145.7153167724609 L 30.50986480712891 118.8527603149414 L 0 0 Z" stroke="none" fill="#16befe"/>
    </g>
    <path id="Path_27" data-name="Path 27" d="M366.368,444.622l2.881,127.7,104.479,62.215-1.536-128.86Z" transform="translate(334.138 -133.141)" fill="#04b4f6" stroke="#16befe" stroke-width="1"/>
    <path id="Path_36" data-name="Path 36" d="M366.368,444.622l.148,6.584,5.386,3.208-.079-6.643Z" transform="translate(343.163 -113.5)" fill="#e9f9ff" stroke="#e9f9ff" stroke-width="1"/>
    <path id="Path_37" data-name="Path 37" d="M366.368,444.622l.148,6.584,5.386,3.208-.079-6.643Z" transform="translate(343.163 -113.5)" fill="#e9f9ff" stroke="#e9f9ff" stroke-width="1"/>
    <g id="Repeat_Grid_3" data-name="Repeat Grid 3" transform="translate(775.849 367.653)" clip-path="url(#clip-path)">
      <g transform="translate(-853.715 -506.336)">
        <path id="Path_16" data-name="Path 16" d="M366.368,444.622l.212,9.38L388.2,466.585l-.113-9.465Z" transform="translate(487.867 62.591)" fill="#16fe92" stroke="#16fe92" stroke-width="1"/>
      </g>
      <g transform="translate(-853.715 -477.336)">
        <path id="Path_16-2" data-name="Path 16" d="M366.368,444.622l.212,9.38L388.2,466.585l-.113-9.465Z" transform="translate(487.867 62.591)" fill="#16fe92" stroke="#16fe92" stroke-width="1"/>
      </g>
      <g transform="translate(-853.715 -448.336)">
        <path id="Path_16-3" data-name="Path 16" d="M366.368,444.622l.212,9.38L388.2,466.585l-.113-9.465Z" transform="translate(487.867 62.591)" fill="#16fe92" stroke="#16fe92" stroke-width="1"/>
      </g>
      <g transform="translate(-853.715 -419.336)">
        <path id="Path_16-4" data-name="Path 16" d="M366.368,444.622l.212,9.38L388.2,466.585l-.113-9.465Z" transform="translate(487.867 62.591)" fill="#16fe92" stroke="#16fe92" stroke-width="1"/>
      </g>
      <g transform="translate(-853.715 -390.336)">
        <path id="Path_16-5" data-name="Path 16" d="M366.368,444.622l.212,9.38L388.2,466.585l-.113-9.465Z" transform="translate(487.867 62.591)" fill="#16fe92" stroke="#16fe92" stroke-width="1"/>
      </g>
    </g>
    <path id="Path_28" data-name="Path 28" d="M0,0,.148,6.584,44.921,33.42l-.079-6.643Z" transform="matrix(1, 0.017, -0.017, 1, 721.202, 336.415)" fill="#0555bc" stroke="#0555bc" stroke-width="1"/>
    <g id="Repeat_Grid_4" data-name="Repeat Grid 4" transform="translate(719.9 355.433)" clip-path="url(#clip-path-2)">
      <g transform="translate(-774.007 -488.927)">
        <path id="Path_15" data-name="Path 15" d="M366.368,444.622l.21,9.38,63.787,38.232-.112-9.465Z" transform="matrix(1, 0.017, -0.017, 1, 416.821, 38.88)" fill="#0555bc" stroke="#0555bc" stroke-width="1"/>
      </g>
    </g>
    <path id="Path_29" data-name="Path 29" d="M0,0,.148,6.584,44.921,33.42l-.079-6.643Z" transform="matrix(1, 0.017, -0.017, 1, 720.516, 375.717)" fill="#0555bc" stroke="#0555bc" stroke-width="1"/>
    <path id="Path_30" data-name="Path 30" d="M0,0,.148,6.584,44.921,33.42l-.079-6.643Z" transform="matrix(1, 0.017, -0.017, 1, 720.173, 395.367)" fill="#0555bc" stroke="#0555bc" stroke-width="1"/>
    <path id="Path_31" data-name="Path 31" d="M0,0,.148,6.584,44.921,33.42l-.079-6.643Z" transform="matrix(1, 0.017, -0.017, 1, 719.83, 415.018)" fill="#0555bc" stroke="#0555bc" stroke-width="1"/>
    <path id="Path_32" data-name="Path 32" d="M0,0,.148,6.584,44.921,33.42l-.079-6.643Z" transform="matrix(1, 0.017, -0.017, 1, 719.487, 434.669)" fill="#0555bc" stroke="#0555bc" stroke-width="1"/>
    <path id="Path_38" data-name="Path 38" d="M366.368,444.622l.148,6.584,5.386,3.208-.079-6.643Z" transform="translate(343.163 -93.846)" fill="#e9f9ff" stroke="#e9f9ff" stroke-width="1"/>
    <path id="Path_39" data-name="Path 39" d="M366.368,444.622l.148,6.584,5.386,3.208-.079-6.643Z" transform="translate(343.163 -74.192)" fill="#e9f9ff" stroke="#e9f9ff" stroke-width="1"/>
    <path id="Path_40" data-name="Path 40" d="M366.368,444.622l.148,6.584,5.386,3.208-.079-6.643Z" transform="translate(343.163 -54.538)" fill="#e9f9ff" stroke="#e9f9ff" stroke-width="1"/>
    <path id="Path_41" data-name="Path 41" d="M366.368,444.622l.148,6.584,5.386,3.208-.079-6.643Z" transform="translate(343.163 -34.884)" fill="#e9f9ff" stroke="#e9f9ff" stroke-width="1"/>
    <path id="Path_42" data-name="Path 42" d="M366.368,444.622l.148,6.584,5.386,3.208-.079-6.643Z" transform="translate(343.163 -15.231)" fill="#e9f9ff" stroke="#e9f9ff" stroke-width="1"/>
    <path id="Path_23" data-name="Path 23" d="M618.1,439.749v130.8l-99.969,62.318-1.623-128.856Z" transform="translate(289.962 -131.47)" fill="#0a53a7" stroke="#1891bf" stroke-width="1"/>
    <path id="Path_24" data-name="Path 24" d="M483.878,470.831V460.56l36.638-20.812.223,9.994Z" transform="translate(370.92 -104.515)" fill="#16fe92" stroke="#16fe92" stroke-width="1"/>
    <path id="Path_25" data-name="Path 25" d="M497.6,453.306v-8.978l7.062-4.579.1,8.844Z" transform="translate(398.129 -110.601)" fill="#e9f9ff" stroke="#e9f9ff" stroke-width="1"/>
    <g id="Ellipse_2" data-name="Ellipse 2" transform="translate(835.713 381.456)" fill="rgba(4,31,93,0.97)" stroke="#041f5d" stroke-width="1">
      <ellipse cx="23.164" cy="28.779" rx="23.164" ry="28.779" stroke="none"/>
      <ellipse cx="23.164" cy="28.779" rx="22.664" ry="28.279" fill="none"/>
    </g>
    <path id="Path_33" data-name="Path 33" d="M525.706,587.314h0" transform="translate(331.56 -182.475)" fill="none" stroke="#11aef3" stroke-width="4" stroke-dasharray="14 12"/>
    <path id="Path_21" data-name="Path 21" d="M525.706,587.314h0" transform="translate(138.294 -353.7)" fill="none" stroke="#11aef3" stroke-width="4" stroke-dasharray="14 12"/>
    <text id="Shield" transform="translate(80 60)" font-size="33" font-family="Tahoma-Bold, Tahoma" font-weight="700"><tspan x="0" y="0">Shield</tspan></text>
    <text id="What_is_VPN" data-name="What is VPN" transform="translate(1464 70)" font-size="23" font-family="Tahoma"><tspan x="0" y="0">What is VPN</tspan></text>
    <text id="Plans" transform="translate(1389 71)" font-size="23" font-family="Tahoma"><tspan x="0" y="0">Plans</tspan></text>
    <path id="Path_3" data-name="Path 3" d="M-1.116.445l172.16,39.612L212.1,206.932,44.41,168.784Z" transform="translate(757.424 310.202) rotate(-45)" fill="#6bd3fb" stroke="#60d1fc" stroke-width="1"/>
    <g id="Path_4" data-name="Path 4" transform="translate(760.611 493.015) rotate(-45)" fill="#16befe">
      <path d="M 206.9182434082031 206.9226531982422 L 43.87480545043945 168.9056701660156 L 0.6907711625099182 0.6800088882446289 L 166.9938507080078 40.59968566894531 L 206.9182434082031 206.9226531982422 Z" stroke="none"/>
      <path d="M 1.381561279296875 1.360031127929688 L 44.28372192382812 168.4876251220703 L 206.2430114746094 206.2518157958984 L 166.5791778564453 41.01432800292969 L 1.381561279296875 1.360031127929688 M 1.52587890625e-05 0 L 167.4085083007812 40.18499755859375 L 207.5934753417969 207.5935211181641 L 43.46592712402344 169.3237609863281 L 1.52587890625e-05 0 Z" stroke="none" fill="#16befe"/>
    </g>
    <path id="Path_5" data-name="Path 5" d="M366.368,444.622l4.1,181.935,148.846,88.635L517.129,531.61Z" transform="translate(390.581 -133.353)" fill="#04b4f6" stroke="#16befe" stroke-width="1"/>
    <path id="Path_8" data-name="Path 8" d="M366.368,444.622l.212,9.38,7.674,4.57-.113-9.465Z" transform="translate(403.438 -105.372)" fill="#e9f9ff" stroke="#e9f9ff" stroke-width="1"/>
    <path id="Path_14" data-name="Path 14" d="M366.368,444.622l.212,9.38,7.674,4.57-.113-9.465Z" transform="translate(403.438 -105.372)" fill="#e9f9ff" stroke="#e9f9ff" stroke-width="1"/>
    <g id="Repeat_Grid_2" data-name="Repeat Grid 2" transform="translate(864.286 391.295)" clip-path="url(#clip-path-3)">
      <g transform="translate(-853.715 -506.336)">
        <path id="Path_16-6" data-name="Path 16" d="M366.368,444.622l.212,9.38L388.2,466.585l-.113-9.465Z" transform="translate(487.867 62.591)" fill="#16fe92" stroke="#16fe92" stroke-width="1"/>
      </g>
      <g transform="translate(-853.715 -477.336)">
        <path id="Path_16-7" data-name="Path 16" d="M366.368,444.622l.212,9.38L388.2,466.585l-.113-9.465Z" transform="translate(487.867 62.591)" fill="#16fe92" stroke="#16fe92" stroke-width="1"/>
      </g>
      <g transform="translate(-853.715 -448.336)">
        <path id="Path_16-8" data-name="Path 16" d="M366.368,444.622l.212,9.38L388.2,466.585l-.113-9.465Z" transform="translate(487.867 62.591)" fill="#16fe92" stroke="#16fe92" stroke-width="1"/>
      </g>
      <g transform="translate(-853.715 -419.336)">
        <path id="Path_16-9" data-name="Path 16" d="M366.368,444.622l.212,9.38L388.2,466.585l-.113-9.465Z" transform="translate(487.867 62.591)" fill="#16fe92" stroke="#16fe92" stroke-width="1"/>
      </g>
      <g transform="translate(-853.715 -390.336)">
        <path id="Path_16-10" data-name="Path 16" d="M366.368,444.622l.212,9.38L388.2,466.585l-.113-9.465Z" transform="translate(487.867 62.591)" fill="#16fe92" stroke="#16fe92" stroke-width="1"/>
      </g>
      <g transform="translate(-853.715 -361.336)">
        <path id="Path_16-11" data-name="Path 16" d="M366.368,444.622l.212,9.38L388.2,466.585l-.113-9.465Z" transform="translate(487.867 62.591)" fill="#16fe92" stroke="#16fe92" stroke-width="1"/>
      </g>
    </g>
    <path id="Path_15-2" data-name="Path 15" d="M366.368,444.622l.21,9.38,63.787,38.232-.112-9.465Z" transform="matrix(1, 0.017, -0.017, 1, 427.88, -104.157)" fill="#0555bc" stroke="#0555bc" stroke-width="1"/>
    <g id="Repeat_Grid_1" data-name="Repeat Grid 1" transform="translate(784.578 373.885)" clip-path="url(#clip-path-4)">
      <g transform="translate(-774.007 -488.927)">
        <path id="Path_15-3" data-name="Path 15" d="M366.368,444.622l.21,9.38,63.787,38.232-.112-9.465Z" transform="matrix(1, 0.017, -0.017, 1, 416.821, 38.88)" fill="#0555bc" stroke="#0555bc" stroke-width="1"/>
      </g>
    </g>
    <path id="Path_15-4" data-name="Path 15" d="M366.368,444.622l.21,9.38,63.787,38.232-.112-9.465Z" transform="matrix(1, 0.017, -0.017, 1, 426.903, -48.166)" fill="#0555bc" stroke="#0555bc" stroke-width="1"/>
    <path id="Path_15-5" data-name="Path 15" d="M366.368,444.622l.21,9.38,63.787,38.232-.112-9.465Z" transform="matrix(1, 0.017, -0.017, 1, 426.414, -20.17)" fill="#0555bc" stroke="#0555bc" stroke-width="1"/>
    <path id="Path_15-6" data-name="Path 15" d="M366.368,444.622l.21,9.38,63.787,38.232-.112-9.465Z" transform="matrix(1, 0.017, -0.017, 1, 425.926, 7.826)" fill="#0555bc" stroke="#0555bc" stroke-width="1"/>
    <path id="Path_15-7" data-name="Path 15" d="M366.368,444.622l.21,9.38,63.787,38.232-.112-9.465Z" transform="matrix(1, 0.017, -0.017, 1, 425.437, 35.822)" fill="#0555bc" stroke="#0555bc" stroke-width="1"/>
    <path id="Path_9" data-name="Path 9" d="M366.368,444.622l.212,9.38,7.674,4.57-.113-9.465Z" transform="translate(403.438 -77.372)" fill="#e9f9ff" stroke="#e9f9ff" stroke-width="1"/>
    <path id="Path_10" data-name="Path 10" d="M366.368,444.622l.212,9.38,7.674,4.57-.113-9.465Z" transform="translate(403.438 -49.372)" fill="#e9f9ff" stroke="#e9f9ff" stroke-width="1"/>
    <path id="Path_11" data-name="Path 11" d="M366.368,444.622l.212,9.38,7.674,4.57-.113-9.465Z" transform="translate(403.438 -21.372)" fill="#e9f9ff" stroke="#e9f9ff" stroke-width="1"/>
    <path id="Path_12" data-name="Path 12" d="M366.368,444.622l.212,9.38,7.674,4.57-.113-9.465Z" transform="translate(403.438 6.628)" fill="#e9f9ff" stroke="#e9f9ff" stroke-width="1"/>
    <path id="Path_13" data-name="Path 13" d="M366.368,444.622l.212,9.38,7.674,4.57-.113-9.465Z" transform="translate(403.438 34.628)" fill="#e9f9ff" stroke="#e9f9ff" stroke-width="1"/>
    <path id="Path_6" data-name="Path 6" d="M661.241,439.749V626.1L518.82,714.88,516.508,531.3Z" transform="translate(391.402 -133.042)" fill="#0a53a7" stroke="#1891bf" stroke-width="1"/>
    <path id="Path_17" data-name="Path 17" d="M483.878,484.031V469.4l52.2-29.649.318,14.238Z" transform="translate(492.883 -94.64)" fill="#16fe92" stroke="#16fe92" stroke-width="1"/>
    <path id="Path_18" data-name="Path 18" d="M497.6,459.063v-12.79l10.061-6.524.145,12.6Z" transform="translate(537.472 -103.311)" fill="#e9f9ff" stroke="#e9f9ff" stroke-width="1"/>
    <g id="Ellipse_1" data-name="Ellipse 1" transform="translate(949.571 410.958)" fill="rgba(4,31,93,0.97)" stroke="#041f5d" stroke-width="1">
      <ellipse cx="33" cy="41" rx="33" ry="41" stroke="none"/>
      <ellipse cx="33" cy="41" rx="32.5" ry="40.5" fill="none"/>
    </g>
    <path id="Path_19" data-name="Path 19" d="M525.706,587.314h0" transform="translate(454.571 -143.042)" fill="none" stroke="#11aef3" stroke-width="4" stroke-dasharray="14 12"/>
    <path id="Path_20" data-name="Path 20" d="M525.706,587.314h0" transform="translate(454.571 -143.042)" fill="none" stroke="#11aef3" stroke-width="4" stroke-dasharray="14 12"/>
    <g id="Path_44" data-name="Path 44" transform="translate(187.56 19)" fill="#041f5d">
      <path d="M 15.41841125488281 38.54170227050781 C 15.10329055786133 38.54170227050781 14.1276912689209 38.3604621887207 11.87995052337646 36.68170166015625 C 10.34252071380615 35.53345108032227 8.537060737609863 33.92460250854492 6.796180725097656 32.15153121948242 C 3.089080810546875 28.37588119506836 0.5000008344650269 24.72113037109375 0.5000008344650269 23.26382064819336 L 0.5000008344650269 6.513871192932129 C 0.5000008344650269 3.270471334457397 2.916566848754883 0.6185274720191956 5.92783260345459 0.5038678050041199 L 15.06477069854736 9.645371437072754 L 15.42191123962402 10.00268077850342 L 15.77551078796387 9.641871452331543 L 24.73078155517578 0.5039775371551514 C 27.74073791503906 0.620184063911438 30.15576171875 3.271483421325684 30.15576171875 6.513871192932129 L 30.15576171875 23.26382064819336 C 30.15576171875 24.72566032409668 27.60295104980469 28.38139152526855 23.94779014587402 32.15390014648438 C 22.22889137268066 33.9279899597168 20.44564056396484 35.53654098510742 18.92654037475586 36.68324279785156 C 16.70441055297852 38.36061096191406 15.73294067382812 38.54170227050781 15.41841125488281 38.54170227050781 Z" stroke="none"/>
      <path d="M 5.73320198059082 1.01641845703125 C 3.089033126831055 1.23529052734375 1 3.617328643798828 1 6.513870239257812 L 1 23.26382064819336 C 1 24.36459159851074 3.156461715698242 27.7308406829834 7.152961730957031 31.80123138427734 C 8.876520156860352 33.55665969848633 10.66152000427246 35.14764022827148 12.17915153503418 36.28110122680664 C 14.42282104492188 37.95682144165039 15.27114105224609 38.04170227050781 15.41841125488281 38.04170227050781 C 15.56512069702148 38.04170227050781 16.40924072265625 37.95697021484375 18.62530136108398 36.28417205810547 C 20.12446975708008 35.15251159667969 21.88718032836914 33.56212997436523 23.58870124816895 31.80598068237305 C 27.52939987182617 27.73876190185547 29.65576171875 24.36926078796387 29.65576171875 23.26382064819336 L 29.65576171875 6.513870239257812 C 29.65576171875 3.619369506835938 27.56972312927246 1.238651275634766 24.92819786071777 1.016887664794922 L 15.42541122436523 10.71347045898438 L 5.73320198059082 1.01641845703125 M 6.13115119934082 0 L 15.41841125488281 9.291900634765625 L 24.52461051940918 0 C 27.91075134277344 0 30.65576171875 2.916362762451172 30.65576171875 6.513870239257812 L 30.65576171875 23.26382064819336 C 30.65576171875 26.86133193969727 18.80455017089844 39.04170227050781 15.41841125488281 39.04170227050781 C 12.03227043151855 39.04170227050781 0 26.86133193969727 0 23.26382064819336 L 0 6.513870239257812 C 0 2.916362762451172 2.745010375976562 0 6.13115119934082 0 Z" stroke="none" fill="#041f5d"/>
    </g>
    <g id="Path_45" data-name="Path 45" transform="translate(190.215 24.127)" fill="#8cf6f3">
      <path d="M 12.40256690979004 29.23096466064453 C 11.02923202514648 28.80311584472656 8.234787940979004 26.4760627746582 5.367329120635986 23.362060546875 C 2.171889305114746 19.89187049865723 0.4999992847442627 17.23802947998047 0.4999992847442627 16.41004943847656 L 0.4999992847442627 4.594810485839844 C 0.4999992847442627 2.391079902648926 2.454699516296387 0.5883632302284241 4.893377780914307 0.5031484365463257 L 12.43533897399902 6.934860229492188 L 12.76298904418945 7.21427059173584 L 13.08790969848633 6.931680202484131 L 20.47905921936035 0.5032445192337036 C 22.91646003723145 0.5897154808044434 24.86971855163574 2.39190673828125 24.86971855163574 4.594810485839844 L 24.86971855163574 16.41004943847656 C 24.86971855163574 17.22671127319336 23.10863876342773 19.87383079528809 19.74275970458984 23.35309982299805 C 16.72732162475586 26.47011756896973 13.81128692626953 28.8012580871582 12.40256690979004 29.23096466064453 Z" stroke="none"/>
      <path d="M 4.721109390258789 1.013359069824219 C 2.639318466186523 1.171703338623047 1 2.717521667480469 1 4.594810485839844 L 1 16.40988159179688 C 1.000059127807617 16.41564178466797 1.02134895324707 17.00667953491211 2.318248748779297 18.85647010803223 C 3.185409545898438 20.09331893920898 4.403059005737305 21.57769012451172 5.746910095214844 23.03614044189453 C 8.418525695800781 25.93558883666992 11.08406066894531 28.19648361206055 12.4043550491333 28.70316696166992 C 13.76167392730713 28.19631004333496 16.54265785217285 25.93668556213379 19.34846878051758 23.0415210723877 C 20.76272964477539 21.58222961425781 22.04538917541504 20.09949111938477 22.96018981933594 18.86642074584961 C 24.33506965637207 17.01322174072266 24.36896896362305 16.43249893188477 24.36971855163574 16.41004943847656 L 24.36971855163574 4.594810485839844 C 24.36971855163574 2.719095230102539 22.7332820892334 1.174304962158203 20.65397644042969 1.013771057128906 L 12.76619911193848 7.874139785766602 L 4.721109390258789 1.013359069824219 M 5.073938369750977 0 L 12.75977897644043 6.554410934448242 L 20.29576873779297 0 C 23.0980396270752 0 25.36971855163574 2.057170867919922 25.36971855163574 4.594810485839844 L 25.36971855163574 16.41004943847656 C 25.36971855163574 18.84902954101562 15.64553833007812 28.96645927429199 12.40144157409668 29.74949264526367 C 9.198232650756836 28.96645927429199 0 18.84902954101562 0 16.41004943847656 L 0 4.594810485839844 C 0 2.057170867919922 2.271678924560547 0 5.073938369750977 0 Z M 12.40144157409668 29.74949264526367 C 12.53101825714111 29.78116798400879 12.65082836151123 29.79758071899414 12.75977897644043 29.79758071899414 L 12.04058933258057 29.79758071899414 C 12.14953899383545 29.79758071899414 12.2702112197876 29.78116798400879 12.40144157409668 29.74949264526367 Z" stroke="none" fill="#041f5d"/>
    </g>
    <g id="Rectangle_1" data-name="Rectangle 1" transform="translate(198.811 38.778) rotate(-41)" fill="#fff" stroke="#fff9f9" stroke-width="1">
      <rect width="1" height="4" rx="0.5" stroke="none"/>
      <rect x="0.5" y="0.5" height="3" fill="none"/>
    </g>
    <g id="Rectangle_7" data-name="Rectangle 7" transform="translate(252.811 2731.3) rotate(-41)" fill="#fff" stroke="#fff9f9" stroke-width="1">
      <rect width="1" height="4" rx="0.5" stroke="none"/>
      <rect x="0.5" y="0.5" height="3" fill="none"/>
    </g>
    <g id="Rectangle_2" data-name="Rectangle 2" transform="translate(207.924 35.245) rotate(50)" fill="#fff" stroke="#fff3f3" stroke-width="1">
      <rect width="1" height="9" rx="0.5" stroke="none"/>
      <rect x="0.5" y="0.5" height="8" fill="none"/>
    </g>
    <g id="Rectangle_6" data-name="Rectangle 6" transform="translate(261.924 2727.768) rotate(50)" fill="#fff" stroke="#fff3f3" stroke-width="1">
      <rect width="1" height="9" rx="0.5" stroke="none"/>
      <rect x="0.5" y="0.5" height="8" fill="none"/>
    </g>
    <g id="Rectangle_5" data-name="Rectangle 5" transform="translate(1742 50)" fill="#0555bc" stroke="#0555bc" stroke-width="1">
      <rect width="164" height="31" rx="15.5" stroke="none"/>
      <rect x="0.5" y="0.5" width="163" height="30" rx="15" fill="none"/>
    </g>
    <text id="Get_Shield_now" data-name="Get Shield now" transform="translate(1773 71)" fill="#e9f9ff" font-size="15" font-family="Tahoma"><tspan x="0" y="0">Get Shield now</tspan></text>
    <text id="_" data-name="              " transform="translate(351 1506)" fill="#8c9595" font-size="13" font-family="Tahoma"><tspan x="0" y="0" xml:space="preserve">              </tspan></text>
    <g id="Rectangle_37" data-name="Rectangle 37" transform="matrix(0.788, 0.616, -0.616, 0.788, 1210.545, 1494)" fill="#fff" stroke="#fefefe" stroke-width="1">
      <rect width="8.192" height="2" rx="1" stroke="none"/>
      <rect x="0.5" y="0.5" width="7.192" height="1" rx="0.5" fill="none"/>
    </g>
    <g id="Rectangle_38" data-name="Rectangle 38" transform="matrix(0.819, -0.574, 0.574, 0.819, 1214.235, 1498.917)" fill="#fff" stroke="#fffefe" stroke-width="1">
      <rect width="20" height="2" rx="1" stroke="none"/>
      <rect x="0.5" y="0.5" width="19" height="1" rx="0.5" fill="none"/>
    </g>
    <rect id="Rectangle_39" data-name="Rectangle 39" width="9" height="2" rx="1" transform="matrix(0.809, 0.588, -0.588, 0.809, 1209.719, 1562)" fill="#fff"/>
    <g id="Rectangle_40" data-name="Rectangle 40" transform="matrix(0.819, -0.574, 0.574, 0.819, 1219, 1571.231)" fill="#fff" stroke="#fff" stroke-width="1">
      <rect width="23" height="2" rx="1" stroke="none"/>
      <rect x="0.5" y="0.5" width="22" height="1" rx="0.5" fill="none"/>
    </g>
    <g id="Rectangle_41" data-name="Rectangle 41" transform="matrix(0.799, 0.602, -0.602, 0.799, 1210.439, 1631.714)" fill="#fff" stroke="#fff" stroke-width="1">
      <rect width="10" height="2" rx="1" stroke="none"/>
      <rect x="0.5" y="0.5" width="9" height="1" rx="0.5" fill="none"/>
    </g>
    <g id="Rectangle_42" data-name="Rectangle 42" transform="matrix(0.819, -0.574, 0.574, 0.819, 1215.506, 1637.691)" fill="#fff" stroke="#fff" stroke-width="1">
      <rect width="23" height="2" rx="1" stroke="none"/>
      <rect x="0.5" y="0.5" width="22" height="1" rx="0.5" fill="none"/>
    </g>
    <text id="My_Account" data-name="My Account" transform="translate(1612 69)" fill="#0c0d0d" font-size="20" font-family="Tahoma"><tspan x="0" y="0">My Account</tspan></text>
    <g id="Path_61" data-name="Path 61" transform="translate(117 970)" fill="#4e77e8">
      <path d="M 554 1085.5 C 535.119140625 1085.5 516.0783081054688 1084.5576171875 497.4062805175781 1082.698974609375 C 479.0045776367188 1080.867309570312 460.5140075683594 1078.101318359375 442.447998046875 1074.47802734375 C 424.6158447265625 1070.901489257812 406.7690124511719 1066.403564453125 389.4031372070312 1061.109619140625 C 372.2317199707031 1055.874755859375 355.1220092773438 1049.73681640625 338.5497131347656 1042.866455078125 C 322.1304321289062 1036.0595703125 305.8517150878906 1028.373413085938 290.1657104492188 1020.021545410156 C 274.5911560058594 1011.72900390625 259.2369995117188 1002.586120605469 244.5294342041016 992.8472900390625 C 229.8928527832031 983.1554565429688 215.5567169189453 972.6478271484375 201.9190063476562 961.616455078125 C 188.3147125244141 950.6121215820312 175.0901489257812 938.83154296875 162.6128540039062 926.6019897460938 C 150.1355743408203 914.3724365234375 138.1164245605469 901.4105834960938 126.8891448974609 888.076416015625 C 115.6344299316406 874.709716796875 104.9142837524414 860.658447265625 95.02614593505859 846.312744140625 C 85.09014129638672 831.8975830078125 75.76242828369141 816.8485717773438 67.30213928222656 801.583740234375 C 58.78128433227539 786.2095947265625 50.93971252441406 770.2546997070312 43.99514389038086 754.1619873046875 C 36.98585891723633 737.91943359375 30.72400093078613 721.1502685546875 25.38328552246094 704.3204345703125 C 19.98228645324707 687.3001708984375 15.3935718536377 669.8084106445312 11.74471473693848 652.331298828125 C 8.048142433166504 634.625 5.226285934448242 616.50244140625 3.357571363449097 598.4671630859375 C 1.46142852306366 580.1666870117188 0.5 561.5048828125 0.5 543 C 0.5 524.4951171875 1.46142852306366 505.8332824707031 3.357571363449097 487.5329895019531 C 5.226285934448242 469.49755859375 8.048142433166504 451.375 11.74471473693848 433.668701171875 C 15.3935718536377 416.1915588378906 19.98228645324707 398.6998596191406 25.38328552246094 381.6797180175781 C 30.72400093078613 364.849853515625 36.98585891723633 348.0807189941406 43.99514389038086 331.8380126953125 C 50.93971252441406 315.7454223632812 58.78128433227539 299.7904357910156 67.30213928222656 284.4164428710938 C 75.76242828369141 269.1515808105469 85.09014129638672 254.1024322509766 95.02614593505859 239.6872863769531 C 104.9142837524414 225.3417205810547 115.6344299316406 211.2904357910156 126.8891448974609 197.9235687255859 C 138.1164245605469 184.5895690917969 150.1355743408203 171.6277160644531 162.6128540039062 159.3981475830078 C 175.0901489257812 147.1685638427734 188.3147125244141 135.3880004882812 201.9190063476562 124.3835678100586 C 215.5567169189453 113.3521423339844 229.8928527832031 102.8447113037109 244.5294342041016 93.15271759033203 C 259.2369995117188 83.41385650634766 274.5911560058594 74.27114105224609 290.1657104492188 65.97856903076172 C 305.8517150878906 57.62657165527344 322.1304321289062 49.9404296875 338.5497131347656 43.13357162475586 C 355.1220092773438 36.26314163208008 372.2317199707031 30.12528610229492 389.4031372070312 24.89042854309082 C 406.7690124511719 19.59642791748047 424.6158447265625 15.09857177734375 442.447998046875 11.52200031280518 C 460.5140075683594 7.898714065551758 479.0045776367188 5.13271427154541 497.4062805175781 3.301000118255615 C 516.0783081054688 1.442428588867188 535.119140625 0.5 554 0.5 C 572.880859375 0.5 591.9216918945312 1.442428588867188 610.5936889648438 3.301000118255615 C 628.9954223632812 5.13271427154541 647.4860229492188 7.898714065551758 665.552001953125 11.52200031280518 C 683.3841552734375 15.09857177734375 701.2310180664062 19.59642791748047 718.5968627929688 24.89042854309082 C 735.768310546875 30.12528610229492 752.8779907226562 36.26314163208008 769.4502563476562 43.13357162475586 C 785.8695678710938 49.9404296875 802.1483154296875 57.62657165527344 817.8342895507812 65.97856903076172 C 833.4088745117188 74.27114105224609 848.7630004882812 83.41385650634766 863.4705810546875 93.15271759033203 C 878.1071166992188 102.8447113037109 892.4432983398438 113.3521423339844 906.0809936523438 124.3835678100586 C 919.685302734375 135.3880004882812 932.9098510742188 147.1685638427734 945.3871459960938 159.3981475830078 C 957.8644409179688 171.6277160644531 969.883544921875 184.5895690917969 981.11083984375 197.9235687255859 C 992.3656005859375 211.2904357910156 1003.085693359375 225.3417205810547 1012.973876953125 239.6872863769531 C 1022.909851074219 254.1024322509766 1032.237548828125 269.1515808105469 1040.697875976562 284.4164428710938 C 1049.21875 299.7904357910156 1057.060302734375 315.7454223632812 1064.0048828125 331.8380126953125 C 1071.01416015625 348.0807189941406 1077.276000976562 364.849853515625 1082.61669921875 381.6797180175781 C 1088.017700195312 398.6998596191406 1092.6064453125 416.1915588378906 1096.255249023438 433.668701171875 C 1099.951904296875 451.375 1102.773681640625 469.49755859375 1104.642456054688 487.5329895019531 C 1106.53857421875 505.8332824707031 1107.5 524.4951171875 1107.5 543 C 1107.5 561.5048828125 1106.53857421875 580.1666870117188 1104.642456054688 598.4671630859375 C 1102.773681640625 616.50244140625 1099.951904296875 634.625 1096.255249023438 652.331298828125 C 1092.6064453125 669.8084106445312 1088.017700195312 687.3001708984375 1082.61669921875 704.3204345703125 C 1077.276000976562 721.1502685546875 1071.01416015625 737.91943359375 1064.0048828125 754.1619873046875 C 1057.060302734375 770.2546997070312 1049.21875 786.2095947265625 1040.697875976562 801.583740234375 C 1032.237548828125 816.8485717773438 1022.909851074219 831.8975830078125 1012.973876953125 846.312744140625 C 1003.085693359375 860.658447265625 992.3656005859375 874.709716796875 981.11083984375 888.076416015625 C 969.883544921875 901.4105834960938 957.8644409179688 914.3724365234375 945.3871459960938 926.6019897460938 C 932.9098510742188 938.83154296875 919.685302734375 950.6121215820312 906.0809936523438 961.616455078125 C 892.4432983398438 972.6478271484375 878.1071166992188 983.1554565429688 863.4705810546875 992.8472900390625 C 848.7630004882812 1002.586120605469 833.4088745117188 1011.72900390625 817.8342895507812 1020.021545410156 C 802.1483154296875 1028.373413085938 785.8695678710938 1036.0595703125 769.4502563476562 1042.866455078125 C 752.8779907226562 1049.73681640625 735.768310546875 1055.874755859375 718.5968627929688 1061.109619140625 C 701.2310180664062 1066.403564453125 683.3841552734375 1070.901489257812 665.552001953125 1074.47802734375 C 647.4860229492188 1078.101318359375 628.9954223632812 1080.867309570312 610.5936889648438 1082.698974609375 C 591.9216918945312 1084.5576171875 572.880859375 1085.5 554 1085.5 Z" stroke="none"/>
      <path d="M 554 1 C 535.1357421875 1 516.1114501953125 1.9415283203125 497.4556884765625 3.798583984375 C 479.0704345703125 5.6285400390625 460.5961303710938 8.39208984375 442.5462646484375 12.0123291015625 C 424.7301635742188 15.5855712890625 406.8992919921875 20.0794677734375 389.5490112304688 25.3687744140625 C 372.3928833007812 30.598876953125 355.2987060546875 36.731201171875 338.7411499023438 43.595458984375 C 322.3367309570312 50.3961181640625 306.0725708007812 58.075439453125 290.4006958007812 66.41986083984375 C 274.8401489257812 74.70501708984375 259.4996948242188 83.83941650390625 244.805419921875 93.569580078125 C 230.18212890625 103.252685546875 215.85888671875 113.7508544921875 202.2333984375 124.7722778320312 C 188.6414184570312 135.7667236328125 175.4288330078125 147.5365600585938 162.9628295898438 159.755126953125 C 150.4968872070312 171.9735717773438 138.4885864257812 184.9237060546875 127.2715454101562 198.2455444335938 C 116.0272827148438 211.6001586914062 105.3168334960938 225.6385498046875 95.4378662109375 239.9710083007812 C 85.510986328125 254.3728637695312 76.1920166015625 269.4080200195312 67.7393798828125 284.65869140625 C 59.2265625 300.0184326171875 51.392333984375 315.9584350585938 44.454345703125 332.0360107421875 C 37.4515380859375 348.263427734375 31.195556640625 365.016845703125 25.85986328125 381.8308715820312 C 20.4638671875 398.8350219726562 15.8795166015625 416.3101196289062 12.234130859375 433.7708740234375 C 8.541015625 451.4605712890625 5.7218017578125 469.5659790039062 3.8548583984375 487.5844116210938 C 1.9605712890625 505.8677368164062 1 524.5122680664062 1 543 C 1 561.4877319335938 1.9605712890625 580.13232421875 3.8548583984375 598.41552734375 C 5.7218017578125 616.4339599609375 8.541015625 634.5394287109375 12.234130859375 652.22900390625 C 15.8795166015625 669.689697265625 20.4638671875 687.1648559570312 25.85986328125 704.1691284179688 C 31.195556640625 720.983154296875 37.4515380859375 737.7364501953125 44.454345703125 753.9638671875 C 51.392333984375 770.0414428710938 59.2265625 785.9815673828125 67.7393798828125 801.34130859375 C 76.1920166015625 816.592041015625 85.510986328125 831.6270141601562 95.4378662109375 846.0288696289062 C 105.3168334960938 860.3614501953125 116.0272827148438 874.3998413085938 127.2715454101562 887.7542724609375 C 138.4885864257812 901.0762939453125 150.4968872070312 914.0264282226562 162.9628295898438 926.244873046875 C 175.4288330078125 938.4632568359375 188.6414184570312 950.2332763671875 202.2333984375 961.2277221679688 C 215.85888671875 972.2491455078125 230.18212890625 982.7471313476562 244.805419921875 992.4302978515625 C 259.4996948242188 1002.160583496094 274.8401489257812 1011.294982910156 290.4006958007812 1019.580139160156 C 306.0725708007812 1027.924560546875 322.3367309570312 1035.603881835938 338.7411499023438 1042.404541015625 C 355.2987060546875 1049.268676757812 372.3928833007812 1055.401123046875 389.5490112304688 1060.63134765625 C 406.8992919921875 1065.920532226562 424.7301635742188 1070.414428710938 442.5462646484375 1073.987670898438 C 460.5961303710938 1077.60791015625 479.0704345703125 1080.371459960938 497.4556884765625 1082.201416015625 C 516.1114501953125 1084.058471679688 535.1357421875 1085 554 1085 C 572.8642578125 1085 591.8885498046875 1084.058471679688 610.5443115234375 1082.201416015625 C 628.9295654296875 1080.371459960938 647.4038696289062 1077.60791015625 665.4537353515625 1073.987670898438 C 683.2698974609375 1070.414428710938 701.1007080078125 1065.920532226562 718.4509887695312 1060.63134765625 C 735.607177734375 1055.401123046875 752.7012939453125 1049.268676757812 769.2588500976562 1042.404541015625 C 785.663330078125 1035.603881835938 801.9274291992188 1027.924560546875 817.5992431640625 1019.580139160156 C 833.1598510742188 1011.294982910156 848.500244140625 1002.160583496094 863.194580078125 992.4302978515625 C 877.81787109375 982.7471313476562 892.14111328125 972.2491455078125 905.7666015625 961.2277221679688 C 919.3585815429688 950.2332763671875 932.5711669921875 938.4632568359375 945.037109375 926.244873046875 C 957.503173828125 914.0264282226562 969.5114135742188 901.0762939453125 980.7284545898438 887.7542724609375 C 991.9727172851562 874.3998413085938 1002.683166503906 860.3614501953125 1012.562133789062 846.0288696289062 C 1022.489013671875 831.6270141601562 1031.807983398438 816.592041015625 1040.260620117188 801.34130859375 C 1048.7734375 785.9815673828125 1056.607666015625 770.0414428710938 1063.545654296875 753.9638671875 C 1070.548461914062 737.7364501953125 1076.804443359375 720.983154296875 1082.14013671875 704.1691284179688 C 1087.5361328125 687.1648559570312 1092.120483398438 669.689697265625 1095.765869140625 652.22900390625 C 1099.458984375 634.5394287109375 1102.278198242188 616.4339599609375 1104.145141601562 598.41552734375 C 1106.039428710938 580.13232421875 1107 561.4877319335938 1107 543 C 1107 524.5122680664062 1106.039428710938 505.8677368164062 1104.145141601562 487.5844116210938 C 1102.278198242188 469.5659790039062 1099.458984375 451.4605712890625 1095.765869140625 433.7708740234375 C 1092.120483398438 416.3101196289062 1087.5361328125 398.8350219726562 1082.14013671875 381.8308715820312 C 1076.804443359375 365.016845703125 1070.548461914062 348.263427734375 1063.545654296875 332.0360107421875 C 1056.607666015625 315.9584350585938 1048.7734375 300.0184326171875 1040.260620117188 284.65869140625 C 1031.807983398438 269.4080200195312 1022.489013671875 254.3728637695312 1012.562133789062 239.9710083007812 C 1002.683166503906 225.6385498046875 991.9727172851562 211.6001586914062 980.7284545898438 198.2455444335938 C 969.5114135742188 184.9237060546875 957.503173828125 171.9735717773438 945.037109375 159.755126953125 C 932.5711669921875 147.5365600585938 919.3585815429688 135.7667236328125 905.7666015625 124.7722778320312 C 892.14111328125 113.7508544921875 877.81787109375 103.252685546875 863.194580078125 93.569580078125 C 848.500244140625 83.83941650390625 833.1598510742188 74.70501708984375 817.5992431640625 66.41986083984375 C 801.9274291992188 58.075439453125 785.663330078125 50.3961181640625 769.2588500976562 43.595458984375 C 752.7012939453125 36.731201171875 735.607177734375 30.598876953125 718.4509887695312 25.3687744140625 C 701.1007080078125 20.0794677734375 683.2698974609375 15.5855712890625 665.4537353515625 12.0123291015625 C 647.4038696289062 8.39208984375 628.9295654296875 5.6285400390625 610.5443115234375 3.798583984375 C 591.8885498046875 1.9415283203125 572.8642578125 1 554 1 M 554 0 C 859.9656982421875 0 1108 243.1093139648438 1108 543 C 1108 842.8905639648438 859.9656982421875 1086 554 1086 C 248.0343017578125 1086 0 842.8905639648438 0 543 C 0 243.1093139648438 248.0343017578125 0 554 0 Z" stroke="none" fill="#4e77e8"/>
    </g>
    <g id="Ellipse_17" data-name="Ellipse 17" transform="translate(408 1639)" fill="#041f5d" stroke="#041f5d" stroke-width="1">
      <ellipse cx="615" cy="544.5" rx="615" ry="544.5" stroke="none"/>
      <ellipse cx="615" cy="544.5" rx="614.5" ry="544" fill="none"/>
    </g>
    <g id="Path_62" data-name="Path 62" transform="translate(873 1171)" fill="#60d1fc">
      <path d="M 410.5 782.5 C 396.5136108398438 782.5 382.40869140625 781.8206787109375 368.5769958496094 780.4810791015625 C 354.9455871582031 779.1608276367188 341.248291015625 777.1671142578125 327.8656921386719 774.555419921875 C 301.5404052734375 769.4177856445312 275.64599609375 761.7517700195312 250.9019012451172 751.7703247070312 C 226.6072998046875 741.9700927734375 203.1750946044922 729.8402709960938 181.2563934326172 715.7175903320312 C 159.5460968017578 701.7293701171875 139.1309051513672 685.6649169921875 120.5776977539062 667.9705200195312 C 102.0250015258789 650.2764282226562 85.181396484375 630.8068237304688 70.51499938964844 610.1024169921875 C 55.70819854736328 589.1998901367188 42.99089813232422 566.8544921875 32.71620178222656 543.6868286132812 C 27.52449989318848 531.9804077148438 22.88640022277832 519.8945922851562 18.93059921264648 507.7651062011719 C 14.930100440979 495.4984130859375 11.53139972686768 482.8919982910156 8.828800201416016 470.2959899902344 C 6.090799808502197 457.5350036621094 4.000699996948242 444.4739074707031 2.616600036621094 431.4757080078125 C 1.212100028991699 418.2864074707031 0.5 404.8367004394531 0.5 391.5 C 0.5 378.1632995605469 1.212100028991699 364.7135925292969 2.616600036621094 351.5242919921875 C 4.000699996948242 338.5260925292969 6.090799808502197 325.4649963378906 8.828800201416016 312.7040100097656 C 11.53139972686768 300.1080017089844 14.930100440979 287.5015869140625 18.93059921264648 275.2348937988281 C 22.88640022277832 263.1054077148438 27.52449989318848 251.0196075439453 32.71620178222656 239.3132019042969 C 42.99089813232422 216.1454925537109 55.70819854736328 193.8000946044922 70.51499938964844 172.8975982666016 C 85.181396484375 152.1932067871094 102.0250015258789 132.7236022949219 120.5776977539062 115.0295028686523 C 139.1309051513672 97.33509826660156 159.5460968017578 81.27059936523438 181.2563934326172 67.28240203857422 C 203.1750946044922 53.15969848632812 226.6072998046875 41.02989959716797 250.9019012451172 31.22970008850098 C 275.64599609375 21.24819946289062 301.5404052734375 13.582200050354 327.8656921386719 8.444600105285645 C 341.248291015625 5.832900047302246 354.9455871582031 3.839200019836426 368.5769958496094 2.518899917602539 C 382.40869140625 1.17929995059967 396.5136108398438 0.5 410.5 0.5 C 424.4863891601562 0.5 438.59130859375 1.17929995059967 452.4230041503906 2.518899917602539 C 466.0544128417969 3.839200019836426 479.751708984375 5.832900047302246 493.1343078613281 8.444600105285645 C 519.4595947265625 13.582200050354 545.35400390625 21.24819946289062 570.0980834960938 31.22970008850098 C 594.3927001953125 41.02989959716797 617.8248901367188 53.15969848632812 639.7435913085938 67.28240203857422 C 661.4539184570312 81.27059936523438 681.8690795898438 97.33509826660156 700.4223022460938 115.0295028686523 C 718.9749755859375 132.7236022949219 735.818603515625 152.1932067871094 750.4849853515625 172.8975982666016 C 765.2918090820312 193.8000946044922 778.0090942382812 216.1454925537109 788.2838134765625 239.3132019042969 C 793.4755249023438 251.0196075439453 798.1135864257812 263.1054077148438 802.0693969726562 275.2348937988281 C 806.0698852539062 287.5015869140625 809.4686279296875 300.1080017089844 812.1712036132812 312.7040100097656 C 814.9091796875 325.4649963378906 816.9993286132812 338.5260925292969 818.3834228515625 351.5242919921875 C 819.7879028320312 364.7135925292969 820.5 378.1632995605469 820.5 391.5 C 820.5 404.8367004394531 819.7879028320312 418.2864074707031 818.3834228515625 431.4757080078125 C 816.9993286132812 444.4739074707031 814.9091796875 457.5350036621094 812.1712036132812 470.2959899902344 C 809.4686279296875 482.8919982910156 806.0698852539062 495.4984130859375 802.0693969726562 507.7651062011719 C 798.1135864257812 519.8945922851562 793.4755249023438 531.9804077148438 788.2838134765625 543.6868286132812 C 778.0090942382812 566.8544921875 765.2918090820312 589.1998901367188 750.4849853515625 610.1024169921875 C 735.818603515625 630.8068237304688 718.9749755859375 650.2764282226562 700.4223022460938 667.9705200195312 C 681.8690795898438 685.6649169921875 661.4539184570312 701.7293701171875 639.7435913085938 715.7175903320312 C 617.8248901367188 729.8402709960938 594.3927001953125 741.9700927734375 570.0980834960938 751.7703247070312 C 545.35400390625 761.7517700195312 519.4595947265625 769.4177856445312 493.1343078613281 774.555419921875 C 479.751708984375 777.1671142578125 466.0544128417969 779.1608276367188 452.4230041503906 780.4810791015625 C 438.59130859375 781.8206787109375 424.4863891601562 782.5 410.5 782.5 Z" stroke="none"/>
      <path d="M 410.5 1 C 396.5296936035156 1 382.4408874511719 1.67852783203125 368.6252136230469 3.0166015625 C 355.0097045898438 4.3353271484375 341.3283996582031 6.32672119140625 327.9614868164062 8.9354248046875 C 301.6672973632812 14.06689453125 275.8037109375 21.72381591796875 251.0889892578125 31.69342041015625 C 226.823486328125 41.4818115234375 203.4194946289062 53.59710693359375 181.5272216796875 67.70269775390625 C 159.8433837890625 81.67388916015625 139.4531860351562 97.71868896484375 120.9227905273438 115.3912963867188 C 102.393310546875 133.0631713867188 85.5709228515625 152.5084228515625 70.9229736328125 173.1867065429688 C 56.1353759765625 194.0620727539062 43.43450927734375 216.3784790039062 33.17327880859375 239.5159301757812 C 27.988525390625 251.206787109375 23.35650634765625 263.2764892578125 19.406005859375 275.389892578125 C 15.41082763671875 287.6401977539062 12.0166015625 300.2297973632812 9.317626953125 312.8088989257812 C 6.58331298828125 325.5528869628906 4.4959716796875 338.5964050292969 3.11370849609375 351.5773010253906 C 1.711181640625 364.7489929199219 1 378.180908203125 1 391.5 C 1 404.819091796875 1.711181640625 418.2510070800781 3.11370849609375 431.4226989746094 C 4.4959716796875 444.4035949707031 6.58331298828125 457.4471130371094 9.317626953125 470.1911010742188 C 12.0166015625 482.7702026367188 15.41082763671875 495.3598022460938 19.406005859375 507.610107421875 C 23.35650634765625 519.7235107421875 27.988525390625 531.793212890625 33.17327880859375 543.484130859375 C 43.43450927734375 566.6215209960938 56.1353759765625 588.9378662109375 70.9229736328125 609.8132934570312 C 85.5709228515625 630.4915771484375 102.393310546875 649.936767578125 120.9227905273438 667.6087036132812 C 139.4531860351562 685.2813110351562 159.8433837890625 701.3261108398438 181.5272216796875 715.2973022460938 C 203.4194946289062 729.4028930664062 226.823486328125 741.5181884765625 251.0889892578125 751.3065795898438 C 275.8037109375 761.2761840820312 301.6672973632812 768.93310546875 327.9614868164062 774.0645751953125 C 341.3283996582031 776.6732788085938 355.0097045898438 778.6646728515625 368.6252136230469 779.9833984375 C 382.4408874511719 781.3214721679688 396.5296936035156 782 410.5 782 C 424.4703063964844 782 438.5591125488281 781.3214721679688 452.3747863769531 779.9833984375 C 465.9902954101562 778.6646728515625 479.6716003417969 776.6732788085938 493.0385131835938 774.0645751953125 C 519.3327026367188 768.93310546875 545.1962890625 761.2761840820312 569.9110107421875 751.3065795898438 C 594.176513671875 741.5181884765625 617.5805053710938 729.4028930664062 639.4727783203125 715.2973022460938 C 661.1566162109375 701.3261108398438 681.5468139648438 685.2813110351562 700.0772094726562 667.6087036132812 C 718.606689453125 649.936767578125 735.4290771484375 630.4915771484375 750.0770263671875 609.8132934570312 C 764.8646240234375 588.9378662109375 777.5654907226562 566.6215209960938 787.8267211914062 543.484130859375 C 793.011474609375 531.793212890625 797.6434936523438 519.7235107421875 801.593994140625 507.610107421875 C 805.5891723632812 495.3598022460938 808.9833984375 482.7702026367188 811.682373046875 470.1911010742188 C 814.4166870117188 457.4471130371094 816.5040283203125 444.4035949707031 817.8862915039062 431.4226989746094 C 819.288818359375 418.2510070800781 820 404.819091796875 820 391.5 C 820 378.180908203125 819.288818359375 364.7489929199219 817.8862915039062 351.5773010253906 C 816.5040283203125 338.5964050292969 814.4166870117188 325.5528869628906 811.682373046875 312.8088989257812 C 808.9833984375 300.2297973632812 805.5891723632812 287.6401977539062 801.593994140625 275.389892578125 C 797.6434936523438 263.2764892578125 793.011474609375 251.206787109375 787.8267211914062 239.5159301757812 C 777.5654907226562 216.3784790039062 764.8646240234375 194.0620727539062 750.0770263671875 173.1867065429688 C 735.4290771484375 152.5084228515625 718.606689453125 133.0631713867188 700.0772094726562 115.3912963867188 C 681.5468139648438 97.71868896484375 661.1566162109375 81.67388916015625 639.4727783203125 67.70269775390625 C 617.5805053710938 53.59710693359375 594.176513671875 41.4818115234375 569.9110107421875 31.69342041015625 C 545.1962890625 21.72381591796875 519.3327026367188 14.06689453125 493.0385131835938 8.9354248046875 C 479.6716003417969 6.32672119140625 465.9902954101562 4.3353271484375 452.3747863769531 3.0166015625 C 438.5591125488281 1.67852783203125 424.4703063964844 1 410.5 1 M 410.5 0 C 637.212890625 0 821 175.280517578125 821 391.5 C 821 607.719482421875 637.212890625 783 410.5 783 C 183.787109375 783 0 607.719482421875 0 391.5 C 0 175.280517578125 183.787109375 0 410.5 0 Z" stroke="none" fill="#60d1fc"/>
    </g>
    <text id="If_your_device_is_connected_to_the_internet_your_internet_service_provider_can_see_everything_you_do._Every_search._Every_file_you_download._Everything._To_protect_their_privacy_more_people_are_using_virtual_private_networks_or_VPN_for_short_to_stop_co" data-name="If your device is connected to the internet, your internet service provider can see everything you do. Every search. Every file you download. Everything. To protect their privacy, more people are using virtual private networks, or VPN for short, to stop co" transform="translate(242 1194)" fill="#e9f9ff" font-size="20" font-family="Tahoma"><tspan x="0" y="20">If your device is connected to the internet, your internet service provider can </tspan><tspan x="0" y="44">see everything you do. Every search. Every file you download. Everything. </tspan><tspan x="0" y="68">To protect their privacy, more people are using virtual private networks, or </tspan><tspan x="0" y="92">VPN for short, to stop companies from tracking what they do online.</tspan><tspan x="0" y="116"></tspan><tspan x="0" y="140">To help put an end to the misinformation surrounding VPN, we&apos;ll explain </tspan><tspan x="0" y="164">what a VPN is, how it works, why you need one, and what a VPN can do for </tspan><tspan x="0" y="188">you.</tspan></text>
    <text id="A_VPN_is_an_app_that_keeps_your_internet_connection_private_whether_you_re_connecting_to_unsafe_public_Wi-Fi_or_your_network_at_home._Having_a_layer_of_security_that_blocks_people_from_watching_you_browse_helps_keep_you_safe_online_no_matter_where_you_co" data-name="A VPN is an app that keeps your internet connection private, whether you&apos;re connecting to unsafe public Wi-Fi or your network at home. Having a layer of security that blocks people from watching you browse helps keep you safe online, no matter where you co" transform="translate(960 1395)" fill="#e9f9ff" font-size="20" font-family="SegoeUI, Segoe UI"><tspan x="0" y="22">A VPN is an app that keeps your internet connection private, whether you&apos;re </tspan><tspan x="0" y="49">connecting to unsafe public Wi-Fi or your network at home. Having a layer of </tspan><tspan x="0" y="76">security that blocks people from watching you browse helps keep you safe </tspan><tspan x="0" y="103">online, no matter where you connect from.</tspan><tspan x="0" y="130"></tspan><tspan x="0" y="157">Virtual private networks protect you by creating an encrypted &quot;tunnel&quot; that all of </tspan><tspan x="0" y="184">your device&apos;s data travels through on its way to the internet. Encryption turns </tspan><tspan x="0" y="211">words and data, like text files, into a secret code. If someone tries to read </tspan><tspan x="0" y="238">encrypted data without the password, they&apos;ll see random gibberish.</tspan></text>
    <text id="Why_do_I_need_a_VPN_The_reasons_why_you_need_a_VPN_are_personal_and_a_little_different_for_everyone._Some_people_use_VPN_to_bypass_app_restrictions_and_stay_in_touch_with_loved_ones_while_traveling_in_heavily_censored_countries._Other_people_use_VPN_to_" data-name="Why do I need a VPN?

The reasons why you need a VPN are personal, and a little different for everyone. Some people use VPN to bypass app restrictions and stay in touch with loved ones while traveling in heavily censored countries. Other people use VPN to " transform="translate(584 2024)" fill="#e9f9ff" font-size="33" font-family="SegoeUI, Segoe UI"><tspan x="218.958" y="36">Why do I need a VPN?</tspan><tspan x="382" y="80"></tspan><tspan font-size="20"><tspan x="25.94" y="110">The reasons why you need a VPN are personal, and a little different for everyone. </tspan><tspan x="17.684" y="137">Some people use VPN to bypass app restrictions and stay in touch with loved ones </tspan><tspan x="6.609" y="164">while traveling in heavily censored countries. Other people use VPN to stay secure on </tspan><tspan x="13.475" y="191">public Wi-Fi. Some people, just like knowing their internet service provider can&apos;t see </tspan><tspan x="167.186" y="218">what they&apos;re browsing every time they go online.</tspan></tspan></text>
    <g id="Rectangle_59" data-name="Rectangle 59" transform="translate(0 2883)" fill="#e9ebeb" stroke="#e9ebeb" stroke-width="1">
      <rect width="1920" height="438" stroke="none"/>
      <rect x="0.5" y="0.5" width="1919" height="437" fill="none"/>
    </g>
  </g>
</svg>
