<svg xmlns="http://www.w3.org/2000/svg" xmlns:xlink="http://www.w3.org/1999/xlink" width="1920" height="3321" viewBox="0 0 1920 3321">
  <defs>
    <linearGradient id="linear-gradient" x1="0.729" y1="0.429" x2="-0.582" y2="-0.153" gradientUnits="objectBoundingBox">
      <stop offset="0" stop-color="#fff" stop-opacity="0.529"/>
      <stop offset="1" stop-color="gray"/>
    </linearGradient>
    <filter id="Path_43" x="901.9" y="406.467" width="316.592" height="190.101" filterUnits="userSpaceOnUse">
      <feOffset dy="3" input="SourceAlpha"/>
      <feGaussianBlur stdDeviation="3" result="blur"/>
      <feFlood flood-color="#d2c0c0" flood-opacity="0.769"/>
      <feComposite operator="in" in2="blur"/>
      <feComposite in="SourceGraphic"/>
    </filter>
    <filter id="Path_43-2" x="901.9" y="406.467" width="316.592" height="190.101" filterUnits="userSpaceOnUse">
      <feOffset dy="3" input="SourceAlpha"/>
      <feGaussianBlur stdDeviation="3" result="blur-2"/>
      <feFlood flood-color="#dfd6d6" flood-opacity="0.161" result="color"/>
      <feComposite operator="out" in="SourceGraphic" in2="blur-2"/>
      <feComposite operator="in" in="color"/>
      <feComposite operator="in" in2="SourceGraphic"/>
    </filter>
    <clipPath id="clip-path">
      <rect width="16.046" height="119.83" fill="none"/>
    </clipPath>
    <clipPath id="clip-path-2">
      <rect width="46.243" height="35.462" fill="none"/>
    </clipPath>
    <clipPath id="clip-path-3">
      <rect width="22.861" height="170.715" fill="none"/>
    </clipPath>
    <clipPath id="clip-path-4">
      <rect width="65.88" height="50.521" fill="none"/>
    </clipPath>
    <filter id="Rectangle_51" x="44" y="1121" width="757" height="205" filterUnits="userSpaceOnUse">
      <feOffset dy="3" input="SourceAlpha"/>
      <feGaussianBlur stdDeviation="3" result="blur-3"/>
      <feFlood flood-opacity="0.569"/>
      <feComposite operator="in" in2="blur-3"/>
    </filter>
    <filter id="Rectangle_51-2" x="44" y="1121" width="757" height="205" filterUnits="userSpaceOnUse">
      <feOffset dy="3" input="SourceAlpha"/>
      <feGaussianBlur stdDeviation="3" result="blur-4"/>
      <feFlood flood-opacity="0.478" result="color-2"/>
      <feComposite operator="out" in="SourceGraphic" in2="blur-4"/>
      <feComposite operator="in" in="color-2"/>
      <feComposite operator="in" in2="SourceGraphic"/>
    </filter>
    <clipPath id="clip-Home_8">
      <rect width="1920" height="3321"/>
    </clipPath>
  </defs>
  <g id="Home_8" data-name="Home – 8" clip-path="url(#clip-Home_8)">
    <rect width="1920" height="3321" fill="#fff"/>
    <g data-type="innerShadowGroup">
      <g transform="matrix(1, 0, 0, 1, 0, 0)" filter="url(#Path_43)">
        <path id="Path_43-3" data-name="Path 43" d="M579.846,754.292c278.059-1.751,298.591,0,298.591,0v-172.1H682.505" transform="translate(331.05 -169.72)" fill="url(#linear-gradient)"/>
      </g>
      <g transform="matrix(1, 0, 0, 1, 0, 0)" filter="url(#Path_43-2)">
        <path id="Path_43-4" data-name="Path 43" d="M579.846,754.292c278.059-1.751,298.591,0,298.591,0v-172.1H682.505" transform="translate(331.05 -169.72)" fill="#fff"/>
      </g>
    </g>
    <path id="Path_22" data-name="Path 22" d="M0,0,120.843,27.8l28.819,117.134L31.956,118.161Z" transform="translate(700.507 311.507) rotate(-45)" fill="#6bd3fb" stroke="#60d1fc" stroke-width="1"/>
    <g id="Path_26" data-name="Path 26" transform="translate(703.077 439.053) rotate(-45)" fill="#16befe">
      <path d="M 145.0400543212891 145.0444488525391 L 30.91876220703125 118.434684753418 L 0.6907734274864197 0.6800134778022766 L 117.0937423706055 28.62157440185547 L 145.0400543212891 145.0444488525391 Z" stroke="none"/>
      <path d="M 1.381561279296875 1.36004638671875 L 31.32765197753906 118.0166168212891 L 144.3648071289062 144.3735961914062 L 116.679069519043 29.03623199462891 L 1.381561279296875 1.36004638671875 M 0 0 L 117.5084075927734 28.20690155029297 L 145.7152862548828 145.7153167724609 L 30.50986480712891 118.8527603149414 L 0 0 Z" stroke="none" fill="#16befe"/>
    </g>
    <path id="Path_27" data-name="Path 27" d="M366.368,444.622l2.881,127.7,104.479,62.215-1.536-128.86Z" transform="translate(334.138 -133.141)" fill="#04b4f6" stroke="#16befe" stroke-width="1"/>
    <path id="Path_36" data-name="Path 36" d="M366.368,444.622l.148,6.584,5.386,3.208-.079-6.643Z" transform="translate(343.163 -113.5)" fill="#e9f9ff" stroke="#e9f9ff" stroke-width="1"/>
    <path id="Path_37" data-name="Path 37" d="M366.368,444.622l.148,6.584,5.386,3.208-.079-6.643Z" transform="translate(343.163 -113.5)" fill="#e9f9ff" stroke="#e9f9ff" stroke-width="1"/>
    <g id="Repeat_Grid_3" data-name="Repeat Grid 3" transform="translate(775.849 367.653)" clip-path="url(#clip-path)">
      <g transform="translate(-853.715 -506.336)">
        <path id="Path_16" data-name="Path 16" d="M366.368,444.622l.212,9.38L388.2,466.585l-.113-9.465Z" transform="translate(487.867 62.591)" fill="#16fe92" stroke="#16fe92" stroke-width="1"/>
      </g>
      <g transform="translate(-853.715 -477.336)">
        <path id="Path_16-2" data-name="Path 16" d="M366.368,444.622l.212,9.38L388.2,466.585l-.113-9.465Z" transform="translate(487.867 62.591)" fill="#16fe92" stroke="#16fe92" stroke-width="1"/>
      </g>
      <g transform="translate(-853.715 -448.336)">
        <path id="Path_16-3" data-name="Path 16" d="M366.368,444.622l.212,9.38L388.2,466.585l-.113-9.465Z" transform="translate(487.867 62.591)" fill="#16fe92" stroke="#16fe92" stroke-width="1"/>
      </g>
      <g transform="translate(-853.715 -419.336)">
        <path id="Path_16-4" data-name="Path 16" d="M366.368,444.622l.212,9.38L388.2,466.585l-.113-9.465Z" transform="translate(487.867 62.591)" fill="#16fe92" stroke="#16fe92" stroke-width="1"/>
      </g>
      <g transform="translate(-853.715 -390.336)">
        <path id="Path_16-5" data-name="Path 16" d="M366.368,444.622l.212,9.38L388.2,466.585l-.113-9.465Z" transform="translate(487.867 62.591)" fill="#16fe92" stroke="#16fe92" stroke-width="1"/>
      </g>
    </g>
    <path id="Path_28" data-name="Path 28" d="M0,0,.148,6.584,44.921,33.42l-.079-6.643Z" transform="matrix(1, 0.017, -0.017, 1, 721.202, 336.415)" fill="#0555bc" stroke="#0555bc" stroke-width="1"/>
    <g id="Repeat_Grid_4" data-name="Repeat Grid 4" transform="translate(719.9 355.433)" clip-path="url(#clip-path-2)">
      <g transform="translate(-774.007 -488.927)">
        <path id="Path_15" data-name="Path 15" d="M366.368,444.622l.21,9.38,63.787,38.232-.112-9.465Z" transform="matrix(1, 0.017, -0.017, 1, 416.821, 38.88)" fill="#0555bc" stroke="#0555bc" stroke-width="1"/>
      </g>
    </g>
    <path id="Path_29" data-name="Path 29" d="M0,0,.148,6.584,44.921,33.42l-.079-6.643Z" transform="matrix(1, 0.017, -0.017, 1, 720.516, 375.717)" fill="#0555bc" stroke="#0555bc" stroke-width="1"/>
    <path id="Path_30" data-name="Path 30" d="M0,0,.148,6.584,44.921,33.42l-.079-6.643Z" transform="matrix(1, 0.017, -0.017, 1, 720.173, 395.367)" fill="#0555bc" stroke="#0555bc" stroke-width="1"/>
    <path id="Path_31" data-name="Path 31" d="M0,0,.148,6.584,44.921,33.42l-.079-6.643Z" transform="matrix(1, 0.017, -0.017, 1, 719.83, 415.018)" fill="#0555bc" stroke="#0555bc" stroke-width="1"/>
    <path id="Path_32" data-name="Path 32" d="M0,0,.148,6.584,44.921,33.42l-.079-6.643Z" transform="matrix(1, 0.017, -0.017, 1, 719.487, 434.669)" fill="#0555bc" stroke="#0555bc" stroke-width="1"/>
    <path id="Path_38" data-name="Path 38" d="M366.368,444.622l.148,6.584,5.386,3.208-.079-6.643Z" transform="translate(343.163 -93.846)" fill="#e9f9ff" stroke="#e9f9ff" stroke-width="1"/>
    <path id="Path_39" data-name="Path 39" d="M366.368,444.622l.148,6.584,5.386,3.208-.079-6.643Z" transform="translate(343.163 -74.192)" fill="#e9f9ff" stroke="#e9f9ff" stroke-width="1"/>
    <path id="Path_40" data-name="Path 40" d="M366.368,444.622l.148,6.584,5.386,3.208-.079-6.643Z" transform="translate(343.163 -54.538)" fill="#e9f9ff" stroke="#e9f9ff" stroke-width="1"/>
    <path id="Path_41" data-name="Path 41" d="M366.368,444.622l.148,6.584,5.386,3.208-.079-6.643Z" transform="translate(343.163 -34.884)" fill="#e9f9ff" stroke="#e9f9ff" stroke-width="1"/>
    <path id="Path_42" data-name="Path 42" d="M366.368,444.622l.148,6.584,5.386,3.208-.079-6.643Z" transform="translate(343.163 -15.231)" fill="#e9f9ff" stroke="#e9f9ff" stroke-width="1"/>
    <path id="Path_23" data-name="Path 23" d="M618.1,439.749v130.8l-99.969,62.318-1.623-128.856Z" transform="translate(289.962 -131.47)" fill="#0a53a7" stroke="#1891bf" stroke-width="1"/>
    <path id="Path_24" data-name="Path 24" d="M483.878,470.831V460.56l36.638-20.812.223,9.994Z" transform="translate(370.92 -104.515)" fill="#16fe92" stroke="#16fe92" stroke-width="1"/>
    <path id="Path_25" data-name="Path 25" d="M497.6,453.306v-8.978l7.062-4.579.1,8.844Z" transform="translate(398.129 -110.601)" fill="#e9f9ff" stroke="#e9f9ff" stroke-width="1"/>
    <g id="Ellipse_2" data-name="Ellipse 2" transform="translate(835.713 381.456)" fill="rgba(4,31,93,0.97)" stroke="#041f5d" stroke-width="1">
      <ellipse cx="23.164" cy="28.779" rx="23.164" ry="28.779" stroke="none"/>
      <ellipse cx="23.164" cy="28.779" rx="22.664" ry="28.279" fill="none"/>
    </g>
    <path id="Path_33" data-name="Path 33" d="M525.706,587.314h0" transform="translate(331.56 -182.475)" fill="none" stroke="#11aef3" stroke-width="4" stroke-dasharray="14 12"/>
    <path id="Path_21" data-name="Path 21" d="M525.706,587.314h0" transform="translate(138.294 -353.7)" fill="none" stroke="#11aef3" stroke-width="4" stroke-dasharray="14 12"/>
    <text id="Shield" transform="translate(80 60)" font-size="33" font-family="Tahoma-Bold, Tahoma" font-weight="700"><tspan x="0" y="0">Shield</tspan></text>
    <text id="Plans" transform="translate(1389 75)" font-size="23" font-family="Tahoma"><tspan x="0" y="0">Plans</tspan></text>
    <path id="Path_3" data-name="Path 3" d="M-1.116.445l172.16,39.612L212.1,206.932,44.41,168.784Z" transform="translate(757.424 310.202) rotate(-45)" fill="#6bd3fb" stroke="#60d1fc" stroke-width="1"/>
    <g id="Path_4" data-name="Path 4" transform="translate(760.611 493.015) rotate(-45)" fill="#16befe">
      <path d="M 206.9182434082031 206.9226531982422 L 43.87480545043945 168.9056701660156 L 0.6907711625099182 0.6800088882446289 L 166.9938507080078 40.59968566894531 L 206.9182434082031 206.9226531982422 Z" stroke="none"/>
      <path d="M 1.381561279296875 1.360031127929688 L 44.28372192382812 168.4876251220703 L 206.2430114746094 206.2518157958984 L 166.5791778564453 41.01432800292969 L 1.381561279296875 1.360031127929688 M 1.52587890625e-05 0 L 167.4085083007812 40.18499755859375 L 207.5934753417969 207.5935211181641 L 43.46592712402344 169.3237609863281 L 1.52587890625e-05 0 Z" stroke="none" fill="#16befe"/>
    </g>
    <path id="Path_5" data-name="Path 5" d="M366.368,444.622l4.1,181.935,148.846,88.635L517.129,531.61Z" transform="translate(390.581 -133.353)" fill="#04b4f6" stroke="#16befe" stroke-width="1"/>
    <path id="Path_8" data-name="Path 8" d="M366.368,444.622l.212,9.38,7.674,4.57-.113-9.465Z" transform="translate(403.438 -105.372)" fill="#e9f9ff" stroke="#e9f9ff" stroke-width="1"/>
    <path id="Path_14" data-name="Path 14" d="M366.368,444.622l.212,9.38,7.674,4.57-.113-9.465Z" transform="translate(403.438 -105.372)" fill="#e9f9ff" stroke="#e9f9ff" stroke-width="1"/>
    <g id="Repeat_Grid_2" data-name="Repeat Grid 2" transform="translate(864.286 391.295)" clip-path="url(#clip-path-3)">
      <g transform="translate(-853.715 -506.336)">
        <path id="Path_16-6" data-name="Path 16" d="M366.368,444.622l.212,9.38L388.2,466.585l-.113-9.465Z" transform="translate(487.867 62.591)" fill="#16fe92" stroke="#16fe92" stroke-width="1"/>
      </g>
      <g transform="translate(-853.715 -477.336)">
        <path id="Path_16-7" data-name="Path 16" d="M366.368,444.622l.212,9.38L388.2,466.585l-.113-9.465Z" transform="translate(487.867 62.591)" fill="#16fe92" stroke="#16fe92" stroke-width="1"/>
      </g>
      <g transform="translate(-853.715 -448.336)">
        <path id="Path_16-8" data-name="Path 16" d="M366.368,444.622l.212,9.38L388.2,466.585l-.113-9.465Z" transform="translate(487.867 62.591)" fill="#16fe92" stroke="#16fe92" stroke-width="1"/>
      </g>
      <g transform="translate(-853.715 -419.336)">
        <path id="Path_16-9" data-name="Path 16" d="M366.368,444.622l.212,9.38L388.2,466.585l-.113-9.465Z" transform="translate(487.867 62.591)" fill="#16fe92" stroke="#16fe92" stroke-width="1"/>
      </g>
      <g transform="translate(-853.715 -390.336)">
        <path id="Path_16-10" data-name="Path 16" d="M366.368,444.622l.212,9.38L388.2,466.585l-.113-9.465Z" transform="translate(487.867 62.591)" fill="#16fe92" stroke="#16fe92" stroke-width="1"/>
      </g>
      <g transform="translate(-853.715 -361.336)">
        <path id="Path_16-11" data-name="Path 16" d="M366.368,444.622l.212,9.38L388.2,466.585l-.113-9.465Z" transform="translate(487.867 62.591)" fill="#16fe92" stroke="#16fe92" stroke-width="1"/>
      </g>
    </g>
    <path id="Path_15-2" data-name="Path 15" d="M366.368,444.622l.21,9.38,63.787,38.232-.112-9.465Z" transform="matrix(1, 0.017, -0.017, 1, 427.88, -104.157)" fill="#0555bc" stroke="#0555bc" stroke-width="1"/>
    <g id="Repeat_Grid_1" data-name="Repeat Grid 1" transform="translate(784.578 373.885)" clip-path="url(#clip-path-4)">
      <g transform="translate(-774.007 -488.927)">
        <path id="Path_15-3" data-name="Path 15" d="M366.368,444.622l.21,9.38,63.787,38.232-.112-9.465Z" transform="matrix(1, 0.017, -0.017, 1, 416.821, 38.88)" fill="#0555bc" stroke="#0555bc" stroke-width="1"/>
      </g>
    </g>
    <path id="Path_15-4" data-name="Path 15" d="M366.368,444.622l.21,9.38,63.787,38.232-.112-9.465Z" transform="matrix(1, 0.017, -0.017, 1, 426.903, -48.166)" fill="#0555bc" stroke="#0555bc" stroke-width="1"/>
    <path id="Path_15-5" data-name="Path 15" d="M366.368,444.622l.21,9.38,63.787,38.232-.112-9.465Z" transform="matrix(1, 0.017, -0.017, 1, 426.414, -20.17)" fill="#0555bc" stroke="#0555bc" stroke-width="1"/>
    <path id="Path_15-6" data-name="Path 15" d="M366.368,444.622l.21,9.38,63.787,38.232-.112-9.465Z" transform="matrix(1, 0.017, -0.017, 1, 425.926, 7.826)" fill="#0555bc" stroke="#0555bc" stroke-width="1"/>
    <path id="Path_15-7" data-name="Path 15" d="M366.368,444.622l.21,9.38,63.787,38.232-.112-9.465Z" transform="matrix(1, 0.017, -0.017, 1, 425.437, 35.822)" fill="#0555bc" stroke="#0555bc" stroke-width="1"/>
    <path id="Path_9" data-name="Path 9" d="M366.368,444.622l.212,9.38,7.674,4.57-.113-9.465Z" transform="translate(403.438 -77.372)" fill="#e9f9ff" stroke="#e9f9ff" stroke-width="1"/>
    <path id="Path_10" data-name="Path 10" d="M366.368,444.622l.212,9.38,7.674,4.57-.113-9.465Z" transform="translate(403.438 -49.372)" fill="#e9f9ff" stroke="#e9f9ff" stroke-width="1"/>
    <path id="Path_11" data-name="Path 11" d="M366.368,444.622l.212,9.38,7.674,4.57-.113-9.465Z" transform="translate(403.438 -21.372)" fill="#e9f9ff" stroke="#e9f9ff" stroke-width="1"/>
    <path id="Path_12" data-name="Path 12" d="M366.368,444.622l.212,9.38,7.674,4.57-.113-9.465Z" transform="translate(403.438 6.628)" fill="#e9f9ff" stroke="#e9f9ff" stroke-width="1"/>
    <path id="Path_13" data-name="Path 13" d="M366.368,444.622l.212,9.38,7.674,4.57-.113-9.465Z" transform="translate(403.438 34.628)" fill="#e9f9ff" stroke="#e9f9ff" stroke-width="1"/>
    <path id="Path_6" data-name="Path 6" d="M661.241,439.749V626.1L518.82,714.88,516.508,531.3Z" transform="translate(391.402 -133.042)" fill="#0a53a7" stroke="#1891bf" stroke-width="1"/>
    <path id="Path_17" data-name="Path 17" d="M483.878,484.031V469.4l52.2-29.649.318,14.238Z" transform="translate(492.883 -94.64)" fill="#16fe92" stroke="#16fe92" stroke-width="1"/>
    <path id="Path_18" data-name="Path 18" d="M497.6,459.063v-12.79l10.061-6.524.145,12.6Z" transform="translate(537.472 -103.311)" fill="#e9f9ff" stroke="#e9f9ff" stroke-width="1"/>
    <g id="Ellipse_1" data-name="Ellipse 1" transform="translate(949.571 410.958)" fill="rgba(4,31,93,0.97)" stroke="#041f5d" stroke-width="1">
      <ellipse cx="33" cy="41" rx="33" ry="41" stroke="none"/>
      <ellipse cx="33" cy="41" rx="32.5" ry="40.5" fill="none"/>
    </g>
    <path id="Path_19" data-name="Path 19" d="M525.706,587.314h0" transform="translate(454.571 -143.042)" fill="none" stroke="#11aef3" stroke-width="4" stroke-dasharray="14 12"/>
    <path id="Path_20" data-name="Path 20" d="M525.706,587.314h0" transform="translate(454.571 -143.042)" fill="none" stroke="#11aef3" stroke-width="4" stroke-dasharray="14 12"/>
    <g id="Path_44" data-name="Path 44" transform="translate(187.56 19)" fill="#041f5d">
      <path d="M 15.41841125488281 38.54170227050781 C 15.10329055786133 38.54170227050781 14.1276912689209 38.3604621887207 11.87995052337646 36.68170166015625 C 10.34252071380615 35.53345108032227 8.537060737609863 33.92460250854492 6.796180725097656 32.15153121948242 C 3.089080810546875 28.37588119506836 0.5000008344650269 24.72113037109375 0.5000008344650269 23.26382064819336 L 0.5000008344650269 6.513871192932129 C 0.5000008344650269 3.270471334457397 2.916566848754883 0.6185274720191956 5.92783260345459 0.5038678050041199 L 15.06477069854736 9.645371437072754 L 15.42191123962402 10.00268077850342 L 15.77551078796387 9.641871452331543 L 24.73078155517578 0.5039775371551514 C 27.74073791503906 0.620184063911438 30.15576171875 3.271483421325684 30.15576171875 6.513871192932129 L 30.15576171875 23.26382064819336 C 30.15576171875 24.72566032409668 27.60295104980469 28.38139152526855 23.94779014587402 32.15390014648438 C 22.22889137268066 33.9279899597168 20.44564056396484 35.53654098510742 18.92654037475586 36.68324279785156 C 16.70441055297852 38.36061096191406 15.73294067382812 38.54170227050781 15.41841125488281 38.54170227050781 Z" stroke="none"/>
      <path d="M 5.73320198059082 1.01641845703125 C 3.089033126831055 1.23529052734375 1 3.617328643798828 1 6.513870239257812 L 1 23.26382064819336 C 1 24.36459159851074 3.156461715698242 27.7308406829834 7.152961730957031 31.80123138427734 C 8.876520156860352 33.55665969848633 10.66152000427246 35.14764022827148 12.17915153503418 36.28110122680664 C 14.42282104492188 37.95682144165039 15.27114105224609 38.04170227050781 15.41841125488281 38.04170227050781 C 15.56512069702148 38.04170227050781 16.40924072265625 37.95697021484375 18.62530136108398 36.28417205810547 C 20.12446975708008 35.15251159667969 21.88718032836914 33.56212997436523 23.58870124816895 31.80598068237305 C 27.52939987182617 27.73876190185547 29.65576171875 24.36926078796387 29.65576171875 23.26382064819336 L 29.65576171875 6.513870239257812 C 29.65576171875 3.619369506835938 27.56972312927246 1.238651275634766 24.92819786071777 1.016887664794922 L 15.42541122436523 10.71347045898438 L 5.73320198059082 1.01641845703125 M 6.13115119934082 0 L 15.41841125488281 9.291900634765625 L 24.52461051940918 0 C 27.91075134277344 0 30.65576171875 2.916362762451172 30.65576171875 6.513870239257812 L 30.65576171875 23.26382064819336 C 30.65576171875 26.86133193969727 18.80455017089844 39.04170227050781 15.41841125488281 39.04170227050781 C 12.03227043151855 39.04170227050781 0 26.86133193969727 0 23.26382064819336 L 0 6.513870239257812 C 0 2.916362762451172 2.745010375976562 0 6.13115119934082 0 Z" stroke="none" fill="#041f5d"/>
    </g>
    <g id="Path_45" data-name="Path 45" transform="translate(190.215 24.127)" fill="#8cf6f3">
      <path d="M 12.40256690979004 29.23096466064453 C 11.02923202514648 28.80311584472656 8.234787940979004 26.4760627746582 5.367329120635986 23.362060546875 C 2.171889305114746 19.89187049865723 0.4999992847442627 17.23802947998047 0.4999992847442627 16.41004943847656 L 0.4999992847442627 4.594810485839844 C 0.4999992847442627 2.391079902648926 2.454699516296387 0.5883632302284241 4.893377780914307 0.5031484365463257 L 12.43533897399902 6.934860229492188 L 12.76298904418945 7.21427059173584 L 13.08790969848633 6.931680202484131 L 20.47905921936035 0.5032445192337036 C 22.91646003723145 0.5897154808044434 24.86971855163574 2.39190673828125 24.86971855163574 4.594810485839844 L 24.86971855163574 16.41004943847656 C 24.86971855163574 17.22671127319336 23.10863876342773 19.87383079528809 19.74275970458984 23.35309982299805 C 16.72732162475586 26.47011756896973 13.81128692626953 28.8012580871582 12.40256690979004 29.23096466064453 Z" stroke="none"/>
      <path d="M 4.721109390258789 1.013359069824219 C 2.639318466186523 1.171703338623047 1 2.717521667480469 1 4.594810485839844 L 1 16.40988159179688 C 1.000059127807617 16.41564178466797 1.02134895324707 17.00667953491211 2.318248748779297 18.85647010803223 C 3.185409545898438 20.09331893920898 4.403059005737305 21.57769012451172 5.746910095214844 23.03614044189453 C 8.418525695800781 25.93558883666992 11.08406066894531 28.19648361206055 12.4043550491333 28.70316696166992 C 13.76167392730713 28.19631004333496 16.54265785217285 25.93668556213379 19.34846878051758 23.0415210723877 C 20.76272964477539 21.58222961425781 22.04538917541504 20.09949111938477 22.96018981933594 18.86642074584961 C 24.33506965637207 17.01322174072266 24.36896896362305 16.43249893188477 24.36971855163574 16.41004943847656 L 24.36971855163574 4.594810485839844 C 24.36971855163574 2.719095230102539 22.7332820892334 1.174304962158203 20.65397644042969 1.013771057128906 L 12.76619911193848 7.874139785766602 L 4.721109390258789 1.013359069824219 M 5.073938369750977 0 L 12.75977897644043 6.554410934448242 L 20.29576873779297 0 C 23.0980396270752 0 25.36971855163574 2.057170867919922 25.36971855163574 4.594810485839844 L 25.36971855163574 16.41004943847656 C 25.36971855163574 18.84902954101562 15.64553833007812 28.96645927429199 12.40144157409668 29.74949264526367 C 9.198232650756836 28.96645927429199 0 18.84902954101562 0 16.41004943847656 L 0 4.594810485839844 C 0 2.057170867919922 2.271678924560547 0 5.073938369750977 0 Z M 12.40144157409668 29.74949264526367 C 12.53101825714111 29.78116798400879 12.65082836151123 29.79758071899414 12.75977897644043 29.79758071899414 L 12.04058933258057 29.79758071899414 C 12.14953899383545 29.79758071899414 12.2702112197876 29.78116798400879 12.40144157409668 29.74949264526367 Z" stroke="none" fill="#041f5d"/>
    </g>
    <g id="Rectangle_1" data-name="Rectangle 1" transform="translate(198.811 38.778) rotate(-41)" fill="#fff" stroke="#fff9f9" stroke-width="1">
      <rect width="1" height="4" rx="0.5" stroke="none"/>
      <rect x="0.5" y="0.5" height="3" fill="none"/>
    </g>
    <g id="Rectangle_7" data-name="Rectangle 7" transform="translate(252.811 2731.3) rotate(-41)" fill="#fff" stroke="#fff9f9" stroke-width="1">
      <rect width="1" height="4" rx="0.5" stroke="none"/>
      <rect x="0.5" y="0.5" height="3" fill="none"/>
    </g>
    <g id="Rectangle_2" data-name="Rectangle 2" transform="translate(207.924 35.245) rotate(50)" fill="#fff" stroke="#fff3f3" stroke-width="1">
      <rect width="1" height="9" rx="0.5" stroke="none"/>
      <rect x="0.5" y="0.5" height="8" fill="none"/>
    </g>
    <g id="Rectangle_6" data-name="Rectangle 6" transform="translate(261.924 2727.768) rotate(50)" fill="#fff" stroke="#fff3f3" stroke-width="1">
      <rect width="1" height="9" rx="0.5" stroke="none"/>
      <rect x="0.5" y="0.5" height="8" fill="none"/>
    </g>
    <g id="Rectangle_5" data-name="Rectangle 5" transform="translate(1680 50)" fill="#0555bc" stroke="#0555bc" stroke-width="1">
      <rect width="164" height="31" rx="15.5" stroke="none"/>
      <rect x="0.5" y="0.5" width="163" height="30" rx="15" fill="none"/>
    </g>
    <text id="Try_it_free_for_7_days" data-name="Try it free for 7 days" transform="translate(1699 71)" fill="#e9f9ff" font-size="15" font-family="Tahoma"><tspan x="0" y="0">Try it free for 7 days</tspan></text>
    <text id="_" data-name="              " transform="translate(351 1506)" fill="#8c9595" font-size="13" font-family="Tahoma"><tspan x="0" y="0" xml:space="preserve">              </tspan></text>
    <g id="Rectangle_37" data-name="Rectangle 37" transform="matrix(0.788, 0.616, -0.616, 0.788, 1210.545, 1494)" fill="#fff" stroke="#fefefe" stroke-width="1">
      <rect width="8.192" height="2" rx="1" stroke="none"/>
      <rect x="0.5" y="0.5" width="7.192" height="1" rx="0.5" fill="none"/>
    </g>
    <g id="Rectangle_38" data-name="Rectangle 38" transform="matrix(0.819, -0.574, 0.574, 0.819, 1214.235, 1498.917)" fill="#fff" stroke="#fffefe" stroke-width="1">
      <rect width="20" height="2" rx="1" stroke="none"/>
      <rect x="0.5" y="0.5" width="19" height="1" rx="0.5" fill="none"/>
    </g>
    <rect id="Rectangle_39" data-name="Rectangle 39" width="9" height="2" rx="1" transform="matrix(0.809, 0.588, -0.588, 0.809, 1209.719, 1562)" fill="#fff"/>
    <g id="Rectangle_40" data-name="Rectangle 40" transform="matrix(0.819, -0.574, 0.574, 0.819, 1219, 1571.231)" fill="#fff" stroke="#fff" stroke-width="1">
      <rect width="23" height="2" rx="1" stroke="none"/>
      <rect x="0.5" y="0.5" width="22" height="1" rx="0.5" fill="none"/>
    </g>
    <g id="Rectangle_41" data-name="Rectangle 41" transform="matrix(0.799, 0.602, -0.602, 0.799, 1210.439, 1631.714)" fill="#fff" stroke="#fff" stroke-width="1">
      <rect width="10" height="2" rx="1" stroke="none"/>
      <rect x="0.5" y="0.5" width="9" height="1" rx="0.5" fill="none"/>
    </g>
    <g id="Rectangle_42" data-name="Rectangle 42" transform="matrix(0.819, -0.574, 0.574, 0.819, 1215.506, 1637.691)" fill="#fff" stroke="#fff" stroke-width="1">
      <rect width="23" height="2" rx="1" stroke="none"/>
      <rect x="0.5" y="0.5" width="22" height="1" rx="0.5" fill="none"/>
    </g>
    <text id="My_Account" data-name="My Account" transform="translate(1569 76)" fill="#0c0d0d" font-size="20" font-family="Tahoma"><tspan x="0" y="0">My Account</tspan></text>
    <g data-type="innerShadowGroup">
      <g transform="matrix(1, 0, 0, 1, 0, 0)" filter="url(#Rectangle_51)">
        <g id="Rectangle_51-3" data-name="Rectangle 51" transform="translate(53 1127)" fill="#0555bc" stroke="#0555bc" stroke-width="1">
          <rect width="739" height="187" rx="93.5" stroke="none"/>
          <rect x="0.5" y="0.5" width="738" height="186" rx="93" fill="none"/>
        </g>
      </g>
      <rect id="Rectangle_51-4" data-name="Rectangle 51" width="739" height="187" rx="93.5" transform="translate(53 1127)" fill="#0555bc"/>
      <g transform="matrix(1, 0, 0, 1, 0, 0)" filter="url(#Rectangle_51-2)">
        <rect id="Rectangle_51-5" data-name="Rectangle 51" width="739" height="187" rx="93.5" transform="translate(53 1127)" fill="#fff"/>
      </g>
      <g id="Rectangle_51-6" data-name="Rectangle 51" transform="translate(53 1127)" fill="none" stroke="#0555bc" stroke-width="1">
        <rect width="739" height="187" rx="93.5" stroke="none"/>
        <rect x="0.5" y="0.5" width="738" height="186" rx="93" fill="none"/>
      </g>
    </g>
    <text id="Try_it_free_for_7_days-2" data-name="Try it free for 7 days" transform="translate(217 1233)" fill="#e9f9ff" font-size="45" font-family="Tahoma"><tspan x="0" y="0">Try it free for 7 days</tspan></text>
    <text id="On-the-go_protection_for_your_entire_team_Shield_protects_your_team_from_security_threats_when_they_re_using_public_Wi-Fi." data-name="On-the-go
protection for your
entire team

Shield protects your team from security threats
when they&apos;re using public Wi-Fi." transform="translate(138 724)" fill="#24364d" font-size="70" font-family="Tahoma-Bold, Tahoma" font-weight="700"><tspan x="0" y="0">On-the-go</tspan><tspan x="0" y="84">protection for your</tspan><tspan x="0" y="168">entire team</tspan><tspan fill="#999c9c" font-size="45" font-family="Tahoma" font-weight="400"><tspan x="0" y="227"></tspan></tspan><tspan fill="#999c9c" font-size="20" font-family="Tahoma" font-weight="400"><tspan x="0" y="256">Shield protects your team from security threats</tspan><tspan x="0" y="280">when they&apos;re using public Wi-Fi.</tspan></tspan></text>
    <g id="Rectangle_52" data-name="Rectangle 52" transform="translate(0 2880)" fill="#e9ebeb" stroke="#e9ebeb" stroke-width="1">
      <rect width="1920" height="441" stroke="none"/>
      <rect x="0.5" y="0.5" width="1919" height="440" fill="none"/>
    </g>
    <g id="Path_64" data-name="Path 64" transform="translate(1329.694 881.137) rotate(-47)" fill="#60d1fc">
      <path d="M 144.3546752929688 153.5060119628906 L 34.65209579467773 115.6411972045898 L 0.7527272701263428 0.7840880751609802 L 105.6408538818359 36.45132446289062 L 144.3546752929688 153.5060119628906 Z" stroke="none"/>
      <path d="M 1.505477905273438 1.56817626953125 L 35.05873870849609 115.2526092529297 L 143.5626983642578 152.7037048339844 L 105.2442932128906 36.84458923339844 L 1.505477905273438 1.56817626953125 M 0 0 L 106.0374298095703 36.05805969238281 L 145.1466674804688 154.3083190917969 L 34.24547576904297 116.0298004150391 L 0 0 Z" stroke="none" fill="#60d1fc"/>
    </g>
    <g id="Path_90" data-name="Path 90" transform="translate(1536.694 881.131) rotate(-47)" fill="#60d1fc">
      <path d="M 144.3546752929688 153.5060119628906 L 34.65209579467773 115.6411972045898 L 0.7527272701263428 0.7840880751609802 L 105.6408538818359 36.45132446289062 L 144.3546752929688 153.5060119628906 Z" stroke="none"/>
      <path d="M 1.505477905273438 1.56817626953125 L 35.05873870849609 115.2526092529297 L 143.5626983642578 152.7037048339844 L 105.2442932128906 36.84458923339844 L 1.505477905273438 1.56817626953125 M 0 0 L 106.0374298095703 36.05805969238281 L 145.1466674804688 154.3083190917969 L 34.24547576904297 116.0298004150391 L 0 0 Z" stroke="none" fill="#60d1fc"/>
    </g>
    <g id="Path_126" data-name="Path 126" transform="translate(1436.755 635.381) rotate(-47)" fill="#60d1fc">
      <path d="M 144.3546752929688 153.5060119628906 L 34.65209579467773 115.6411972045898 L 0.7527272701263428 0.7840880751609802 L 105.6408538818359 36.45132446289062 L 144.3546752929688 153.5060119628906 Z" stroke="none"/>
      <path d="M 1.505477905273438 1.56817626953125 L 35.05873870849609 115.2526092529297 L 143.5626983642578 152.7037048339844 L 105.2442932128906 36.84458923339844 L 1.505477905273438 1.56817626953125 M 0 0 L 106.0374298095703 36.05805969238281 L 145.1466674804688 154.3083190917969 L 34.24547576904297 116.0298004150391 L 0 0 Z" stroke="none" fill="#60d1fc"/>
    </g>
    <g id="Path_108" data-name="Path 108" transform="translate(1536.694 881.131) rotate(-47)" fill="#60d1fc">
      <path d="M 144.3546752929688 153.5060119628906 L 34.65209579467773 115.6411972045898 L 0.7527272701263428 0.7840880751609802 L 105.6408538818359 36.45132446289062 L 144.3546752929688 153.5060119628906 Z" stroke="none"/>
      <path d="M 1.505477905273438 1.56817626953125 L 35.05873870849609 115.2526092529297 L 143.5626983642578 152.7037048339844 L 105.2442932128906 36.84458923339844 L 1.505477905273438 1.56817626953125 M 0 0 L 106.0374298095703 36.05805969238281 L 145.1466674804688 154.3083190917969 L 34.24547576904297 116.0298004150391 L 0 0 Z" stroke="none" fill="#60d1fc"/>
    </g>
    <g id="Path_144" data-name="Path 144" transform="translate(1436.755 635.381) rotate(-47)" fill="#60d1fc">
      <path d="M 144.3546752929688 153.5060119628906 L 34.65209579467773 115.6411972045898 L 0.7527272701263428 0.7840880751609802 L 105.6408538818359 36.45132446289062 L 144.3546752929688 153.5060119628906 Z" stroke="none"/>
      <path d="M 1.505477905273438 1.56817626953125 L 35.05873870849609 115.2526092529297 L 143.5626983642578 152.7037048339844 L 105.2442932128906 36.84458923339844 L 1.505477905273438 1.56817626953125 M 0 0 L 106.0374298095703 36.05805969238281 L 145.1466674804688 154.3083190917969 L 34.24547576904297 116.0298004150391 L 0 0 Z" stroke="none" fill="#60d1fc"/>
    </g>
    <g id="Path_84" data-name="Path 84" transform="translate(1329.694 881.137) rotate(-47)" fill="#60d1fc">
      <path d="M 144.3546752929688 153.5060119628906 L 34.65209579467773 115.6411972045898 L 0.7527272701263428 0.7840880751609802 L 105.6408538818359 36.45132446289062 L 144.3546752929688 153.5060119628906 Z" stroke="none"/>
      <path d="M 1.505477905273438 1.56817626953125 L 35.05873870849609 115.2526092529297 L 143.5626983642578 152.7037048339844 L 105.2442932128906 36.84458923339844 L 1.505477905273438 1.56817626953125 M 0 0 L 106.0374298095703 36.05805969238281 L 145.1466674804688 154.3083190917969 L 34.24547576904297 116.0298004150391 L 0 0 Z" stroke="none" fill="#60d1fc"/>
    </g>
    <g id="Path_91" data-name="Path 91" transform="translate(1536.694 881.131) rotate(-47)" fill="#60d1fc">
      <path d="M 144.3546752929688 153.5060119628906 L 34.65209579467773 115.6411972045898 L 0.7527272701263428 0.7840880751609802 L 105.6408538818359 36.45132446289062 L 144.3546752929688 153.5060119628906 Z" stroke="none"/>
      <path d="M 1.505477905273438 1.56817626953125 L 35.05873870849609 115.2526092529297 L 143.5626983642578 152.7037048339844 L 105.2442932128906 36.84458923339844 L 1.505477905273438 1.56817626953125 M 0 0 L 106.0374298095703 36.05805969238281 L 145.1466674804688 154.3083190917969 L 34.24547576904297 116.0298004150391 L 0 0 Z" stroke="none" fill="#60d1fc"/>
    </g>
    <g id="Path_127" data-name="Path 127" transform="translate(1436.755 635.381) rotate(-47)" fill="#60d1fc">
      <path d="M 144.3546752929688 153.5060119628906 L 34.65209579467773 115.6411972045898 L 0.7527272701263428 0.7840880751609802 L 105.6408538818359 36.45132446289062 L 144.3546752929688 153.5060119628906 Z" stroke="none"/>
      <path d="M 1.505477905273438 1.56817626953125 L 35.05873870849609 115.2526092529297 L 143.5626983642578 152.7037048339844 L 105.2442932128906 36.84458923339844 L 1.505477905273438 1.56817626953125 M 0 0 L 106.0374298095703 36.05805969238281 L 145.1466674804688 154.3083190917969 L 34.24547576904297 116.0298004150391 L 0 0 Z" stroke="none" fill="#60d1fc"/>
    </g>
    <g id="Path_109" data-name="Path 109" transform="translate(1536.694 881.131) rotate(-47)" fill="#60d1fc">
      <path d="M 144.3546752929688 153.5060119628906 L 34.65209579467773 115.6411972045898 L 0.7527272701263428 0.7840880751609802 L 105.6408538818359 36.45132446289062 L 144.3546752929688 153.5060119628906 Z" stroke="none"/>
      <path d="M 1.505477905273438 1.56817626953125 L 35.05873870849609 115.2526092529297 L 143.5626983642578 152.7037048339844 L 105.2442932128906 36.84458923339844 L 1.505477905273438 1.56817626953125 M 0 0 L 106.0374298095703 36.05805969238281 L 145.1466674804688 154.3083190917969 L 34.24547576904297 116.0298004150391 L 0 0 Z" stroke="none" fill="#60d1fc"/>
    </g>
    <g id="Path_145" data-name="Path 145" transform="translate(1436.755 635.381) rotate(-47)" fill="#60d1fc">
      <path d="M 144.3546752929688 153.5060119628906 L 34.65209579467773 115.6411972045898 L 0.7527272701263428 0.7840880751609802 L 105.6408538818359 36.45132446289062 L 144.3546752929688 153.5060119628906 Z" stroke="none"/>
      <path d="M 1.505477905273438 1.56817626953125 L 35.05873870849609 115.2526092529297 L 143.5626983642578 152.7037048339844 L 105.2442932128906 36.84458923339844 L 1.505477905273438 1.56817626953125 M 0 0 L 106.0374298095703 36.05805969238281 L 145.1466674804688 154.3083190917969 L 34.24547576904297 116.0298004150391 L 0 0 Z" stroke="none" fill="#60d1fc"/>
    </g>
    <g id="Path_78" data-name="Path 78" transform="translate(1329.694 881.137) rotate(-47)" fill="#60d1fc">
      <path d="M 144.3546752929688 153.5060119628906 L 34.65209579467773 115.6411972045898 L 0.7527272701263428 0.7840880751609802 L 105.6408538818359 36.45132446289062 L 144.3546752929688 153.5060119628906 Z" stroke="none"/>
      <path d="M 1.505477905273438 1.56817626953125 L 35.05873870849609 115.2526092529297 L 143.5626983642578 152.7037048339844 L 105.2442932128906 36.84458923339844 L 1.505477905273438 1.56817626953125 M 0 0 L 106.0374298095703 36.05805969238281 L 145.1466674804688 154.3083190917969 L 34.24547576904297 116.0298004150391 L 0 0 Z" stroke="none" fill="#60d1fc"/>
    </g>
    <g id="Path_92" data-name="Path 92" transform="translate(1536.694 881.131) rotate(-47)" fill="#60d1fc">
      <path d="M 144.3546752929688 153.5060119628906 L 34.65209579467773 115.6411972045898 L 0.7527272701263428 0.7840880751609802 L 105.6408538818359 36.45132446289062 L 144.3546752929688 153.5060119628906 Z" stroke="none"/>
      <path d="M 1.505477905273438 1.56817626953125 L 35.05873870849609 115.2526092529297 L 143.5626983642578 152.7037048339844 L 105.2442932128906 36.84458923339844 L 1.505477905273438 1.56817626953125 M 0 0 L 106.0374298095703 36.05805969238281 L 145.1466674804688 154.3083190917969 L 34.24547576904297 116.0298004150391 L 0 0 Z" stroke="none" fill="#60d1fc"/>
    </g>
    <g id="Path_128" data-name="Path 128" transform="translate(1436.755 635.381) rotate(-47)" fill="#60d1fc">
      <path d="M 144.3546752929688 153.5060119628906 L 34.65209579467773 115.6411972045898 L 0.7527272701263428 0.7840880751609802 L 105.6408538818359 36.45132446289062 L 144.3546752929688 153.5060119628906 Z" stroke="none"/>
      <path d="M 1.505477905273438 1.56817626953125 L 35.05873870849609 115.2526092529297 L 143.5626983642578 152.7037048339844 L 105.2442932128906 36.84458923339844 L 1.505477905273438 1.56817626953125 M 0 0 L 106.0374298095703 36.05805969238281 L 145.1466674804688 154.3083190917969 L 34.24547576904297 116.0298004150391 L 0 0 Z" stroke="none" fill="#60d1fc"/>
    </g>
    <g id="Path_110" data-name="Path 110" transform="translate(1536.694 881.131) rotate(-47)" fill="#60d1fc">
      <path d="M 144.3546752929688 153.5060119628906 L 34.65209579467773 115.6411972045898 L 0.7527272701263428 0.7840880751609802 L 105.6408538818359 36.45132446289062 L 144.3546752929688 153.5060119628906 Z" stroke="none"/>
      <path d="M 1.505477905273438 1.56817626953125 L 35.05873870849609 115.2526092529297 L 143.5626983642578 152.7037048339844 L 105.2442932128906 36.84458923339844 L 1.505477905273438 1.56817626953125 M 0 0 L 106.0374298095703 36.05805969238281 L 145.1466674804688 154.3083190917969 L 34.24547576904297 116.0298004150391 L 0 0 Z" stroke="none" fill="#60d1fc"/>
    </g>
    <g id="Path_146" data-name="Path 146" transform="translate(1436.755 635.381) rotate(-47)" fill="#60d1fc">
      <path d="M 144.3546752929688 153.5060119628906 L 34.65209579467773 115.6411972045898 L 0.7527272701263428 0.7840880751609802 L 105.6408538818359 36.45132446289062 L 144.3546752929688 153.5060119628906 Z" stroke="none"/>
      <path d="M 1.505477905273438 1.56817626953125 L 35.05873870849609 115.2526092529297 L 143.5626983642578 152.7037048339844 L 105.2442932128906 36.84458923339844 L 1.505477905273438 1.56817626953125 M 0 0 L 106.0374298095703 36.05805969238281 L 145.1466674804688 154.3083190917969 L 34.24547576904297 116.0298004150391 L 0 0 Z" stroke="none" fill="#60d1fc"/>
    </g>
    <g id="Path_75" data-name="Path 75" transform="translate(1329.694 881.137) rotate(-47)" fill="#60d1fc">
      <path d="M 144.3546752929688 153.5060119628906 L 34.65209579467773 115.6411972045898 L 0.7527272701263428 0.7840880751609802 L 105.6408538818359 36.45132446289062 L 144.3546752929688 153.5060119628906 Z" stroke="none"/>
      <path d="M 1.505477905273438 1.56817626953125 L 35.05873870849609 115.2526092529297 L 143.5626983642578 152.7037048339844 L 105.2442932128906 36.84458923339844 L 1.505477905273438 1.56817626953125 M 0 0 L 106.0374298095703 36.05805969238281 L 145.1466674804688 154.3083190917969 L 34.24547576904297 116.0298004150391 L 0 0 Z" stroke="none" fill="#60d1fc"/>
    </g>
    <g id="Path_93" data-name="Path 93" transform="translate(1536.694 881.131) rotate(-47)" fill="#60d1fc">
      <path d="M 144.3546752929688 153.5060119628906 L 34.65209579467773 115.6411972045898 L 0.7527272701263428 0.7840880751609802 L 105.6408538818359 36.45132446289062 L 144.3546752929688 153.5060119628906 Z" stroke="none"/>
      <path d="M 1.505477905273438 1.56817626953125 L 35.05873870849609 115.2526092529297 L 143.5626983642578 152.7037048339844 L 105.2442932128906 36.84458923339844 L 1.505477905273438 1.56817626953125 M 0 0 L 106.0374298095703 36.05805969238281 L 145.1466674804688 154.3083190917969 L 34.24547576904297 116.0298004150391 L 0 0 Z" stroke="none" fill="#60d1fc"/>
    </g>
    <g id="Path_129" data-name="Path 129" transform="translate(1436.755 635.381) rotate(-47)" fill="#60d1fc">
      <path d="M 144.3546752929688 153.5060119628906 L 34.65209579467773 115.6411972045898 L 0.7527272701263428 0.7840880751609802 L 105.6408538818359 36.45132446289062 L 144.3546752929688 153.5060119628906 Z" stroke="none"/>
      <path d="M 1.505477905273438 1.56817626953125 L 35.05873870849609 115.2526092529297 L 143.5626983642578 152.7037048339844 L 105.2442932128906 36.84458923339844 L 1.505477905273438 1.56817626953125 M 0 0 L 106.0374298095703 36.05805969238281 L 145.1466674804688 154.3083190917969 L 34.24547576904297 116.0298004150391 L 0 0 Z" stroke="none" fill="#60d1fc"/>
    </g>
    <g id="Path_111" data-name="Path 111" transform="translate(1536.694 881.131) rotate(-47)" fill="#60d1fc">
      <path d="M 144.3546752929688 153.5060119628906 L 34.65209579467773 115.6411972045898 L 0.7527272701263428 0.7840880751609802 L 105.6408538818359 36.45132446289062 L 144.3546752929688 153.5060119628906 Z" stroke="none"/>
      <path d="M 1.505477905273438 1.56817626953125 L 35.05873870849609 115.2526092529297 L 143.5626983642578 152.7037048339844 L 105.2442932128906 36.84458923339844 L 1.505477905273438 1.56817626953125 M 0 0 L 106.0374298095703 36.05805969238281 L 145.1466674804688 154.3083190917969 L 34.24547576904297 116.0298004150391 L 0 0 Z" stroke="none" fill="#60d1fc"/>
    </g>
    <g id="Path_147" data-name="Path 147" transform="translate(1436.755 635.381) rotate(-47)" fill="#60d1fc">
      <path d="M 144.3546752929688 153.5060119628906 L 34.65209579467773 115.6411972045898 L 0.7527272701263428 0.7840880751609802 L 105.6408538818359 36.45132446289062 L 144.3546752929688 153.5060119628906 Z" stroke="none"/>
      <path d="M 1.505477905273438 1.56817626953125 L 35.05873870849609 115.2526092529297 L 143.5626983642578 152.7037048339844 L 105.2442932128906 36.84458923339844 L 1.505477905273438 1.56817626953125 M 0 0 L 106.0374298095703 36.05805969238281 L 145.1466674804688 154.3083190917969 L 34.24547576904297 116.0298004150391 L 0 0 Z" stroke="none" fill="#60d1fc"/>
    </g>
    <g id="Path_85" data-name="Path 85" transform="translate(1329.694 881.137) rotate(-47)" fill="#60d1fc">
      <path d="M 144.3546752929688 153.5060119628906 L 34.65209579467773 115.6411972045898 L 0.7527272701263428 0.7840880751609802 L 105.6408538818359 36.45132446289062 L 144.3546752929688 153.5060119628906 Z" stroke="none"/>
      <path d="M 1.505477905273438 1.56817626953125 L 35.05873870849609 115.2526092529297 L 143.5626983642578 152.7037048339844 L 105.2442932128906 36.84458923339844 L 1.505477905273438 1.56817626953125 M 0 0 L 106.0374298095703 36.05805969238281 L 145.1466674804688 154.3083190917969 L 34.24547576904297 116.0298004150391 L 0 0 Z" stroke="none" fill="#60d1fc"/>
    </g>
    <g id="Path_94" data-name="Path 94" transform="translate(1536.694 881.131) rotate(-47)" fill="#60d1fc">
      <path d="M 144.3546752929688 153.5060119628906 L 34.65209579467773 115.6411972045898 L 0.7527272701263428 0.7840880751609802 L 105.6408538818359 36.45132446289062 L 144.3546752929688 153.5060119628906 Z" stroke="none"/>
      <path d="M 1.505477905273438 1.56817626953125 L 35.05873870849609 115.2526092529297 L 143.5626983642578 152.7037048339844 L 105.2442932128906 36.84458923339844 L 1.505477905273438 1.56817626953125 M 0 0 L 106.0374298095703 36.05805969238281 L 145.1466674804688 154.3083190917969 L 34.24547576904297 116.0298004150391 L 0 0 Z" stroke="none" fill="#60d1fc"/>
    </g>
    <g id="Path_130" data-name="Path 130" transform="translate(1436.755 635.381) rotate(-47)" fill="#60d1fc">
      <path d="M 144.3546752929688 153.5060119628906 L 34.65209579467773 115.6411972045898 L 0.7527272701263428 0.7840880751609802 L 105.6408538818359 36.45132446289062 L 144.3546752929688 153.5060119628906 Z" stroke="none"/>
      <path d="M 1.505477905273438 1.56817626953125 L 35.05873870849609 115.2526092529297 L 143.5626983642578 152.7037048339844 L 105.2442932128906 36.84458923339844 L 1.505477905273438 1.56817626953125 M 0 0 L 106.0374298095703 36.05805969238281 L 145.1466674804688 154.3083190917969 L 34.24547576904297 116.0298004150391 L 0 0 Z" stroke="none" fill="#60d1fc"/>
    </g>
    <g id="Path_112" data-name="Path 112" transform="translate(1536.694 881.131) rotate(-47)" fill="#60d1fc">
      <path d="M 144.3546752929688 153.5060119628906 L 34.65209579467773 115.6411972045898 L 0.7527272701263428 0.7840880751609802 L 105.6408538818359 36.45132446289062 L 144.3546752929688 153.5060119628906 Z" stroke="none"/>
      <path d="M 1.505477905273438 1.56817626953125 L 35.05873870849609 115.2526092529297 L 143.5626983642578 152.7037048339844 L 105.2442932128906 36.84458923339844 L 1.505477905273438 1.56817626953125 M 0 0 L 106.0374298095703 36.05805969238281 L 145.1466674804688 154.3083190917969 L 34.24547576904297 116.0298004150391 L 0 0 Z" stroke="none" fill="#60d1fc"/>
    </g>
    <g id="Path_148" data-name="Path 148" transform="translate(1436.755 635.381) rotate(-47)" fill="#60d1fc">
      <path d="M 144.3546752929688 153.5060119628906 L 34.65209579467773 115.6411972045898 L 0.7527272701263428 0.7840880751609802 L 105.6408538818359 36.45132446289062 L 144.3546752929688 153.5060119628906 Z" stroke="none"/>
      <path d="M 1.505477905273438 1.56817626953125 L 35.05873870849609 115.2526092529297 L 143.5626983642578 152.7037048339844 L 105.2442932128906 36.84458923339844 L 1.505477905273438 1.56817626953125 M 0 0 L 106.0374298095703 36.05805969238281 L 145.1466674804688 154.3083190917969 L 34.24547576904297 116.0298004150391 L 0 0 Z" stroke="none" fill="#60d1fc"/>
    </g>
    <g id="Path_79" data-name="Path 79" transform="translate(1329.694 881.137) rotate(-47)" fill="#60d1fc">
      <path d="M 144.3546752929688 153.5060119628906 L 34.65209579467773 115.6411972045898 L 0.7527272701263428 0.7840880751609802 L 105.6408538818359 36.45132446289062 L 144.3546752929688 153.5060119628906 Z" stroke="none"/>
      <path d="M 1.505477905273438 1.56817626953125 L 35.05873870849609 115.2526092529297 L 143.5626983642578 152.7037048339844 L 105.2442932128906 36.84458923339844 L 1.505477905273438 1.56817626953125 M 0 0 L 106.0374298095703 36.05805969238281 L 145.1466674804688 154.3083190917969 L 34.24547576904297 116.0298004150391 L 0 0 Z" stroke="none" fill="#60d1fc"/>
    </g>
    <g id="Path_95" data-name="Path 95" transform="translate(1536.694 881.131) rotate(-47)" fill="#60d1fc">
      <path d="M 144.3546752929688 153.5060119628906 L 34.65209579467773 115.6411972045898 L 0.7527272701263428 0.7840880751609802 L 105.6408538818359 36.45132446289062 L 144.3546752929688 153.5060119628906 Z" stroke="none"/>
      <path d="M 1.505477905273438 1.56817626953125 L 35.05873870849609 115.2526092529297 L 143.5626983642578 152.7037048339844 L 105.2442932128906 36.84458923339844 L 1.505477905273438 1.56817626953125 M 0 0 L 106.0374298095703 36.05805969238281 L 145.1466674804688 154.3083190917969 L 34.24547576904297 116.0298004150391 L 0 0 Z" stroke="none" fill="#60d1fc"/>
    </g>
    <g id="Path_131" data-name="Path 131" transform="translate(1436.755 635.381) rotate(-47)" fill="#60d1fc">
      <path d="M 144.3546752929688 153.5060119628906 L 34.65209579467773 115.6411972045898 L 0.7527272701263428 0.7840880751609802 L 105.6408538818359 36.45132446289062 L 144.3546752929688 153.5060119628906 Z" stroke="none"/>
      <path d="M 1.505477905273438 1.56817626953125 L 35.05873870849609 115.2526092529297 L 143.5626983642578 152.7037048339844 L 105.2442932128906 36.84458923339844 L 1.505477905273438 1.56817626953125 M 0 0 L 106.0374298095703 36.05805969238281 L 145.1466674804688 154.3083190917969 L 34.24547576904297 116.0298004150391 L 0 0 Z" stroke="none" fill="#60d1fc"/>
    </g>
    <g id="Path_113" data-name="Path 113" transform="translate(1536.694 881.131) rotate(-47)" fill="#60d1fc">
      <path d="M 144.3546752929688 153.5060119628906 L 34.65209579467773 115.6411972045898 L 0.7527272701263428 0.7840880751609802 L 105.6408538818359 36.45132446289062 L 144.3546752929688 153.5060119628906 Z" stroke="none"/>
      <path d="M 1.505477905273438 1.56817626953125 L 35.05873870849609 115.2526092529297 L 143.5626983642578 152.7037048339844 L 105.2442932128906 36.84458923339844 L 1.505477905273438 1.56817626953125 M 0 0 L 106.0374298095703 36.05805969238281 L 145.1466674804688 154.3083190917969 L 34.24547576904297 116.0298004150391 L 0 0 Z" stroke="none" fill="#60d1fc"/>
    </g>
    <g id="Path_149" data-name="Path 149" transform="translate(1436.755 635.381) rotate(-47)" fill="#60d1fc">
      <path d="M 144.3546752929688 153.5060119628906 L 34.65209579467773 115.6411972045898 L 0.7527272701263428 0.7840880751609802 L 105.6408538818359 36.45132446289062 L 144.3546752929688 153.5060119628906 Z" stroke="none"/>
      <path d="M 1.505477905273438 1.56817626953125 L 35.05873870849609 115.2526092529297 L 143.5626983642578 152.7037048339844 L 105.2442932128906 36.84458923339844 L 1.505477905273438 1.56817626953125 M 0 0 L 106.0374298095703 36.05805969238281 L 145.1466674804688 154.3083190917969 L 34.24547576904297 116.0298004150391 L 0 0 Z" stroke="none" fill="#60d1fc"/>
    </g>
    <path id="Path_73" data-name="Path 73" d="M17548.682,1437.017v200.509l107.061,44.782V1482.281Z" transform="translate(-16218.986 -555.879)" fill="#0490fb" stroke="#0490fb" stroke-width="1"/>
    <path id="Path_102" data-name="Path 102" d="M17548.682,1437.017v200.509l107.061,44.782V1482.281Z" transform="translate(-16011.986 -555.886)" fill="#0490fb" stroke="#0490fb" stroke-width="1"/>
    <path id="Path_138" data-name="Path 138" d="M17548.682,1437.017v200.509l107.061,44.782V1482.281Z" transform="translate(-16111.926 -801.635)" fill="#0490fb" stroke="#0490fb" stroke-width="1"/>
    <path id="Path_120" data-name="Path 120" d="M17548.682,1437.017v200.509l107.061,44.782V1482.281Z" transform="translate(-16011.986 -555.886)" fill="#0490fb" stroke="#0490fb" stroke-width="1"/>
    <path id="Path_150" data-name="Path 150" d="M17548.682,1437.017v200.509l107.061,44.782V1482.281Z" transform="translate(-16111.926 -801.635)" fill="#0490fb" stroke="#0490fb" stroke-width="1"/>
    <path id="Path_88" data-name="Path 88" d="M17548.682,1437.017v200.509l107.061,44.782V1482.281Z" transform="translate(-16218.986 -555.879)" fill="#0490fb" stroke="#0490fb" stroke-width="1"/>
    <path id="Path_103" data-name="Path 103" d="M17548.682,1437.017v200.509l107.061,44.782V1482.281Z" transform="translate(-16011.986 -555.886)" fill="#0490fb" stroke="#0490fb" stroke-width="1"/>
    <path id="Path_139" data-name="Path 139" d="M17548.682,1437.017v200.509l107.061,44.782V1482.281Z" transform="translate(-16111.926 -801.635)" fill="#0490fb" stroke="#0490fb" stroke-width="1"/>
    <path id="Path_121" data-name="Path 121" d="M17548.682,1437.017v200.509l107.061,44.782V1482.281Z" transform="translate(-16011.986 -555.886)" fill="#0490fb" stroke="#0490fb" stroke-width="1"/>
    <path id="Path_151" data-name="Path 151" d="M17548.682,1437.017v200.509l107.061,44.782V1482.281Z" transform="translate(-16111.926 -801.635)" fill="#0490fb" stroke="#0490fb" stroke-width="1"/>
    <path id="Path_82" data-name="Path 82" d="M17548.682,1437.017v200.509l107.061,44.782V1482.281Z" transform="translate(-16218.986 -555.879)" fill="#0490fb" stroke="#0490fb" stroke-width="1"/>
    <path id="Path_104" data-name="Path 104" d="M17548.682,1437.017v200.509l107.061,44.782V1482.281Z" transform="translate(-16011.986 -555.886)" fill="#0490fb" stroke="#0490fb" stroke-width="1"/>
    <path id="Path_140" data-name="Path 140" d="M17548.682,1437.017v200.509l107.061,44.782V1482.281Z" transform="translate(-16111.926 -801.635)" fill="#0490fb" stroke="#0490fb" stroke-width="1"/>
    <path id="Path_122" data-name="Path 122" d="M17548.682,1437.017v200.509l107.061,44.782V1482.281Z" transform="translate(-16011.986 -555.886)" fill="#0490fb" stroke="#0490fb" stroke-width="1"/>
    <path id="Path_152" data-name="Path 152" d="M17548.682,1437.017v200.509l107.061,44.782V1482.281Z" transform="translate(-16111.926 -801.635)" fill="#0490fb" stroke="#0490fb" stroke-width="1"/>
    <path id="Path_76" data-name="Path 76" d="M17548.682,1437.017v200.509l107.061,44.782V1482.281Z" transform="translate(-16218.986 -555.879)" fill="#0490fb" stroke="#0490fb" stroke-width="1"/>
    <path id="Path_105" data-name="Path 105" d="M17548.682,1437.017v200.509l107.061,44.782V1482.281Z" transform="translate(-16011.986 -555.886)" fill="#0490fb" stroke="#0490fb" stroke-width="1"/>
    <path id="Path_141" data-name="Path 141" d="M17548.682,1437.017v200.509l107.061,44.782V1482.281Z" transform="translate(-16111.926 -801.635)" fill="#0490fb" stroke="#0490fb" stroke-width="1"/>
    <path id="Path_123" data-name="Path 123" d="M17548.682,1437.017v200.509l107.061,44.782V1482.281Z" transform="translate(-16011.986 -555.886)" fill="#0490fb" stroke="#0490fb" stroke-width="1"/>
    <path id="Path_153" data-name="Path 153" d="M17548.682,1437.017v200.509l107.061,44.782V1482.281Z" transform="translate(-16111.926 -801.635)" fill="#0490fb" stroke="#0490fb" stroke-width="1"/>
    <path id="Path_89" data-name="Path 89" d="M17548.682,1437.017v200.509l107.061,44.782V1482.281Z" transform="translate(-16218.986 -555.879)" fill="#0490fb" stroke="#0490fb" stroke-width="1"/>
    <path id="Path_106" data-name="Path 106" d="M17548.682,1437.017v200.509l107.061,44.782V1482.281Z" transform="translate(-16011.986 -555.886)" fill="#0490fb" stroke="#0490fb" stroke-width="1"/>
    <path id="Path_142" data-name="Path 142" d="M17548.682,1437.017v200.509l107.061,44.782V1482.281Z" transform="translate(-16111.926 -801.635)" fill="#0490fb" stroke="#0490fb" stroke-width="1"/>
    <path id="Path_124" data-name="Path 124" d="M17548.682,1437.017v200.509l107.061,44.782V1482.281Z" transform="translate(-16011.986 -555.886)" fill="#0490fb" stroke="#0490fb" stroke-width="1"/>
    <path id="Path_154" data-name="Path 154" d="M17548.682,1437.017v200.509l107.061,44.782V1482.281Z" transform="translate(-16111.926 -801.635)" fill="#0490fb" stroke="#0490fb" stroke-width="1"/>
    <path id="Path_83" data-name="Path 83" d="M17548.682,1437.017v200.509l107.061,44.782V1482.281Z" transform="translate(-16218.986 -555.879)" fill="#0490fb" stroke="#0490fb" stroke-width="1"/>
    <path id="Path_107" data-name="Path 107" d="M17548.682,1437.017v200.509l107.061,44.782V1482.281Z" transform="translate(-16011.986 -555.886)" fill="#0490fb" stroke="#0490fb" stroke-width="1"/>
    <path id="Path_143" data-name="Path 143" d="M17548.682,1437.017v200.509l107.061,44.782V1482.281Z" transform="translate(-16111.926 -801.635)" fill="#0490fb" stroke="#0490fb" stroke-width="1"/>
    <path id="Path_125" data-name="Path 125" d="M17548.682,1437.017v200.509l107.061,44.782V1482.281Z" transform="translate(-16011.986 -555.886)" fill="#0490fb" stroke="#0490fb" stroke-width="1"/>
    <path id="Path_155" data-name="Path 155" d="M17548.682,1437.017v200.509l107.061,44.782V1482.281Z" transform="translate(-16111.926 -801.635)" fill="#0490fb" stroke="#0490fb" stroke-width="1"/>
    <path id="Path_74" data-name="Path 74" d="M17653.531,1437.017v201.252l-104.85,44.948V1482.449Z" transform="translate(-16111.992 -556.795)" fill="#24364d" stroke="#24364d" stroke-width="1"/>
    <path id="Path_96" data-name="Path 96" d="M17653.531,1437.017v201.252l-104.85,44.948V1482.449Z" transform="translate(-15904.992 -556.802)" fill="#24364d" stroke="#24364d" stroke-width="1"/>
    <path id="Path_132" data-name="Path 132" d="M17653.531,1437.017v201.252l-104.85,44.948V1482.449Z" transform="translate(-16004.932 -802.551)" fill="#24364d" stroke="#24364d" stroke-width="1"/>
    <path id="Path_114" data-name="Path 114" d="M17653.531,1437.017v201.252l-104.85,44.948V1482.449Z" transform="translate(-15904.992 -556.802)" fill="#24364d" stroke="#24364d" stroke-width="1"/>
    <path id="Path_156" data-name="Path 156" d="M17653.531,1437.017v201.252l-104.85,44.948V1482.449Z" transform="translate(-16004.932 -802.551)" fill="#24364d" stroke="#24364d" stroke-width="1"/>
    <path id="Path_86" data-name="Path 86" d="M17653.531,1437.017v201.252l-104.85,44.948V1482.449Z" transform="translate(-16111.992 -556.795)" fill="#24364d" stroke="#24364d" stroke-width="1"/>
    <path id="Path_97" data-name="Path 97" d="M17653.531,1437.017v201.252l-104.85,44.948V1482.449Z" transform="translate(-15904.992 -556.802)" fill="#24364d" stroke="#24364d" stroke-width="1"/>
    <path id="Path_133" data-name="Path 133" d="M17653.531,1437.017v201.252l-104.85,44.948V1482.449Z" transform="translate(-16004.932 -802.551)" fill="#24364d" stroke="#24364d" stroke-width="1"/>
    <path id="Path_115" data-name="Path 115" d="M17653.531,1437.017v201.252l-104.85,44.948V1482.449Z" transform="translate(-15904.992 -556.802)" fill="#24364d" stroke="#24364d" stroke-width="1"/>
    <path id="Path_157" data-name="Path 157" d="M17653.531,1437.017v201.252l-104.85,44.948V1482.449Z" transform="translate(-16004.932 -802.551)" fill="#24364d" stroke="#24364d" stroke-width="1"/>
    <path id="Path_80" data-name="Path 80" d="M17653.531,1437.017v201.252l-104.85,44.948V1482.449Z" transform="translate(-16111.992 -556.795)" fill="#24364d" stroke="#24364d" stroke-width="1"/>
    <path id="Path_98" data-name="Path 98" d="M17653.531,1437.017v201.252l-104.85,44.948V1482.449Z" transform="translate(-15904.992 -556.802)" fill="#24364d" stroke="#24364d" stroke-width="1"/>
    <path id="Path_134" data-name="Path 134" d="M17653.531,1437.017v201.252l-104.85,44.948V1482.449Z" transform="translate(-16004.932 -802.551)" fill="#24364d" stroke="#24364d" stroke-width="1"/>
    <path id="Path_116" data-name="Path 116" d="M17653.531,1437.017v201.252l-104.85,44.948V1482.449Z" transform="translate(-15904.992 -556.802)" fill="#24364d" stroke="#24364d" stroke-width="1"/>
    <path id="Path_158" data-name="Path 158" d="M17653.531,1437.017v201.252l-104.85,44.948V1482.449Z" transform="translate(-16004.932 -802.551)" fill="#24364d" stroke="#24364d" stroke-width="1"/>
    <path id="Path_77" data-name="Path 77" d="M17653.531,1437.017v201.252l-104.85,44.948V1482.449Z" transform="translate(-16111.992 -556.795)" fill="#24364d" stroke="#24364d" stroke-width="1"/>
    <path id="Path_99" data-name="Path 99" d="M17653.531,1437.017v201.252l-104.85,44.948V1482.449Z" transform="translate(-15904.992 -556.802)" fill="#24364d" stroke="#24364d" stroke-width="1"/>
    <path id="Path_135" data-name="Path 135" d="M17653.531,1437.017v201.252l-104.85,44.948V1482.449Z" transform="translate(-16004.932 -802.551)" fill="#24364d" stroke="#24364d" stroke-width="1"/>
    <path id="Path_117" data-name="Path 117" d="M17653.531,1437.017v201.252l-104.85,44.948V1482.449Z" transform="translate(-15904.992 -556.802)" fill="#24364d" stroke="#24364d" stroke-width="1"/>
    <path id="Path_159" data-name="Path 159" d="M17653.531,1437.017v201.252l-104.85,44.948V1482.449Z" transform="translate(-16004.932 -802.551)" fill="#24364d" stroke="#24364d" stroke-width="1"/>
    <path id="Path_87" data-name="Path 87" d="M17653.531,1437.017v201.252l-104.85,44.948V1482.449Z" transform="translate(-16111.992 -556.795)" fill="#24364d" stroke="#24364d" stroke-width="1"/>
    <path id="Path_100" data-name="Path 100" d="M17653.531,1437.017v201.252l-104.85,44.948V1482.449Z" transform="translate(-15904.992 -556.802)" fill="#24364d" stroke="#24364d" stroke-width="1"/>
    <path id="Path_136" data-name="Path 136" d="M17653.531,1437.017v201.252l-104.85,44.948V1482.449Z" transform="translate(-16004.932 -802.551)" fill="#24364d" stroke="#24364d" stroke-width="1"/>
    <path id="Path_118" data-name="Path 118" d="M17653.531,1437.017v201.252l-104.85,44.948V1482.449Z" transform="translate(-15904.992 -556.802)" fill="#24364d" stroke="#24364d" stroke-width="1"/>
    <path id="Path_160" data-name="Path 160" d="M17653.531,1437.017v201.252l-104.85,44.948V1482.449Z" transform="translate(-16004.932 -802.551)" fill="#24364d" stroke="#24364d" stroke-width="1"/>
    <path id="Path_81" data-name="Path 81" d="M17653.531,1437.017v201.252l-104.85,44.948V1482.449Z" transform="translate(-16111.992 -556.795)" fill="#24364d" stroke="#24364d" stroke-width="1"/>
    <path id="Path_101" data-name="Path 101" d="M17653.531,1437.017v201.252l-104.85,44.948V1482.449Z" transform="translate(-15904.992 -556.802)" fill="#24364d" stroke="#24364d" stroke-width="1"/>
    <path id="Path_137" data-name="Path 137" d="M17653.531,1437.017v201.252l-104.85,44.948V1482.449Z" transform="translate(-16004.932 -802.551)" fill="#24364d" stroke="#24364d" stroke-width="1"/>
    <path id="Path_119" data-name="Path 119" d="M17653.531,1437.017v201.252l-104.85,44.948V1482.449Z" transform="translate(-15904.992 -556.802)" fill="#24364d" stroke="#24364d" stroke-width="1"/>
    <path id="Path_161" data-name="Path 161" d="M17653.531,1437.017v201.252l-104.85,44.948V1482.449Z" transform="translate(-16004.932 -802.551)" fill="#24364d" stroke="#24364d" stroke-width="1"/>
    <text id="What_is_VPN" data-name="What is VPN" transform="translate(1451 76)" fill="#101011" font-size="20" font-family="Tahoma"><tspan x="0" y="0">What is VPN</tspan></text>
  </g>
</svg>
