<svg xmlns="http://www.w3.org/2000/svg" xmlns:xlink="http://www.w3.org/1999/xlink" width="1060" height="1816" viewBox="0 0 1060 1816">
  <defs>
    <linearGradient id="linear-gradient" x1="0.5" x2="0.5" y2="1" gradientUnits="objectBoundingBox">
      <stop offset="0" stop-color="#26ee00" stop-opacity="0.569"/>
      <stop offset="1" stop-color="#137700" stop-opacity="0.569"/>
    </linearGradient>
    <clipPath id="clip-Web_1920_18">
      <rect width="1060" height="1816"/>
    </clipPath>
  </defs>
  <g id="Web_1920_18" data-name="Web 1920 – 18" clip-path="url(#clip-Web_1920_18)">
    <rect width="1060" height="1816" fill="#fff"/>
    <g id="Rectangle_89" data-name="Rectangle 89" transform="translate(-3 1326)" stroke="#707070" stroke-width="1" fill="url(#linear-gradient)">
      <rect width="1063" height="492" stroke="none"/>
      <rect x="0.5" y="0.5" width="1062" height="491" fill="none"/>
    </g>
    <path id="Path_27" data-name="Path 27" d="M4501.154,133.121v6.6l23.2,20.966h6.148l2.376-4.012v-3.883l-12.019-11.13h47.517l1.957-2.459v-6.083l-3.075-2.588-46.4-.777,12.019-10.612V115.52l-5.729-4.53-4.332,1.035Z" transform="translate(-4468.244 -87.603)" fill="rgba(16,127,72,0.8)" stroke="#fff" stroke-width="1"/>
    <text id="How_many_servings_per_meal_" data-name="How many servings per meal?
" transform="translate(111.5 124.5)" fill="#707070" stroke="#fff" stroke-width="1" font-size="51" font-family="Tahoma-Bold, Tahoma" font-weight="700"><tspan x="0" y="0">How many servings per meal?</tspan><tspan x="0" y="62"></tspan></text>
    <text id="Back" transform="translate(104.5 62.5)" fill="rgba(16,127,72,0.8)" stroke="#fff" stroke-width="1" font-size="46" font-family="Tahoma-Bold, Tahoma" font-weight="700"><tspan x="0" y="0">Back</tspan></text>
    <g id="Rectangle_57" data-name="Rectangle 57" transform="translate(317 1415)" fill="rgba(16,127,72,0.8)" stroke="rgba(16,127,72,0.8)" stroke-width="1">
      <rect width="427" height="113" rx="15" stroke="none"/>
      <rect x="0.5" y="0.5" width="426" height="112" rx="14.5" fill="none"/>
    </g>
    <text id="Continue" transform="translate(424 1490)" fill="#fff" stroke="#fff" stroke-width="1" font-size="47" font-family="Tahoma-Bold, Tahoma" font-weight="700"><tspan x="0" y="0">Continue</tspan></text>
    <g id="Rectangle_79" data-name="Rectangle 79" transform="translate(112 330)" fill="#e5e5e5" stroke="#e5e5e5" stroke-width="1">
      <rect width="786" height="161" rx="24" stroke="none"/>
      <rect x="0.5" y="0.5" width="785" height="160" rx="23.5" fill="none"/>
    </g>
    <g id="Rectangle_80" data-name="Rectangle 80" transform="translate(112 546)" fill="#e5e5e5" stroke="#e5e5e5" stroke-width="1">
      <rect width="786" height="161" rx="24" stroke="none"/>
      <rect x="0.5" y="0.5" width="785" height="160" rx="23.5" fill="none"/>
    </g>
    <g id="Rectangle_81" data-name="Rectangle 81" transform="translate(112 762)" fill="#e5e5e5" stroke="#e5e5e5" stroke-width="1">
      <rect width="786" height="161" rx="24" stroke="none"/>
      <rect x="0.5" y="0.5" width="785" height="160" rx="23.5" fill="none"/>
    </g>
    <text id="_2_servings_" data-name="2 servings 
" transform="translate(161.5 411.5)" stroke="#e5e5e5" stroke-width="1" font-size="31" font-family="Tahoma-Bold, Tahoma" font-weight="700"><tspan x="0" y="0">2 servings </tspan><tspan x="0" y="37"></tspan></text>
    <text id="for_two_or_one_with_leftovers" data-name="for two, or one with leftovers" transform="translate(167 463)" fill="#707070" stroke="#e5e5e5" stroke-width="1" font-size="21" font-family="Tahoma"><tspan x="0" y="0">for two, or one with leftovers</tspan></text>
    <text id="_4_servings" data-name="4 servings" transform="translate(162 597)" stroke="#e5e5e5" stroke-width="1" font-size="31" font-family="Tahoma-Bold, Tahoma" font-weight="700"><tspan x="0" y="0">4 servings</tspan></text>
    <text id="for_four_or_three_leftovers" data-name="for four, or three leftovers" transform="translate(162 629)" fill="#707070" stroke="#e5e5e5" stroke-width="1" font-size="21" font-family="Tahoma"><tspan x="0" y="0">for four, or three leftovers</tspan></text>
    <text id="_6_servings_for_a_family_of_5_" data-name="6 servings 
for a family of 5+
" transform="translate(160 810)" fill="#707070" stroke="#e5e5e5" stroke-width="1" font-size="31" font-family="Tahoma-Bold, Tahoma" font-weight="700"><tspan x="0" y="0" fill="#000">6 servings </tspan><tspan y="0" fill="#707070" font-size="21"></tspan><tspan font-size="21"><tspan x="0" y="27">for a family of 5+</tspan><tspan x="0" y="52"></tspan></tspan></text>
  </g>
</svg>
