<svg xmlns="http://www.w3.org/2000/svg" xmlns:xlink="http://www.w3.org/1999/xlink" width="1060" height="1816" viewBox="0 0 1060 1816">
  <defs>
    <linearGradient id="linear-gradient" x1="0.5" x2="0.5" y2="1" gradientUnits="objectBoundingBox">
      <stop offset="0" stop-color="#26ee00" stop-opacity="0.569"/>
      <stop offset="1" stop-color="#137700" stop-opacity="0.569"/>
    </linearGradient>
    <clipPath id="clip-Web_1920_20">
      <rect width="1060" height="1816"/>
    </clipPath>
  </defs>
  <g id="Web_1920_20" data-name="Web 1920 – 20" clip-path="url(#clip-Web_1920_20)">
    <rect width="1060" height="1816" fill="#fff"/>
    <g id="Rectangle_89" data-name="Rectangle 89" transform="translate(-3 1326)" stroke="#707070" stroke-width="1" fill="url(#linear-gradient)">
      <rect width="1063" height="492" stroke="none"/>
      <rect x="0.5" y="0.5" width="1062" height="491" fill="none"/>
    </g>
    <path id="Path_27" data-name="Path 27" d="M4501.154,133.121v6.6l23.2,20.966h6.148l2.376-4.012v-3.883l-12.019-11.13h47.517l1.957-2.459v-6.083l-3.075-2.588-46.4-.777,12.019-10.612V115.52l-5.729-4.53-4.332,1.035Z" transform="translate(-4468.244 -87.603)" fill="rgba(16,127,72,0.8)" stroke="#fff" stroke-width="1"/>
    <text id="How_many_servings_per_meal_" data-name="How many servings per meal?
" transform="translate(111.5 124.5)" fill="#707070" stroke="#fff" stroke-width="1" font-size="51" font-family="Tahoma-Bold, Tahoma" font-weight="700"><tspan x="0" y="0">How many servings per meal?</tspan><tspan x="0" y="62"></tspan></text>
    <text id="Back" transform="translate(104.5 62.5)" fill="rgba(16,127,72,0.8)" stroke="#fff" stroke-width="1" font-size="46" font-family="Tahoma-Bold, Tahoma" font-weight="700"><tspan x="0" y="0">Back</tspan></text>
    <g id="Rectangle_57" data-name="Rectangle 57" transform="translate(317 1415)" fill="rgba(16,127,72,0.8)" stroke="rgba(16,127,72,0.8)" stroke-width="1">
      <rect width="427" height="113" rx="15" stroke="none"/>
      <rect x="0.5" y="0.5" width="426" height="112" rx="14.5" fill="none"/>
    </g>
    <text id="Continue" transform="translate(424 1490)" fill="#fff" stroke="#fff" stroke-width="1" font-size="47" font-family="Tahoma-Bold, Tahoma" font-weight="700"><tspan x="0" y="0">Continue</tspan></text>
    <text id="Remind_me_to_make_a_meal_plan_" data-name="Remind me to make a meal plan                " transform="translate(68 285)" stroke="#e5e5e5" stroke-width="1" font-size="31" font-family="Tahoma-Bold, Tahoma" font-weight="700"><tspan x="0" y="0" xml:space="preserve">Remind me to make a meal plan                </tspan></text>
    <g id="Rectangle_90" data-name="Rectangle 90" transform="translate(626 231)" fill="rgba(38,238,0,0.57)" stroke="rgba(38,238,0,0.57)" stroke-width="1">
      <rect width="177" height="84" rx="42" stroke="none"/>
      <rect x="0.5" y="0.5" width="176" height="83" rx="41.5" fill="none"/>
    </g>
    <g id="Ellipse_11" data-name="Ellipse 11" transform="translate(714 233)" fill="#fff" stroke="#fff" stroke-width="1">
      <ellipse cx="42" cy="40" rx="42" ry="40" stroke="none"/>
      <ellipse cx="42" cy="40" rx="41.5" ry="39.5" fill="none"/>
    </g>
    <g id="Rectangle_91" data-name="Rectangle 91" transform="translate(79 472)" fill="#fff" stroke="#707070" stroke-width="1">
      <rect width="719" height="86" rx="14" stroke="none"/>
      <rect x="0.5" y="0.5" width="718" height="85" rx="13.5" fill="none"/>
    </g>
    <g id="Rectangle_94" data-name="Rectangle 94" transform="translate(79 581)" fill="#fff" stroke="#707070" stroke-width="1">
      <rect width="719" height="86" rx="14" stroke="none"/>
      <rect x="0.5" y="0.5" width="718" height="85" rx="13.5" fill="none"/>
    </g>
    <g id="Rectangle_92" data-name="Rectangle 92" transform="translate(79 472)" fill="#fff" stroke="#707070" stroke-width="1">
      <rect width="719" height="86" rx="14" stroke="none"/>
      <rect x="0.5" y="0.5" width="718" height="85" rx="13.5" fill="none"/>
    </g>
    <g id="Rectangle_95" data-name="Rectangle 95" transform="translate(79 581)" fill="#fff" stroke="#707070" stroke-width="1">
      <rect width="719" height="86" rx="14" stroke="none"/>
      <rect x="0.5" y="0.5" width="718" height="85" rx="13.5" fill="none"/>
    </g>
    <g id="Rectangle_93" data-name="Rectangle 93" transform="translate(79 472)" fill="#fff" stroke="#707070" stroke-width="1">
      <rect width="719" height="86" rx="14" stroke="none"/>
      <rect x="0.5" y="0.5" width="718" height="85" rx="13.5" fill="none"/>
    </g>
    <g id="Rectangle_96" data-name="Rectangle 96" transform="translate(79 581)" fill="#fff" stroke="#707070" stroke-width="1">
      <rect width="719" height="86" rx="14" stroke="none"/>
      <rect x="0.5" y="0.5" width="718" height="85" rx="13.5" fill="none"/>
    </g>
    <line id="Line_1" data-name="Line 1" x2="22" y2="24" transform="translate(726.5 523.5)" fill="none" stroke="#707070" stroke-width="5"/>
    <line id="Line_3" data-name="Line 3" x2="22" y2="24" transform="translate(726.5 632.5)" fill="none" stroke="#707070" stroke-width="5"/>
    <line id="Line_2" data-name="Line 2" y1="25" x2="22" transform="translate(745.5 522.5)" fill="none" stroke="#707070" stroke-width="5"/>
    <line id="Line_4" data-name="Line 4" y1="25" x2="22" transform="translate(745.5 631.5)" fill="none" stroke="#707070" stroke-width="5"/>
    <text id="_10:00_AM" data-name="10:00 AM" transform="translate(167 523)" stroke="#e5e5e5" stroke-width="1" font-size="31" font-family="Tahoma-Bold, Tahoma" font-weight="700"><tspan x="0" y="0">10:00 AM</tspan></text>
    <text id="Sunday" transform="translate(167 626)" stroke="#e5e5e5" stroke-width="1" font-size="31" font-family="Tahoma-Bold, Tahoma" font-weight="700"><tspan x="0" y="0">Sunday</tspan></text>
  </g>
</svg>
