<svg xmlns="http://www.w3.org/2000/svg" xmlns:xlink="http://www.w3.org/1999/xlink" width="1060" height="1816" viewBox="0 0 1060 1816">
  <defs>
    <linearGradient id="linear-gradient" x1="0.5" x2="0.5" y2="1" gradientUnits="objectBoundingBox">
      <stop offset="0" stop-color="#26ee00" stop-opacity="0.569"/>
      <stop offset="1" stop-color="#137700" stop-opacity="0.569"/>
    </linearGradient>
    <clipPath id="clip-Web_1920_16">
      <rect width="1060" height="1816"/>
    </clipPath>
  </defs>
  <g id="Web_1920_16" data-name="Web 1920 – 16" clip-path="url(#clip-Web_1920_16)">
    <rect width="1060" height="1816" fill="#fff"/>
    <g id="Rectangle_87" data-name="Rectangle 87" transform="translate(0 1319)" stroke="#707070" stroke-width="1" fill="url(#linear-gradient)">
      <rect width="1060" height="497" stroke="none"/>
      <rect x="0.5" y="0.5" width="1059" height="496" fill="none"/>
    </g>
    <path id="Path_27" data-name="Path 27" d="M4501.154,133.121v6.6l23.2,20.966h6.148l2.376-4.012v-3.883l-12.019-11.13h47.517l1.957-2.459v-6.083l-3.075-2.588-46.4-.777,12.019-10.612V115.52l-5.729-4.53-4.332,1.035Z" transform="translate(-4468.244 -87.603)" fill="rgba(16,127,72,0.8)" stroke="#fff" stroke-width="1"/>
    <text id="How_about_dislikes_" data-name="How about dislikes?

" transform="translate(111.5 124.5)" fill="#707070" stroke="#fff" stroke-width="1" font-size="51" font-family="Tahoma-Bold, Tahoma" font-weight="700"><tspan x="0" y="0">How about dislikes?</tspan><tspan x="0" y="62"></tspan><tspan x="0" y="124"></tspan></text>
    <text id="Back" transform="translate(104.5 62.5)" fill="rgba(16,127,72,0.8)" stroke="#fff" stroke-width="1" font-size="46" font-family="Tahoma-Bold, Tahoma" font-weight="700"><tspan x="0" y="0">Back</tspan></text>
    <g id="Rectangle_57" data-name="Rectangle 57" transform="translate(317 1415)" fill="rgba(16,127,72,0.8)" stroke="rgba(16,127,72,0.8)" stroke-width="1">
      <rect width="427" height="113" rx="15" stroke="none"/>
      <rect x="0.5" y="0.5" width="426" height="112" rx="14.5" fill="none"/>
    </g>
    <text id="Continue" transform="translate(424 1490)" fill="#fff" stroke="#fff" stroke-width="1" font-size="47" font-family="Tahoma-Bold, Tahoma" font-weight="700"><tspan x="0" y="0">Continue</tspan></text>
    <g id="Rectangle_58" data-name="Rectangle 58" transform="translate(132 229)" fill="#e5e5e5" stroke="#e5e5e5" stroke-width="1">
      <rect width="244" height="92" rx="18" stroke="none"/>
      <rect x="0.5" y="0.5" width="243" height="91" rx="17.5" fill="none"/>
    </g>
    <g id="Rectangle_59" data-name="Rectangle 59" transform="translate(386 229)" fill="#e5e5e5" stroke="#e5e5e5" stroke-width="1">
      <rect width="244" height="92" rx="18" stroke="none"/>
      <rect x="0.5" y="0.5" width="243" height="91" rx="17.5" fill="none"/>
    </g>
    <g id="Rectangle_60" data-name="Rectangle 60" transform="translate(640 229)" fill="#e5e5e5" stroke="#e5e5e5" stroke-width="1">
      <rect width="244" height="92" rx="18" stroke="none"/>
      <rect x="0.5" y="0.5" width="243" height="91" rx="17.5" fill="none"/>
    </g>
    <g id="Rectangle_61" data-name="Rectangle 61" transform="translate(515 329)" fill="#e5e5e5" stroke="#e5e5e5" stroke-width="1">
      <rect width="345" height="92" rx="18" stroke="none"/>
      <rect x="0.5" y="0.5" width="344" height="91" rx="17.5" fill="none"/>
    </g>
    <g id="Rectangle_62" data-name="Rectangle 62" transform="translate(132 329)" fill="#e5e5e5" stroke="#e5e5e5" stroke-width="1">
      <rect width="367" height="92" rx="18" stroke="none"/>
      <rect x="0.5" y="0.5" width="366" height="91" rx="17.5" fill="none"/>
    </g>
    <g id="Rectangle_66" data-name="Rectangle 66" transform="translate(386 529)" fill="#e5e5e5" stroke="#e5e5e5" stroke-width="1">
      <rect width="290" height="92" rx="18" stroke="none"/>
      <rect x="0.5" y="0.5" width="289" height="91" rx="17.5" fill="none"/>
    </g>
    <g id="Rectangle_67" data-name="Rectangle 67" transform="translate(132 529)" fill="#e5e5e5" stroke="#e5e5e5" stroke-width="1">
      <rect width="244" height="92" rx="18" stroke="none"/>
      <rect x="0.5" y="0.5" width="243" height="91" rx="17.5" fill="none"/>
    </g>
    <g id="Rectangle_68" data-name="Rectangle 68" transform="translate(132 629)" fill="#e5e5e5" stroke="#e5e5e5" stroke-width="1">
      <rect width="277" height="92" rx="18" stroke="none"/>
      <rect x="0.5" y="0.5" width="276" height="91" rx="17.5" fill="none"/>
    </g>
    <g id="Rectangle_70" data-name="Rectangle 70" transform="translate(133 828)" fill="#e5e5e5" stroke="#e5e5e5" stroke-width="1">
      <rect width="244" height="92" rx="18" stroke="none"/>
      <rect x="0.5" y="0.5" width="243" height="91" rx="17.5" fill="none"/>
    </g>
    <g id="Rectangle_72" data-name="Rectangle 72" transform="translate(133 728)" fill="#e5e5e5" stroke="#e5e5e5" stroke-width="1">
      <rect width="244" height="92" rx="18" stroke="none"/>
      <rect x="0.5" y="0.5" width="243" height="91" rx="17.5" fill="none"/>
    </g>
    <g id="Rectangle_69" data-name="Rectangle 69" transform="translate(386 729)" fill="#e5e5e5" stroke="#e5e5e5" stroke-width="1">
      <rect width="244" height="92" rx="18" stroke="none"/>
      <rect x="0.5" y="0.5" width="243" height="91" rx="17.5" fill="none"/>
    </g>
    <g id="Rectangle_73" data-name="Rectangle 73" transform="translate(386 828)" fill="#e5e5e5" stroke="#e5e5e5" stroke-width="1">
      <rect width="244" height="92" rx="18" stroke="none"/>
      <rect x="0.5" y="0.5" width="243" height="91" rx="17.5" fill="none"/>
    </g>
    <g id="Rectangle_76" data-name="Rectangle 76" transform="translate(639 828)" fill="#e5e5e5" stroke="#e5e5e5" stroke-width="1">
      <rect width="244" height="92" rx="18" stroke="none"/>
      <rect x="0.5" y="0.5" width="243" height="91" rx="17.5" fill="none"/>
    </g>
    <g id="Rectangle_74" data-name="Rectangle 74" transform="translate(133 928)" fill="#e5e5e5" stroke="#e5e5e5" stroke-width="1">
      <rect width="244" height="92" rx="18" stroke="none"/>
      <rect x="0.5" y="0.5" width="243" height="91" rx="17.5" fill="none"/>
    </g>
    <g id="Rectangle_75" data-name="Rectangle 75" transform="translate(386 927)" fill="#e5e5e5" stroke="#e5e5e5" stroke-width="1">
      <rect width="244" height="92" rx="18" stroke="none"/>
      <rect x="0.5" y="0.5" width="243" height="91" rx="17.5" fill="none"/>
    </g>
    <g id="Rectangle_78" data-name="Rectangle 78" transform="translate(133 1026)" fill="#e5e5e5" stroke="#e5e5e5" stroke-width="1">
      <rect width="244" height="92" rx="18" stroke="none"/>
      <rect x="0.5" y="0.5" width="243" height="91" rx="17.5" fill="none"/>
    </g>
    <g id="Rectangle_77" data-name="Rectangle 77" transform="translate(639 927)" fill="#e5e5e5" stroke="#e5e5e5" stroke-width="1">
      <rect width="208" height="92" rx="18" stroke="none"/>
      <rect x="0.5" y="0.5" width="207" height="91" rx="17.5" fill="none"/>
    </g>
    <g id="Rectangle_71" data-name="Rectangle 71" transform="translate(417 629)" fill="#e5e5e5" stroke="#e5e5e5" stroke-width="1">
      <rect width="244" height="92" rx="18" stroke="none"/>
      <rect x="0.5" y="0.5" width="243" height="91" rx="17.5" fill="none"/>
    </g>
    <g id="Rectangle_64" data-name="Rectangle 64" transform="translate(132 429)" fill="#e5e5e5" stroke="#e5e5e5" stroke-width="1">
      <rect width="432" height="92" rx="18" stroke="none"/>
      <rect x="0.5" y="0.5" width="431" height="91" rx="17.5" fill="none"/>
    </g>
    <text id="Avocado" transform="translate(157.5 287.5)" fill="#707070" stroke="#707070" stroke-width="1" font-size="31" font-family="Tahoma-Bold, Tahoma" font-weight="700"><tspan x="0" y="0">Avocado</tspan></text>
    <text id="Beef" transform="translate(422.5 283.5)" fill="#707070" stroke="#707070" stroke-width="1" font-size="31" font-family="Tahoma-Bold, Tahoma" font-weight="700"><tspan x="0" y="0">Beef</tspan></text>
    <text id="Beets" transform="translate(659 283.5)" fill="#707070" stroke="#707070" stroke-width="1" font-size="31" font-family="Tahoma-Bold, Tahoma" font-weight="700"><tspan x="0" y="0">Beets</tspan></text>
    <text id="Bell_Peppers" data-name="Bell Peppers" transform="translate(158 387)" fill="#707070" stroke="#707070" stroke-width="1" font-size="31" font-family="Tahoma-Bold, Tahoma" font-weight="700"><tspan x="0" y="0">Bell Peppers</tspan></text>
    <text id="Blue_cheese" data-name="Blue cheese" transform="translate(545 387.5)" fill="#707070" stroke="#707070" stroke-width="1" font-size="31" font-family="Tahoma-Bold, Tahoma" font-weight="700"><tspan x="0" y="0">Blue cheese</tspan></text>
    <text id="Brussels_sprouts" data-name="Brussels sprouts" transform="translate(158 487)" fill="#707070" stroke="#707070" stroke-width="1" font-size="31" font-family="Tahoma-Bold, Tahoma" font-weight="700"><tspan x="0" y="0">Brussels sprouts</tspan></text>
    <text id="Cauliflower" transform="translate(152 587)" fill="#707070" stroke="#707070" stroke-width="1" font-size="30" font-family="Tahoma-Bold, Tahoma" font-weight="700"><tspan x="0" y="0">Cauliflower</tspan></text>
    <text id="Eggplant" transform="translate(417 587)" fill="#707070" stroke="#707070" stroke-width="1" font-size="31" font-family="Tahoma-Bold, Tahoma" font-weight="700"><tspan x="0" y="0">Eggplant</tspan></text>
    <text id="goat_cheese" data-name="goat cheese" transform="translate(152 686)" fill="#707070" stroke="#707070" stroke-width="1" font-size="31" font-family="Tahoma-Bold, Tahoma" font-weight="700"><tspan x="0" y="0">goat cheese</tspan></text>
    <text id="Lamb_" data-name="Lamb " transform="translate(432 687.5)" fill="#707070" stroke="#707070" stroke-width="1" font-size="31" font-family="Tahoma-Bold, Tahoma" font-weight="700"><tspan x="0" y="0">Lamb </tspan></text>
    <text id="mushrooms" transform="translate(152 775)" fill="#707070" stroke="#707070" stroke-width="1" font-size="31" font-family="Tahoma-Bold, Tahoma" font-weight="700"><tspan x="0" y="0">mushrooms</tspan></text>
    <text id="olives" transform="translate(409 777)" fill="#707070" stroke="#707070" stroke-width="1" font-size="31" font-family="Tahoma-Bold, Tahoma" font-weight="700"><tspan x="0" y="0">olives</tspan></text>
    <text id="Pork" transform="translate(157 881)" fill="#707070" stroke="#707070" stroke-width="1" font-size="31" font-family="Tahoma-Bold, Tahoma" font-weight="700"><tspan x="0" y="0">Pork</tspan></text>
    <text id="Quinoa" transform="translate(409 876)" fill="#707070" stroke="#707070" stroke-width="1" font-size="31" font-family="Tahoma-Bold, Tahoma" font-weight="700"><tspan x="0" y="0">Quinoa</tspan></text>
    <text id="Salmon" transform="translate(676 874)" fill="#707070" stroke="#707070" stroke-width="1" font-size="31" font-family="Tahoma-Bold, Tahoma" font-weight="700"><tspan x="0" y="0">Salmon</tspan></text>
    <text id="Shrimp" transform="translate(158 974)" fill="#707070" stroke="#707070" stroke-width="1" font-size="31" font-family="Tahoma-Bold, Tahoma" font-weight="700"><tspan x="0" y="0">Shrimp</tspan></text>
    <text id="Tofu" transform="translate(414 974)" fill="#707070" stroke="#707070" stroke-width="1" font-size="31" font-family="Tahoma-Bold, Tahoma" font-weight="700"><tspan x="0" y="0">Tofu</tspan></text>
    <text id="Tuna" transform="translate(676 967)" fill="#707070" stroke="#707070" stroke-width="1" font-size="31" font-family="Tahoma-Bold, Tahoma" font-weight="700"><tspan x="0" y="0">Tuna</tspan></text>
    <text id="Turnips" transform="translate(152 1079)" fill="#707070" stroke="#707070" stroke-width="1" font-size="31" font-family="Tahoma-Bold, Tahoma" font-weight="700"><tspan x="0" y="0">Turnips</tspan></text>
    <g id="Rectangle_99" data-name="Rectangle 99" transform="translate(198 1184)" fill="#fff" stroke="#707070" stroke-width="1">
      <rect width="685" height="83" rx="21" stroke="none"/>
      <rect x="0.5" y="0.5" width="684" height="82" rx="20.5" fill="none"/>
    </g>
    <text id="Enter_in_your_your_dislikes_if_non_our_options_match_your_dislikes" data-name="Enter in your your dislikes if non our options match your dislikes" transform="translate(44 1161)" stroke="#e5e5e5" stroke-width="1" font-size="31" font-family="Tahoma-Bold, Tahoma" font-weight="700"><tspan x="0" y="0">Enter in your your dislikes if non our options match your dislikes</tspan></text>
  </g>
</svg>
