<svg xmlns="http://www.w3.org/2000/svg" xmlns:xlink="http://www.w3.org/1999/xlink" width="1060" height="1816" viewBox="0 0 1060 1816">
  <defs>
    <linearGradient id="linear-gradient" x1="0.5" x2="0.5" y2="1" gradientUnits="objectBoundingBox">
      <stop offset="0" stop-color="#107f48" stop-opacity="0.8"/>
      <stop offset="1" stop-color="#084024" stop-opacity="0.8"/>
    </linearGradient>
    <filter id="Rectangle_11" x="218" y="768" width="624" height="93" filterUnits="userSpaceOnUse">
      <feOffset dy="3" input="SourceAlpha"/>
      <feGaussianBlur stdDeviation="3" result="blur"/>
      <feFlood flood-color="#107f48" flood-opacity="0.8"/>
      <feComposite operator="in" in2="blur"/>
    </filter>
    <filter id="Rectangle_11-2" x="218" y="768" width="624" height="93" filterUnits="userSpaceOnUse">
      <feOffset dy="3" input="SourceAlpha"/>
      <feGaussianBlur stdDeviation="3" result="blur-2"/>
      <feFlood flood-color="#107f48" flood-opacity="0.8" result="color"/>
      <feComposite operator="out" in="SourceGraphic" in2="blur-2"/>
      <feComposite operator="in" in="color"/>
      <feComposite operator="in" in2="SourceGraphic"/>
    </filter>
    <filter id="Rectangle_12" x="218" y="883" width="624" height="93" filterUnits="userSpaceOnUse">
      <feOffset dy="3" input="SourceAlpha"/>
      <feGaussianBlur stdDeviation="3" result="blur-3"/>
      <feFlood flood-color="#107f48" flood-opacity="0.8"/>
      <feComposite operator="in" in2="blur-3"/>
    </filter>
    <filter id="Rectangle_12-2" x="218" y="883" width="624" height="93" filterUnits="userSpaceOnUse">
      <feOffset dy="3" input="SourceAlpha"/>
      <feGaussianBlur stdDeviation="3" result="blur-4"/>
      <feFlood flood-color="#107f48" flood-opacity="0.8" result="color-2"/>
      <feComposite operator="out" in="SourceGraphic" in2="blur-4"/>
      <feComposite operator="in" in="color-2"/>
      <feComposite operator="in" in2="SourceGraphic"/>
    </filter>
    <clipPath id="clip-Web_1920_1">
      <rect width="1060" height="1816"/>
    </clipPath>
  </defs>
  <g id="Web_1920_1" data-name="Web 1920 – 1" clip-path="url(#clip-Web_1920_1)">
    <rect width="1060" height="1816" fill="#fff"/>
    <g id="Rectangle_33" data-name="Rectangle 33" stroke="#707070" stroke-width="1" fill="url(#linear-gradient)">
      <rect width="1060" height="1816" stroke="none"/>
      <rect x="0.5" y="0.5" width="1059" height="1815" fill="none"/>
    </g>
    <g data-type="innerShadowGroup">
      <g transform="matrix(1, 0, 0, 1, 0, 0)" filter="url(#Rectangle_11)">
        <g id="Rectangle_11-3" data-name="Rectangle 11" transform="translate(227 774)" fill="#fff" stroke="#707070" stroke-width="1">
          <rect width="606" height="75" rx="10" stroke="none"/>
          <rect x="0.5" y="0.5" width="605" height="74" rx="9.5" fill="none"/>
        </g>
      </g>
      <rect id="Rectangle_11-4" data-name="Rectangle 11" width="606" height="75" rx="10" transform="translate(227 774)" fill="#fff"/>
      <g transform="matrix(1, 0, 0, 1, 0, 0)" filter="url(#Rectangle_11-2)">
        <rect id="Rectangle_11-5" data-name="Rectangle 11" width="606" height="75" rx="10" transform="translate(227 774)" fill="#fff"/>
      </g>
      <g id="Rectangle_11-6" data-name="Rectangle 11" transform="translate(227 774)" fill="none" stroke="#707070" stroke-width="1">
        <rect width="606" height="75" rx="10" stroke="none"/>
        <rect x="0.5" y="0.5" width="605" height="74" rx="9.5" fill="none"/>
      </g>
    </g>
    <g data-type="innerShadowGroup">
      <g transform="matrix(1, 0, 0, 1, 0, 0)" filter="url(#Rectangle_12)">
        <g id="Rectangle_12-3" data-name="Rectangle 12" transform="translate(227 889)" fill="#fff" stroke="#707070" stroke-width="1">
          <rect width="606" height="75" rx="10" stroke="none"/>
          <rect x="0.5" y="0.5" width="605" height="74" rx="9.5" fill="none"/>
        </g>
      </g>
      <rect id="Rectangle_12-4" data-name="Rectangle 12" width="606" height="75" rx="10" transform="translate(227 889)" fill="#fff"/>
      <g transform="matrix(1, 0, 0, 1, 0, 0)" filter="url(#Rectangle_12-2)">
        <rect id="Rectangle_12-5" data-name="Rectangle 12" width="606" height="75" rx="10" transform="translate(227 889)" fill="#fff"/>
      </g>
      <g id="Rectangle_12-6" data-name="Rectangle 12" transform="translate(227 889)" fill="none" stroke="#707070" stroke-width="1">
        <rect width="606" height="75" rx="10" stroke="none"/>
        <rect x="0.5" y="0.5" width="605" height="74" rx="9.5" fill="none"/>
      </g>
    </g>
    <text id="or" transform="translate(515 878)" fill="#707070" font-size="20" font-family="SegoeUI, Segoe UI"><tspan x="0" y="0">or</tspan></text>
    <text id="LOGIN" transform="translate(491 820)" fill="rgba(17,212,115,0.78)" font-size="20" font-family="Tahoma-Bold, Tahoma" font-weight="700"><tspan x="0" y="0">LOGIN</tspan></text>
    <text id="SIGN_UP" data-name="SIGN UP" transform="translate(487 934)" fill="rgba(17,212,115,0.78)" font-size="20" font-family="Tahoma-Bold, Tahoma" font-weight="700"><tspan x="0" y="0">SIGN UP</tspan></text>
    <g id="Rectangle_21" data-name="Rectangle 21" transform="translate(401 582)" fill="#fff" stroke="#fff" stroke-width="1">
      <rect width="258" height="24" rx="12" stroke="none"/>
      <rect x="0.5" y="0.5" width="257" height="23" rx="11.5" fill="none"/>
    </g>
    <g id="Rectangle_22" data-name="Rectangle 22" transform="translate(465 543)" fill="#fff" stroke="#fff" stroke-width="1">
      <rect width="22" height="100" stroke="none"/>
      <rect x="0.5" y="0.5" width="21" height="99" fill="none"/>
    </g>
    <g id="Rectangle_23" data-name="Rectangle 23" transform="translate(573 544)" fill="#fff" stroke="#fff" stroke-width="1">
      <rect width="22" height="99" stroke="none"/>
      <rect x="0.5" y="0.5" width="21" height="98" fill="none"/>
    </g>
    <g id="Rectangle_24" data-name="Rectangle 24" transform="translate(601 555)" fill="#fff" stroke="#fff" stroke-width="1">
      <rect width="19" height="76" stroke="none"/>
      <rect x="0.5" y="0.5" width="18" height="75" fill="none"/>
    </g>
    <g id="Rectangle_25" data-name="Rectangle 25" transform="translate(440 555)" fill="#fff" stroke="#fff" stroke-width="1">
      <rect width="19" height="76" stroke="none"/>
      <rect x="0.5" y="0.5" width="18" height="75" fill="none"/>
    </g>
    <text id="_" data-name="
" transform="translate(412 727)" fill="rgba(17,212,115,0.78)" font-size="20" font-family="Tahoma-Bold, Tahoma" font-weight="700"><tspan x="0" y="0"></tspan><tspan x="0" y="24"></tspan></text>
    <text id="FOR_YOU_FITNESSS" data-name="FOR YOU FITNESSS" transform="translate(432 688)" fill="#fcfcfc" font-size="20" font-family="Tahoma-Bold, Tahoma" font-weight="700"><tspan x="0" y="0">FOR YOU FITNESSS</tspan></text>
  </g>
</svg>
