<svg xmlns="http://www.w3.org/2000/svg" xmlns:xlink="http://www.w3.org/1999/xlink" width="1060" height="1816" viewBox="0 0 1060 1816">
  <defs>
    <linearGradient id="linear-gradient" x1="0.5" x2="0.5" y2="1" gradientUnits="objectBoundingBox">
      <stop offset="0" stop-color="#26ee00" stop-opacity="0.569"/>
      <stop offset="1" stop-color="#137700" stop-opacity="0.569"/>
    </linearGradient>
    <clipPath id="clip-Web_1920_14">
      <rect width="1060" height="1816"/>
    </clipPath>
  </defs>
  <g id="Web_1920_14" data-name="Web 1920 – 14" clip-path="url(#clip-Web_1920_14)">
    <rect width="1060" height="1816" fill="#fff"/>
    <g id="Rectangle_83" data-name="Rectangle 83" transform="translate(0 1315)" stroke="#707070" stroke-width="1" fill="url(#linear-gradient)">
      <rect width="1060" height="501" stroke="none"/>
      <rect x="0.5" y="0.5" width="1059" height="500" fill="none"/>
    </g>
    <path id="Path_27" data-name="Path 27" d="M4501.154,133.121v6.6l23.2,20.966h6.148l2.376-4.012v-3.883l-12.019-11.13h47.517l1.957-2.459v-6.083l-3.075-2.588-46.4-.777,12.019-10.612V115.52l-5.729-4.53-4.332,1.035Z" transform="translate(-4468.244 -87.603)" fill="rgba(16,127,72,0.8)" stroke="#fff" stroke-width="1"/>
    <text id="Any_allergies_" data-name="Any allergies ?

" transform="translate(100.5 126.5)" fill="#707070" stroke="#fff" stroke-width="1" font-size="53" font-family="Tahoma-Bold, Tahoma" font-weight="700"><tspan x="0" y="0">Any allergies ?</tspan><tspan x="0" y="64"></tspan><tspan x="0" y="128"></tspan></text>
    <text id="Back" transform="translate(104.5 62.5)" fill="rgba(16,127,72,0.8)" stroke="#fff" stroke-width="1" font-size="46" font-family="Tahoma-Bold, Tahoma" font-weight="700"><tspan x="0" y="0">Back</tspan></text>
    <g id="Rectangle_57" data-name="Rectangle 57" transform="translate(317 1415)" fill="rgba(16,127,72,0.8)" stroke="rgba(16,127,72,0.8)" stroke-width="1">
      <rect width="427" height="113" rx="15" stroke="none"/>
      <rect x="0.5" y="0.5" width="426" height="112" rx="14.5" fill="none"/>
    </g>
    <text id="Continue" transform="translate(424 1490)" fill="#fff" stroke="#fff" stroke-width="1" font-size="47" font-family="Tahoma-Bold, Tahoma" font-weight="700"><tspan x="0" y="0">Continue</tspan></text>
    <g id="Rectangle_58" data-name="Rectangle 58" transform="translate(113 391)" fill="#e5e5e5" stroke="#e5e5e5" stroke-width="1">
      <rect width="244" height="92" rx="18" stroke="none"/>
      <rect x="0.5" y="0.5" width="243" height="91" rx="17.5" fill="none"/>
    </g>
    <g id="Rectangle_59" data-name="Rectangle 59" transform="translate(367 391)" fill="#e5e5e5" stroke="#e5e5e5" stroke-width="1">
      <rect width="244" height="92" rx="18" stroke="none"/>
      <rect x="0.5" y="0.5" width="243" height="91" rx="17.5" fill="none"/>
    </g>
    <g id="Rectangle_60" data-name="Rectangle 60" transform="translate(621 391)" fill="#e5e5e5" stroke="#e5e5e5" stroke-width="1">
      <rect width="244" height="92" rx="18" stroke="none"/>
      <rect x="0.5" y="0.5" width="243" height="91" rx="17.5" fill="none"/>
    </g>
    <g id="Rectangle_61" data-name="Rectangle 61" transform="translate(367 491)" fill="#e5e5e5" stroke="#e5e5e5" stroke-width="1">
      <rect width="244" height="92" rx="18" stroke="none"/>
      <rect x="0.5" y="0.5" width="243" height="91" rx="17.5" fill="none"/>
    </g>
    <g id="Rectangle_62" data-name="Rectangle 62" transform="translate(113 491)" fill="#e5e5e5" stroke="#e5e5e5" stroke-width="1">
      <rect width="244" height="92" rx="18" stroke="none"/>
      <rect x="0.5" y="0.5" width="243" height="91" rx="17.5" fill="none"/>
    </g>
    <g id="Rectangle_63" data-name="Rectangle 63" transform="translate(367 591)" fill="#e5e5e5" stroke="#e5e5e5" stroke-width="1">
      <rect width="244" height="92" rx="18" stroke="none"/>
      <rect x="0.5" y="0.5" width="243" height="91" rx="17.5" fill="none"/>
    </g>
    <g id="Rectangle_65" data-name="Rectangle 65" transform="translate(621 591)" fill="#e5e5e5" stroke="#e5e5e5" stroke-width="1">
      <rect width="244" height="92" rx="18" stroke="none"/>
      <rect x="0.5" y="0.5" width="243" height="91" rx="17.5" fill="none"/>
    </g>
    <g id="Rectangle_66" data-name="Rectangle 66" transform="translate(367 691)" fill="#e5e5e5" stroke="#e5e5e5" stroke-width="1">
      <rect width="244" height="92" rx="18" stroke="none"/>
      <rect x="0.5" y="0.5" width="243" height="91" rx="17.5" fill="none"/>
    </g>
    <g id="Rectangle_67" data-name="Rectangle 67" transform="translate(113 691)" fill="#e5e5e5" stroke="#e5e5e5" stroke-width="1">
      <rect width="244" height="92" rx="18" stroke="none"/>
      <rect x="0.5" y="0.5" width="243" height="91" rx="17.5" fill="none"/>
    </g>
    <g id="Rectangle_68" data-name="Rectangle 68" transform="translate(113 791)" fill="#e5e5e5" stroke="#e5e5e5" stroke-width="1">
      <rect width="244" height="92" rx="18" stroke="none"/>
      <rect x="0.5" y="0.5" width="243" height="91" rx="17.5" fill="none"/>
    </g>
    <g id="Rectangle_69" data-name="Rectangle 69" transform="translate(367 791)" fill="#e5e5e5" stroke="#e5e5e5" stroke-width="1">
      <rect width="244" height="92" rx="18" stroke="none"/>
      <rect x="0.5" y="0.5" width="243" height="91" rx="17.5" fill="none"/>
    </g>
    <g id="Rectangle_64" data-name="Rectangle 64" transform="translate(113 591)" fill="#e5e5e5" stroke="#e5e5e5" stroke-width="1">
      <rect width="244" height="92" rx="18" stroke="none"/>
      <rect x="0.5" y="0.5" width="243" height="91" rx="17.5" fill="none"/>
    </g>
    <text id="Shelfish" transform="translate(138.5 449.5)" fill="#707070" stroke="#707070" stroke-width="1" font-size="31" font-family="Tahoma-Bold, Tahoma" font-weight="700"><tspan x="0" y="0">Shelfish</tspan></text>
    <text id="Fish" transform="translate(403.5 445.5)" fill="#707070" stroke="#707070" stroke-width="1" font-size="31" font-family="Tahoma-Bold, Tahoma" font-weight="700"><tspan x="0" y="0">Fish</tspan></text>
    <text id="Gluten" transform="translate(640 445.5)" fill="#707070" stroke="#707070" stroke-width="1" font-size="31" font-family="Tahoma-Bold, Tahoma" font-weight="700"><tspan x="0" y="0">Gluten</tspan></text>
    <text id="Dairy" transform="translate(138.5 537.5)" fill="#707070" stroke="#707070" stroke-width="1" font-size="31" font-family="Tahoma-Bold, Tahoma" font-weight="700"><tspan x="0" y="0">Dairy</tspan></text>
    <text id="Peanut" transform="translate(398 537.5)" fill="#707070" stroke="#707070" stroke-width="1" font-size="31" font-family="Tahoma-Bold, Tahoma" font-weight="700"><tspan x="0" y="0">Peanut</tspan></text>
    <text id="Tree_Nut" data-name="Tree Nut" transform="translate(133 648)" fill="#707070" stroke="#707070" stroke-width="1" font-size="31" font-family="Tahoma-Bold, Tahoma" font-weight="700"><tspan x="0" y="0">Tree Nut</tspan></text>
    <text id="Soy" transform="translate(398 644.5)" fill="#707070" stroke="#707070" stroke-width="1" font-size="31" font-family="Tahoma-Bold, Tahoma" font-weight="700"><tspan x="0" y="0">Soy</tspan></text>
    <text id="Eggs" transform="translate(640 644.5)" fill="#707070" stroke="#707070" stroke-width="1" font-size="31" font-family="Tahoma-Bold, Tahoma" font-weight="700"><tspan x="0" y="0">Eggs</tspan></text>
    <text id="Sesame" transform="translate(133 749)" fill="#707070" stroke="#707070" stroke-width="1" font-size="30" font-family="Tahoma-Bold, Tahoma" font-weight="700"><tspan x="0" y="0">Sesame</tspan></text>
    <text id="Mustard" transform="translate(398 743.5)" fill="#707070" stroke="#707070" stroke-width="1" font-size="31" font-family="Tahoma-Bold, Tahoma" font-weight="700"><tspan x="0" y="0">Mustard</tspan></text>
    <text id="Sulfite" transform="translate(133 848)" fill="#707070" stroke="#707070" stroke-width="1" font-size="31" font-family="Tahoma-Bold, Tahoma" font-weight="700"><tspan x="0" y="0">Sulfite</tspan></text>
    <text id="Nightshade" transform="translate(398 839.5)" fill="#707070" stroke="#707070" stroke-width="1" font-size="31" font-family="Tahoma-Bold, Tahoma" font-weight="700"><tspan x="0" y="0">Nightshade</tspan></text>
    <g id="Rectangle_82" data-name="Rectangle 82" transform="translate(175 1118)" fill="#fff" stroke="#707070" stroke-width="1">
      <rect width="685" height="83" rx="21" stroke="none"/>
      <rect x="0.5" y="0.5" width="684" height="82" rx="20.5" fill="none"/>
    </g>
    <text id="Enter_in_your_allergy_if_non_our_options_match_your_allergy" data-name="Enter in your allergy if non our options match your allergy" transform="translate(69 1082)" stroke="#e5e5e5" stroke-width="1" font-size="31" font-family="Tahoma-Bold, Tahoma" font-weight="700"><tspan x="0" y="0">Enter in your allergy if non our options match your allergy</tspan></text>
  </g>
</svg>
